<?xml version="1.0" encoding="utf-8"?>
<!-- Generator: Adobe Illustrator 27.0.0, SVG Export Plug-In . SVG Version: 6.00 Build 0)  -->
<svg version="1.1" id="Layer_1" xmlns="http://www.w3.org/2000/svg" xmlns:xlink="http://www.w3.org/1999/xlink" x="0px" y="0px"
	 viewBox="0 0 300 300" style="enable-background:new 0 0 300 300;" xml:space="preserve">
<style type="text/css">
	.st0{fill-rule:evenodd;clip-rule:evenodd;fill:url(#SVGID_1_);}
	.st1{fill-rule:evenodd;clip-rule:evenodd;fill:url(#SVGID_00000010273442799869567450000008177935016540745612_);}
	.st2{fill-rule:evenodd;clip-rule:evenodd;fill:url(#SVGID_00000147212708738885347610000014968843325824142232_);}
	.st3{fill-rule:evenodd;clip-rule:evenodd;fill:#FFFFFF;}
	.st4{fill:#FFFFFF;}
</style>
<g>
	<g>
		
			<linearGradient id="SVGID_1_" gradientUnits="userSpaceOnUse" x1="265.641" y1="261.4038" x2="199.8542" y2="171.5909" gradientTransform="matrix(1 0 0 -1 0 302)">
			<stop  offset="0" style="stop-color:#F8B900"/>
			<stop  offset="1" style="stop-color:#E67508"/>
		</linearGradient>
		<path class="st0" d="M202.2,35.8h30.2c-1.2,1-2.2,2.4-2.8,4.3c-4.1,0.2-8.3,0.8-12.5,1.8c-4.6,1.2-8.7,4-8.7,8.9
			c0,1.6,0.4,3.1,1.1,4.4l0-1l0.6-0.3c0.6-0.3,1.2-0.6,1.8-0.8c1.5-0.6,3.1-1.2,4.6-1.6c9.2-2.7,22.7-2.7,31.9,0
			c1.6,0.4,3.1,1,4.6,1.6c0.6,0.2,1.2,0.5,1.8,0.8l0.6,0.3l0,1c0.7-1.3,1.1-2.8,1.1-4.4c0-4.9-4-7.8-8.7-8.9
			c-4.4-1.1-8.8-1.7-13.3-1.9c0.9-1.2,2.3-2,3.8-2.7c0.9-0.5,1.8-1,2.6-1.5h21.8c3,0,5.4,2.5,5.4,5.5v89.3c0,3-2.4,5.5-5.4,5.5
			h-60.4c-3,0-5.4-2.5-5.4-5.5V41.3C196.8,38.3,199.2,35.8,202.2,35.8z M236.9,79.3c7.7-4.5,11.2-9.6,11.6-18.2
			C245.4,71.6,240.8,76.6,236.9,79.3z M211.1,65.9c1.1,15,16.8,16.3,21.3,24.7c4.5-8.5,20.2-9.8,21.3-24.7l0.5-11.1
			c-10.8-5.8-32.8-5.8-43.6,0L211.1,65.9z"/>
		
			<linearGradient id="SVGID_00000018953641886746849810000015554549735408312763_" gradientUnits="userSpaceOnUse" x1="183.2487" y1="261.4089" x2="117.4617" y2="171.5962" gradientTransform="matrix(1 0 0 -1 0 302)">
			<stop  offset="0" style="stop-color:#F8B900"/>
			<stop  offset="1" style="stop-color:#E67508"/>
		</linearGradient>
		<path style="fill-rule:evenodd;clip-rule:evenodd;fill:url(#SVGID_00000018953641886746849810000015554549735408312763_);" d="
			M119.8,35.8h60.4c3,0,5.4,2.5,5.4,5.5v89.3c0,3-2.4,5.5-5.4,5.5h-60.4c-3,0-5.4-2.5-5.4-5.5V41.3
			C114.4,38.3,116.8,35.8,119.8,35.8z M154.8,104.5c7.7-4.5,11.2-9.6,11.6-18.2C163.3,96.8,158.8,101.8,154.8,104.5z M128.7,92
			c1.1,15,16.8,16.3,21.3,24.7c4.5-8.5,20.2-9.8,21.3-24.7l0.5-11.1c-10.8-5.8-32.8-5.8-43.6,0L128.7,92z M147.2,66.1
			c-4.1,0.2-8.3,0.8-12.5,1.8c-4.6,1.2-8.7,4-8.7,8.9c0,1.6,0.4,3.1,1.1,4.4l0-1l0.6-0.3c0.6-0.3,1.2-0.6,1.8-0.8
			c1.5-0.6,3.1-1.2,4.6-1.6c9.2-2.7,22.7-2.7,31.9,0c1.6,0.4,3.1,1,4.6,1.6c0.6,0.2,1.2,0.5,1.8,0.8l0.6,0.3l0,1
			c0.7-1.3,1.1-2.8,1.1-4.4c0-4.9-4-7.8-8.7-8.9c-4.4-1.1-8.8-1.7-13.3-1.9c0.9-1.2,2.3-2,3.8-2.7c3.1-1.7,6.2-3.3,6.5-8.1
			c-5.8,0.7-2.9,0.5-8.6,4.1C151,60.9,148.2,62.4,147.2,66.1z"/>
		
			<linearGradient id="SVGID_00000047051668991969508170000002446340101034409631_" gradientUnits="userSpaceOnUse" x1="100.8652" y1="261.4078" x2="35.0781" y2="171.595" gradientTransform="matrix(1 0 0 -1 0 302)">
			<stop  offset="0" style="stop-color:#F8B900"/>
			<stop  offset="1" style="stop-color:#E67508"/>
		</linearGradient>
		<path style="fill-rule:evenodd;clip-rule:evenodd;fill:url(#SVGID_00000047051668991969508170000002446340101034409631_);" d="
			M37.4,35.8h8.7l0.2,4.7c1.1,15,16.8,16.3,21.3,24.7c4.5-8.5,20.2-9.8,21.3-24.7l0.2-4.7h8.7c3,0,5.4,2.5,5.4,5.5v89.3
			c0,3-2.4,5.5-5.4,5.5h-8.7l0.3-5.9c-10.8-5.8-32.8-5.8-43.6,0l0.3,5.9h-8.7c-3,0-5.4-2.5-5.4-5.5V41.3
			C32,38.3,34.4,35.8,37.4,35.8z M84.1,35.8c-3.1,8.9-7.2,13.5-10.9,15.9c6.9-4.1,10.5-8.7,11.4-15.9H84.1z M64.8,115.5
			c-4.1,0.2-8.3,0.8-12.5,1.8c-4.6,1.2-8.7,4-8.7,8.9c0,1.6,0.4,3.1,1.1,4.4l0-1l0.6-0.3c0.6-0.3,1.2-0.6,1.8-0.8
			c1.5-0.6,3.1-1.2,4.6-1.6c9.2-2.7,22.7-2.7,31.9,0c1.6,0.4,3.1,1,4.6,1.6c0.6,0.2,1.2,0.5,1.8,0.8l0.6,0.3l0,1
			c0.7-1.3,1.1-2.8,1.1-4.4c0-4.9-4-7.8-8.7-8.9c-4.4-1.1-8.8-1.7-13.3-1.9c0.9-1.2,2.3-2,3.8-2.7c3.1-1.7,6.2-3.3,6.5-8.1
			c-5.8,0.7-2.9,0.5-8.6,4.1C68.6,110.2,65.8,111.7,64.8,115.5z"/>
	</g>
	<g>
		<path class="st3" d="M24.2,221.5c12.1,0,19.6-7.7,19.6-18.3v-0.1c0-10.4-7.2-14.4-14.6-15.6L42.9,174v-9.3H6.2v10.5h21.4l-13,13.4
			l1.9,7.8h5c6.7,0,10.6,2.5,10.6,7.1v0.2c0,4.2-3.2,6.8-7.7,6.8c-5.5,0-9.4-2.4-13.1-6.7L3,211.9C7.7,217.5,14.4,221.5,24.2,221.5z
			"/>
		<path class="st3" d="M104.4,221.5c16.8,0,28.9-13,28.9-28.9v-0.2c0-15.9-12-28.7-28.8-28.7c-16.8,0-28.9,13-28.9,28.9v0.1
			C75.6,208.7,87.7,221.5,104.4,221.5z M104.6,210.2c-9.6,0-16.5-8-16.5-17.5v-0.2c0-9.6,6.7-17.4,16.3-17.4c9.6,0,16.5,8,16.5,17.5
			v0.2C120.9,202.4,114.2,210.2,104.6,210.2z"/>
		<path class="st3" d="M135.9,220.6H148l5-12.5h23l5,12.5h12.5l-23.2-56.2h-11L135.9,220.6z M157.3,197.2l7.2-18.1l7.2,18.1H157.3z"
			/>
		<path class="st3" d="M201.8,220.6h12v-17.1l6.3-6.7l16.8,23.8h14.3l-23.1-32.1l22.1-23.7h-14.4l-22,24.4v-24.4h-12V220.6z"/>
		<path class="st3" d="M277,221.4c11.7,0,20-6.2,20-17.3v-0.2c0-9.7-6.2-13.8-17.2-16.8c-9.4-2.5-11.7-3.7-11.7-7.3v-0.2
			c0-2.7,2.4-4.9,7-4.9c4.6,0,9.3,2.1,14.1,5.5l6.2-9.3c-5.5-4.5-12.3-7.1-20.2-7.1c-11.1,0-19,6.7-19,16.8v0.1
			c0,11.1,7.1,14.2,18,17.1c9.1,2.4,10.9,4,10.9,7.1v0.2c0,3.3-2.9,5.3-7.8,5.3c-6.2,0-11.3-2.6-16.2-6.8l-7.1,8.7
			C260.5,218.4,268.8,221.4,277,221.4z"/>
		<path class="st3" d="M14.9,264.2c4.2,0,7.4-1.7,9.7-3.7v-10.1h-9.9v4.4h5v3.3c-1.3,0.9-2.9,1.4-4.7,1.4c-4,0-6.9-3.1-6.9-7.4v-0.1
			c0-4,2.9-7.3,6.5-7.3c2.6,0,4.2,0.9,5.9,2.4l3.1-3.9c-2.4-2.1-4.8-3.2-8.9-3.2C8,240.1,3,245.5,3,252.1v0.1
			C3,259.1,7.9,264.2,14.9,264.2z"/>
		<path class="st3" d="M58.6,263.8h5.1l2.1-5.2h9.6l2.1,5.2h5.2l-9.7-23.5h-4.6L58.6,263.8z M67.5,254l3-7.6l3,7.6H67.5z"/>
		<path class="st3" d="M117.3,263.8h4.9v-15.1l6.3,9.9h0.1l6.4-10v15.2h5v-23.3h-5.4l-6,9.9l-6-9.9h-5.4V263.8z"/>
		<path class="st4" d="M181.8,240.5h-5v23.3h5V240.5z"/>
		<path class="st3" d="M218.6,263.8h4.9V249l11,14.8h4.2v-23.3h-4.9v14.4l-10.6-14.4h-4.6V263.8z"/>
		<path class="st3" d="M286.2,264.2c4.1,0,7.4-1.7,9.7-3.7v-10.1h-9.9v4.4h5v3.3c-1.3,0.9-2.9,1.4-4.7,1.4c-4,0-6.9-3.1-6.9-7.4
			v-0.1c0-4,2.9-7.3,6.5-7.3c2.6,0,4.2,0.9,5.9,2.4l3.1-3.9c-2.4-2.1-4.8-3.2-8.9-3.2c-6.9,0-11.9,5.4-11.9,12.1v0.1
			C274.3,259.1,279.2,264.2,286.2,264.2z"/>
	</g>
</g>
</svg>
