<?xml version="1.0" encoding="utf-8"?>
<!-- Generator: Adobe Illustrator 28.0.0, SVG Export Plug-In . SVG Version: 6.00 Build 0)  -->
<svg version="1.1" id="Layer_1" xmlns="http://www.w3.org/2000/svg" xmlns:xlink="http://www.w3.org/1999/xlink" x="0px" y="0px"
	 viewBox="0 0 300 300" style="enable-background:new 0 0 300 300;" xml:space="preserve">
<style type="text/css">
	.st0{fill:url(#SVGID_1_);}
</style>
<linearGradient id="SVGID_1_" gradientUnits="userSpaceOnUse" x1="150" y1="49.8661" x2="150" y2="253" gradientTransform="matrix(1 0 0 -1 0 301.433)">
	<stop  offset="0.17" style="stop-color:#E42520"/>
	<stop  offset="1" style="stop-color:#ED7119"/>
</linearGradient>
<path class="st0" d="M155.1,48.4c2.4,0.2,4.8,0.4,7.1,0.7c31.5,4,56.4,18.4,72.7,46.2c15.2,26.1,14.3,58.6-2.3,83.8
	c-0.7,1.2-2,1.8-3.4,1.9c-3.5,0-7.1,0-10.6-0.1c-1.4,0-2.6-0.9-3.2-2.1c-1-2.2-1.8-4.5-2.8-6.9h4.2c2,0,4,0.1,6,0
	c2.4-0.1,3.3-1.5,2.4-3.7c-2.1-5.4-4.1-10.8-6.2-16.1c-0.4-0.8-0.3-1.7,0.3-2.3c1.3-1.5,1.8-3.4,1.4-5.3c-1.4-5.9-8.5-7.5-12.7-4.3
	c-2.1,1.5-3.1,4-2.7,6.5c0.4,2.8,2.5,5.1,5.3,5.8c0.9,0.2,1.5,0.8,1.7,1.7c1,3.3,2.2,6.4,3.3,9.7c0,0.1,0,0.2,0,0.3
	c-1.8,0-3.7,0-5.5,0c-0.3,0-0.6-0.6-0.7-1c-2.6-7-5.1-14-7.6-21c-1.2-3.4-2.4-6.7-3.6-10.1c-0.2-0.6-0.4-0.8-1.1-0.8
	c-5.6,0-16.9,0-17.2,0c0.4,1.8,0.7,3.6,1.1,5.4c1.6,7.6,3.2,15.2,4.7,22.9c0.5,2.4-0.7,4.3-3.1,4.4c-5.4,0.1-10.7,0-16.3,0
	c-1.3-10.9-2.6-21.8-3.9-32.7h-4c0.6,10.9,1.1,21.8,1.7,32.7h-20.7c0.6-10.9,1.1-21.7,1.7-32.7h-3.9c-0.3,2.2-0.5,4.3-0.8,6.5
	c-0.8,6.8-1.6,13.7-2.4,20.6c-0.2,1.6-0.4,3.3-0.5,4.8c0,0.6-0.3,0.8-0.9,0.8c-5.2,0-10.3,0.1-15.5,0c-2.3,0-3.7-1.8-3.3-4.1
	c1.9-9.3,3.8-18.6,5.8-27.9c0-0.2,0.1-0.4,0.1-0.8c-0.5,0-0.9,0-1.3,0c-5.1,0-10.2,0.1-15.3,0c-1.1,0-1.5,0.2-1.9,1.2
	c-5.3,14.8-10.8,29.6-16,44.5c-1,2.8-2.7,4.3-5.7,4.3c-2.7,0-5.3-0.1-8,0c-2.3,0.1-3.8-1-4.9-2.8c-4.4-7.1-7.8-14.7-9.9-22.8
	c-6-23.6-1.7-45.5,11.6-65.8c11.4-17.2,27.3-28.8,46.7-35.6c9-3.1,18.4-4.9,27.9-5.4c0.4,0,0.9-0.1,1.3-0.2H155.1z M150.1,99.1
	c-24.9,0-49.8,0-74.7,0c-1.3,0-2.6,0.2-3.9,0.5c-1.2,0.3-2.1,1.9-2.1,3.3c0,2,0,4,0,6c0,0.5,0.3,0.9,0.8,1.1
	c5.8,2.3,11.7,4.6,17.6,6.9c0.4,0.1,0.9,0.1,1.4,0c9-3.5,17.9-6.9,26.8-10.5c2.1-0.9,4.4-0.9,6.5-0.1c8.7,3.5,17.4,6.9,26.1,10.4
	c0.9,0.4,1.9,0.4,2.7,0c8.6-3.5,17.2-6.9,25.8-10.4c2-0.8,4.2-0.8,6.1,0c9,3.5,18,7,26.9,10.4c0.5,0.2,1.1,0.3,1.7,0.2
	c6-2.2,12-4.6,18-6.8c0.7-0.3,0.8-0.7,0.8-1.4c-0.1-1.3-0.1-2.5,0-3.8c0.2-3.5-0.7-5-3.9-5.6c-0.7-0.1-1.5-0.2-2.2-0.2L150.1,99.1z
	 M187.7,96.2c-0.5-1.3-0.9-2.4-1.4-3.6c-3.8-9-8.8-17.2-16.4-23.5c-12.3-10.3-28.1-10.3-40.2,0.1c-6.7,5.7-11.3,12.9-15,20.8
	c-0.9,2-1.7,4.1-2.6,6.2H187.7z M230.8,113c-5.6,2.3-10.9,4.5-16.1,6.7c-2.1,0.9-4.5,0.9-6.6,0c-8.8-3.5-17.6-6.9-26.4-10.4
	c-0.7-0.3-1.4-0.3-2.1,0c-9.1,3.5-18.2,7-27.2,10.6c-1.5,0.6-3.2,0.6-4.7,0c-9.2-3.6-18.4-7.1-27.5-10.6c-0.6-0.2-1.3-0.2-1.9,0
	c-9,3.5-17.9,7-26.8,10.5c-2,0.9-4.3,0.9-6.3-0.1c-5-2.2-10-4.2-15-6.3c-0.3-0.1-0.6-0.2-1-0.3c0.4,0.8,0.6,1.3,0.9,1.8
	c2.1,3.7,5.3,6.7,9.1,8.6c6.3,3.5,13.1,4.8,20.3,4.8c33.6,0,67.3,0,100.9,0c3.6,0,7.2-0.4,10.7-1.2c6.2-1.3,11.9-3.9,16.3-8.6
	C228.9,116.9,230,115,230.8,113L230.8,113z M126.4,152.8c4.1,0,7.6-3.1,7.8-6.9c0-3.8-2.8-7-6.5-7.4c-4.1-0.5-7.9,1.8-8.8,5.4
	C117.7,148.6,121.4,152.9,126.4,152.8L126.4,152.8z M181.3,146.2c0.1-4.2-3.1-7.6-7.3-7.8c-0.1,0-0.1,0-0.2,0
	c-3.4-0.2-6.5,1.9-7.7,5.1c-1,3,0.1,6.2,2.8,7.9c2.5,1.8,5.8,2,8.4,0.5C179.6,150.9,181.1,148.7,181.3,146.2L181.3,146.2z
	 M150,152.7c4.8,0,8.4-4,7.6-8.3c-0.6-3.4-3.5-5.8-7.3-6c-3.5-0.2-6.7,1.9-7.8,5.2C141.2,148.3,144.9,152.8,150,152.7L150,152.7z
	 M29.7,212c3.5-0.6,7-1.2,10.6-1.6c10.3-1.3,20.5-2.6,30.8-3.7c10.3-1.1,20.4-2.1,30.8-2.8c10.8-0.8,21.6-1.3,32.4-1.7
	c15.5-0.6,30.9-0.6,46.3,0.3c13.7,0.8,27.4,1.8,41.1,3c10.3,0.9,20.5,2.3,30.7,3.6c6.4,0.8,12.7,1.8,19.1,2.7
	c-0.1-0.1-0.1-0.2-0.2-0.3c-0.3-0.2-0.7-0.4-1.1-0.6c-5.5-2.7-11.4-4.8-17.3-6.3c-10.8-3-21.7-5.2-32.8-6.6
	c-11.1-1.5-22.3-2.8-33.5-3.8c-8.4-0.7-16.9-0.9-25.4-1.3c-0.2,0-0.4-0.1-0.5-0.1v-11.2h19.8c0.5,0,1.1,0,1.6-0.1
	c2.6-0.3,4.4-2.7,4.1-5.3c-0.2-1.9-1.6-3.5-3.5-4c-0.7-0.1-1.5-0.2-2.2-0.1c-20.2,0-40.4,0-60.6,0c-0.4,0-0.9,0-1.3,0
	c-2.4,0.1-4.4,2.1-4.4,4.5c-0.1,2.8,2,4.9,5,4.9c6.4,0,12.8,0,19.1,0h1.5v11.3c-0.3,0-0.4,0.1-0.6,0.1c-12.7,0.2-25.4,1-38,2.4
	c-16.5,1.7-32.9,4.1-49,8.1c-7.5,1.9-15,4-22,7.5c-0.5,0.2-0.9,0.5-1.4,0.8l0.5,0.5L29.7,212z M85.2,228.2c-0.8,0-1.3,0.5-1.3,1.5
	c0,0.6,0.3,0.9,1,1l1.4,0.2v4h-13v-4.1H74c1.2,0,2.1-0.7,2.7-2.1l6.9-16.1h9.8l7,16c0.5,1.4,1.9,2.3,3.5,2.2v4.1H88.6v-4l1.4-0.2
	c0.7-0.1,1-0.4,1-1c0-1-0.4-1.4-1.3-1.4H85.2z M87.2,220.7l-1.4,4h2.9L87.2,220.7z M114.6,220.8v8.3c0,0.6,0.4,1.1,0.9,1.3
	c0.5,0.3,1.1,0.5,1.7,0.5v3.9h-11.9v-3.8c0.5-0.1,1.1-0.3,1.5-0.6c0.6-0.3,1-0.7,1-1.1v-10.8c0-0.6-0.3-1.2-0.7-1.6
	c-0.5-0.4-1.1-0.7-1.8-0.7v-3.9H120l4.4,10.4l4.4-10.4h15.4v3.9c-0.6,0-1.3,0.2-1.7,0.6c-0.4,0.4-0.7,1-0.7,1.6v10.5
	c0.1,0.6,0.4,1.1,1,1.4c0.5,0.3,1.1,0.5,1.7,0.5v3.9H130V231c0.5,0,1-0.2,1.5-0.6c0.6-0.4,0.9-0.8,0.9-1.1v-8.5
	c0-0.2-0.1-0.3-0.4-0.3c-0.1,0-0.2,0.1-0.3,0.4l-5.4,14H121l-5.6-14c0-0.2-0.2-0.3-0.4-0.3C114.7,220.6,114.6,220.6,114.6,220.8
	L114.6,220.8z M158.1,218.6v10.8c0.1,0.6,0.5,1.1,1,1.4c0.5,0.3,1.1,0.5,1.7,0.5v3.5h-15v-3.5c0.9,0,1.7-0.4,2.3-1
	c0.2-0.2,0.2-0.5,0.2-0.8v-11c0-0.6-0.3-1.2-0.7-1.6c-0.5-0.4-1.1-0.7-1.8-0.7v-3.9h14.7v3.9c-0.6,0-1.3,0.2-1.8,0.6
	C158.3,217.3,158.1,217.9,158.1,218.6L158.1,218.6z M174.6,226.1c0,1,0.3,1.9,1,2.7c0.9,1.1,2.3,1.7,3.7,1.6c0.8,0,1.6-0.1,2.2-0.5
	c0.7-0.4,1.1-1.1,1.1-1.9c0.1-0.6-0.3-1.1-0.8-1.4c-0.6-0.2-1.1-0.3-1.7-0.3V223H195v3.2l-0.8,0.1l-0.2,0.1
	c-0.9,0.4-1.4,0.9-1.4,1.5v6.8h-4.1c-0.3-0.7-0.7-1.1-1.2-1.1c-0.4,0-0.7,0.1-1,0.3c-3.2,0.8-6.6,1.3-9.9,1.5
	c-3.5,0.1-6.9-0.9-9.7-2.9c-2.9-2-4.5-5.3-4.5-8.8c0-3,1.4-5.8,3.7-7.6c2.3-1.9,5.1-3.1,8-3.4c1.4-0.2,2.8-0.3,4.2-0.3
	c2.1,0,4.1,0.3,6.1,0.9c0.3,0.1,0.6,0.2,0.9,0.3c0.5,0.2,1,0.4,1.5,0.6c0.3,0,0.9-0.4,1.6-1.3h4.3v8.4h-8.3l-0.2-1.5
	c-0.1-0.7-0.7-1.4-2-2c-0.9-0.5-1.9-0.8-2.9-0.8c-1.2,0-2.4,0.4-3.3,1.2c-0.9,0.8-1.4,2-1.3,3.2L174.6,226.1z M211.5,235.4
	c-3.6,0.1-7.2-0.8-10.3-2.7c-3.2-1.8-5.1-5.2-5.1-8.8c0-4.2,1.5-7.2,4.6-9.3c2.6-1.7,6.1-2.6,10.5-2.6c4.4,0,7.9,0.9,10.5,2.6
	c5,3.3,6.4,10,3.1,15c-0.8,1.2-1.9,2.3-3.1,3.1C218.6,234.6,215.1,235.5,211.5,235.4L211.5,235.4z M211.5,216.3
	c-1.4,0-2.4,0.9-3.2,2.8c-0.6,1.5-0.8,3-0.8,4.6c0,4.9,1.3,7.3,3.9,7.3s3.9-2.5,3.8-7.4c0-1.5-0.2-3.1-0.7-4.5
	C213.8,217.2,212.8,216.3,211.5,216.3L211.5,216.3z M79.6,251.6c-1.6,0.1-3.2-0.5-4.4-1.6c-2.2-2-2.4-5.3-0.4-7.5
	c0.1-0.1,0.3-0.3,0.4-0.4c2.2-1.8,5.3-2.1,7.8-0.7c0.9,0.6,1.7,1.4,2.1,2.4h-2.5c-0.7-0.9-1.8-1.3-2.9-1.3c-1,0-2,0.3-2.7,1
	c-1.5,1.4-1.5,3.8,0,5.2c0,0,0,0,0,0c0.7,0.7,1.7,1.1,2.7,1c0.7,0,1.5-0.2,2.1-0.6c0.6-0.4,1-1,1.2-1.6h-3.9v-1.9h6.5
	c0.1,1.6-0.5,3.2-1.6,4.4C82.7,251.1,81.1,251.6,79.6,251.6z M109.4,240.6l5.2,10.7h-2.5L111,249h-5.5l-1.2,2.4h-2.4l5.2-10.7
	L109.4,240.6z M108.2,243.4l-1.8,3.7h3.6L108.2,243.4z M134.5,240.6l4.4,8.4l4.4-8.4h2.7v10.7h-2.4v-6.7l-3.5,6.7h-2.6l-3.5-6.7v6.7
	h-2.4v-10.7H134.5z M166.9,240.6v10.7h-2.4v-10.7H166.9z M194,240.6h2.4v10.7h-2.6l-6-7.5v7.5h-2.4v-10.7h2.6l6,7.5L194,240.6z
	 M220.4,251.6c-1.6,0.1-3.2-0.5-4.4-1.6c-2.2-2-2.4-5.3-0.4-7.5c0.1-0.1,0.3-0.3,0.4-0.4c2.2-1.8,5.3-2.1,7.8-0.7
	c0.9,0.5,1.7,1.4,2.1,2.3h-2.5c-0.7-0.9-1.8-1.3-2.9-1.3c-1,0-2,0.3-2.7,1c-1.5,1.4-1.5,3.8,0,5.2c0,0,0,0,0,0
	c0.7,0.7,1.7,1.1,2.7,1c0.7,0,1.5-0.2,2.1-0.6c0.6-0.4,1-1,1.2-1.6h-3.9v-1.9h6.5c0.1,1.6-0.5,3.2-1.6,4.4
	C223.5,251,222,251.6,220.4,251.6L220.4,251.6z"/>
</svg>
