<?xml version="1.0" encoding="utf-8"?>
<!-- Generator: Adobe Illustrator 27.8.1, SVG Export Plug-In . SVG Version: 6.00 Build 0)  -->
<svg version="1.1" id="Layer_1" xmlns="http://www.w3.org/2000/svg" xmlns:xlink="http://www.w3.org/1999/xlink" x="0px" y="0px"
	 viewBox="0 0 150 150" style="enable-background:new 0 0 150 150;" xml:space="preserve">
<style type="text/css">
	.st0{fill:#191970;}
	.st1{fill:#FFFFFF;}
	.st2{fill:#FF6D2D;}
	.st3{fill:#E0E0E0;}
</style>
<g>
	<g>
		<g>
			<path class="st0" d="M131.8,52.9c0.5-6.3-2.2-12.1-7.2-15.4h0c-2.8-1.8-6.1-2.8-9.6-2.8H31.8c-0.3,0-0.7,0-1,0.1
				c-1.4,0.3-2.5,1.2-3.2,2.5c-0.8,1.6-0.5,3.5,0.6,4.9l2.7,3.3l-8.1,45.9h102.4l5-29l1.3-7.6c0.1-0.4,0.1-0.7,0.2-1.1L131.8,52.9
				L131.8,52.9z"/>
		</g>
	</g>
	<g>
		<path class="st1" d="M122.6,40.4c-2.1-1.4-4.7-2.2-7.7-2.2H78l4.9,5.9c0,0.1,0.1,0.1,0.1,0.2c0,0.1,0.1,0.2,0.1,0.2
			c0,0.1,0,0.3,0,0.4l-4.7,26.9c-0.4,2.5-0.3,4.8,0.3,6.9c0,0.1,0.1,0.2,0.1,0.3c0.6,2,1.7,3.7,3.2,5.1c0.2,0.2,0.3,0.3,0.5,0.5
			c0.3,0.3,0.6,0.5,1,0.7c0.1,0.1,0.2,0.2,0.4,0.3c0.2,0.2,0.5,0.3,0.7,0.4c1.3,0.7,2.8,1.3,4.5,1.5c0.7,0.1,1.5,0.2,2.2,0.2
			c0.1,0,15,0,15,0c2.7,0,5.4-0.7,7.9-1.9c0.6-0.3,1.2-0.6,1.7-1c0.4-0.3,0.8-0.6,1.3-0.9c0.8-0.6,1.6-1.3,2.3-2c0,0,0,0,0,0
			c2.7-2.8,4.7-6.3,5.4-10.1l0.7-3.7h-15L96.2,81.6L99.5,63H87.8L110,44.4l-2.1,12.4h19.6l0.5-2.7C129,48.3,126.8,43.2,122.6,40.4z"
			/>
	</g>
	<g>
		<path class="st1" d="M31.8,38.2c-0.4,0-0.8,0.3-0.9,0.6c-0.2,0.3-0.1,0.8,0.1,1.1l1.4,1.7l0.1,0.1l1.9,2.4
			c0.2,0.2,0.3,0.5,0.2,0.8c0,0,0,0,0,0.1l-7.6,42.9h20.4l2.7-15.3h22.7l2.2-12.4H52.3l1.7-9.5h22.6l1.1-6.1l-5.2-6.3H31.8z"/>
	</g>
	<g>
		<path class="st2" d="M125.7,35.7c-3.1-2.1-6.8-3.1-10.8-3.1H31.8c-2.6,0-5,1.5-6.1,3.9c-1.1,2.4-0.8,5.1,0.9,7.2l2.1,2.5L16,117.5
			h106.6l9.7-55l1.3-7.3C135,47.2,132,39.8,125.7,35.7z M131.7,53.7c0,0.4-0.1,0.7-0.2,1.1l-1.3,7.6l-5,29H22.8l8.1-45.9l-2.7-3.3
			c-1.1-1.4-1.4-3.3-0.6-4.9c0.6-1.3,1.8-2.2,3.2-2.5c0.3-0.1,0.6-0.1,1-0.1h83.2c3.5,0,6.9,1,9.6,2.8h0c5,3.3,7.7,9.1,7.2,15.4
			l0.1,0L131.7,53.7z"/>
	</g>
	<g>
		<g>
			<path class="st3" d="M36.6,47.5c0-0.3,0-0.6-0.2-0.8l-1.8-2.1c0,0.1,0,0.2,0,0.3c0,0,0,0,0,0.1l-7.6,42.9h2.4L36.6,47.5
				C36.6,47.5,36.6,47.5,36.6,47.5z"/>
		</g>
		<g>
			<polygon class="st3" points="74.5,62.8 74.9,60.2 52.3,60.2 54.3,62.8 			"/>
		</g>
		<g>
			<path class="st3" d="M72.5,38.2H31.8c-0.4,0-0.8,0.3-0.9,0.6c-0.2,0.3-0.1,0.8,0.1,1.1l0.8,0.9h42.9L72.5,38.2z"/>
		</g>
		<g>
			<polygon class="st3" points="112.5,70.8 125.1,70.8 125.5,68.2 110.5,68.2 96.2,81.6 98.2,84.2 			"/>
		</g>
		<g>
			<path class="st3" d="M80.7,81.4c-0.6-2.1-0.8-4.4-0.3-6.9l4.7-26.9c0-0.1,0-0.3,0-0.4c0-0.1,0-0.2-0.1-0.2c0-0.1-0.1-0.1-0.1-0.2
				l-1.8-2.2c0,0.1,0,0.3,0,0.4l-4.7,26.9c-0.4,2.5-0.3,4.8,0.3,6.9c0,0.1,0.1,0.2,0.1,0.3c0.6,1.9,1.7,3.6,3,4.9
				c-0.4-0.7-0.8-1.5-1-2.3C80.8,81.6,80.8,81.5,80.7,81.4z"/>
		</g>
		<g>
			<path class="st3" d="M124.6,43c0.7,0.5,1.4,1,1.9,1.6c-1-1.7-2.3-3.1-3.9-4.2c-2.1-1.4-4.7-2.2-7.7-2.2H78l2.1,2.6h36.8
				C119.9,40.8,122.5,41.6,124.6,43z"/>
		</g>
		<g>
			<polygon class="st3" points="99,65.6 99.5,63 87.8,63 89.8,65.6 			"/>
		</g>
		<g>
			<g>
				<polygon class="st3" points="110,44.4 107.9,56.8 110.3,56.8 112,47.1 				"/>
			</g>
		</g>
	</g>
	<g>
		<path class="st1" d="M38.3,96.6l-0.7,3.4h-7.3l-0.6,2.8h7.1L36,106h-7.1l-1.3,6.4h-4.9l3.4-15.8H38.3z"/>
		<path class="st1" d="M51.4,112.4h-4.8l-0.2-2.6h-5.2l-1.2,2.6h-5.3l8.9-15.8h5.2L51.4,112.4z M46.1,106.5l-0.5-5.8h0l-2.7,5.8
			H46.1z"/>
		<path class="st1" d="M74,101.8l-4.5,0.5v-0.1c0-0.8-0.2-1.3-0.7-1.7c-0.5-0.4-1-0.6-1.5-0.6c-0.7,0-1.4,0.3-2.1,0.8
			c-0.7,0.5-1.2,1.3-1.6,2.4c-0.4,1.1-0.6,2.1-0.6,3.2c0,0.8,0.2,1.4,0.6,2c0.4,0.5,1,0.8,1.9,0.8c0.7,0,1.4-0.2,1.9-0.7
			c0.5-0.5,1-1.2,1.4-2.2l4.6,0.7c-0.5,1.6-1.4,3-2.8,4.1c-1.4,1.1-3.1,1.7-5.3,1.7c-2.3,0-4-0.6-5.2-1.8c-1.2-1.2-1.8-2.8-1.8-4.9
			c0-1.5,0.4-3.1,1.1-4.7c0.7-1.6,1.8-2.8,3.1-3.7c1.4-0.9,3-1.3,4.9-1.3c2,0,3.6,0.5,4.7,1.5C73.1,98.8,73.8,100.1,74,101.8z"/>
		<path class="st1" d="M93.2,96.6l-3.4,15.8h-4.9l1.4-6.4H81l-1.3,6.4h-5l3.4-15.8H83l-1.2,5.6h5.3l1.2-5.6H93.2z"/>
		<path class="st1" d="M108.9,112.4h-4.8l-0.2-2.6h-5.2l-1.2,2.6h-5.3l8.9-15.8h5.2L108.9,112.4z M103.6,106.5l-0.5-5.8h0l-2.7,5.8
			H103.6z"/>
		<path class="st1" d="M119.7,96.6l-3.4,15.8h-5l3.4-15.8H119.7z"/>
	</g>
</g>
</svg>
