<?xml version="1.0" encoding="UTF-8"?><svg id="Layer_1" xmlns="http://www.w3.org/2000/svg" viewBox="0 0 300 300"><defs><style>.cls-1{fill:#f58c31;}.cls-2{fill:#f58a32;}.cls-3{fill:#f9b15d;}.cls-4{fill:#facb92;}.cls-5{fill:#f05d47;}.cls-6{fill:#f05f46;}.cls-7{fill:#ee4c4a;}.cls-8{fill:#ee474b;}.cls-9{fill:#ee444b;}.cls-10{fill:#ee414c;}.cls-11{fill:#ee4a4b;}.cls-12{fill:#ee3d4c;}.cls-13{fill:#f2753e;}.cls-14{fill:#f26f40;}.cls-15{fill:#f2743f;}.cls-16{fill:#f26f41;}.cls-17{fill:#f26d42;}.cls-18{fill:#f2763d;}.cls-19{fill:#f2773d;}.cls-20{fill:#f2723f;}.cls-21{fill:#ed334d;}.cls-22{fill:#ed394c;}.cls-23{fill:#ed364d;}.cls-24{fill:#ed314d;}.cls-25{fill:#f68f2f;}.cls-26{fill:#f6942a;}.cls-27{fill:#f79728;}.cls-28{fill:#f6a793;}.cls-29{fill:#f48734;}.cls-30{fill:#f48237;}.cls-31{fill:#f05748;}.cls-32{fill:#f05948;}.cls-33{fill:#f05a48;}.cls-34{fill:#f05c47;}.cls-35{fill:#f48436;}.cls-36{fill:#f6922c;}.cls-37{fill:#f38138;}.cls-38{fill:#f37e3a;}.cls-39{fill:#f37c3b;}.cls-40{fill:#f37d3a;}.cls-41{fill:#f38039;}.cls-42{fill:#f27140;}.cls-43{fill:#f37f3a;}.cls-44{fill:#f3793c;}.cls-45{fill:#f37a3c;}.cls-46{fill:#ef4e4a;}.cls-47{fill:#ef514a;}.cls-48{fill:#ef5449;}.cls-49{fill:#f16545;}.cls-50{fill:#f16246;}.cls-51{fill:#f16245;}.cls-52{fill:#f16744;}.cls-53{fill:#f16445;}.cls-54{fill:#f16644;}.cls-55{fill:#f16943;}</style></defs><path class="cls-27" d="M245.77,240.25c-2.02,1.18-4,2.43-6.11,3.45-.58-.15-.62-.65-.68-1.11-.07-.5-.04-1.01-.04-1.51,0-42.18,0-84.36,0-126.54,0-.74-.2-1.52,.35-2.18,3.01-.14,5.63,1.79,6.44,4.72,.06,.22-.06,.52,.25,.65v.22c-.22,.41-.11,.85-.11,1.27,0,16.94,0,33.87,0,50.81,0,22.99,0,45.97,0,68.96,0,.42,.12,.86-.11,1.27Z"/><path class="cls-4" d="M245.77,240.25c0-22.83,0-45.65,.01-68.48,0-.58,0-1.15,.01-1.73,.06-.11,.13-.11,.2-.01v70.23c-.08,0-.15,0-.23-.01Z"/><path class="cls-3" d="M246,170.03c-.07,0-.14,0-.2,.01,0-17.07,0-34.13,0-51.2,0-.31-.11-.66,.21-.9v52.08Z"/><path class="cls-28" d="M136.25,4.68c.02-.06,.02-.13,.02-.19h1.94c0,.06,0,.13,.02,.19-.66,.49-1.32,.49-1.99,0Z"/><path class="cls-2" d="M208.42,102.41c1.49-2.72,4.65-3.92,7.56-2.85,.39,.62,.35,1.31,.35,1.99,0,6.81,0,13.61,0,20.42,0,44.34,0,88.67,0,133.01,0,.82,.09,1.66-.33,2.43-2.27,1.43-4.6,2.76-6.96,4.03-.6-.01-.65-.48-.72-.9-.07-.46-.04-.93-.04-1.4,0-51.56,0-103.12,0-154.67,0-.69,.04-1.37,.15-2.04Z"/><path class="cls-29" d="M208.42,102.41c.3,.5,.2,1.05,.2,1.58,0,51.96,0,103.92,.01,155.87,0,.53-.26,1.18,.4,1.57-2.47,1.53-4.97,2.99-7.54,4.34-.28-.41-.3-.88-.33-1.34-.04-.54-.03-1.08-.03-1.62,0-49.39,0-98.77,0-148.16,0-.77-.21-1.6,.34-2.29,3.99-.66,5.97-2.96,6.05-7.03,.02-1.05,.24-2.05,.87-2.92Z"/><path class="cls-30" d="M191.12,73.43c2.47,1.16,3.67,3.16,3.68,5.83,.03,8.57,.06,17.14-.02,25.71-.02,2.93,.97,5.17,3.49,6.69-.1,1.22-.09,2.45-.09,3.67,0,49.91,0,99.82,0,149.73,0,.89,.18,1.8-.11,2.68-2.31,1.45-4.67,2.83-7.09,4.09-.52,0-.52-.41-.58-.75-.08-.46-.05-.93-.05-1.4,0-15.57,0-31.14,0-46.71,0-.64-.09-1.3,.22-1.91,.44-.48,1.04-.35,1.59-.4,.83-.08,1.7,.2,2.49-.24,.35-.35,.27-.8,.27-1.23,0-22.79,0-45.58,0-68.37,0-1.33-.16-1.48-1.5-1.49-.61,0-1.22,0-1.84,0-.8,0-1.18-.42-1.22-1.19-.02-.32-.03-.65-.03-.97,0-23.98,0-47.95,0-71.93,0-.43-.03-.87,.08-1.29,.09-.33,.15-.75,.69-.55Z"/><path class="cls-48" d="M104.49,269.29c-1.91-1.01-3.8-2.07-5.62-3.25-.23-.34-.32-.72-.32-1.12,0-.4,0-.79,0-1.19,0-48.32,0-96.65,0-144.97,0-.77-.21-1.6,.35-2.29,2.34-.08,4.13-1.15,5.45-3.04,.47,.11,.44,.52,.48,.86,.06,.46,.03,.93,.03,1.4,0,10.37,0,20.73,0,31.1,0,.72,0,1.44,.13,2.15,.02,.14,.03,.28,.04,.43,.08,.57,.05,1.15,.05,1.72,0,22.91,0,45.82,0,68.73,0,.4,0,.79-.03,1.19,.05,.65,.03,1.29,.03,1.94,0,14.68,0,29.36,0,44.03,0,.8,.19,1.68-.58,2.3Z"/><path class="cls-26" d="M239.3,112.36c0,43.2,0,86.39,0,129.59,0,.6-.11,1.24,.36,1.75-2.19,1.47-4.51,2.72-6.82,3.98-.34-.29-.34-.7-.36-1.09-.03-.5-.01-1.01-.01-1.51,0-39.65,0-79.3,0-118.94,0-.65,.06-1.29,.14-1.94,.68-1.77,.43-3.61,.47-5.43,.08-3.57,2.8-6.37,6.23-6.4Z"/><path class="cls-20" d="M156.17,87.48c.19-.88,.22-1.78,.22-2.68,0-8.03,0-16.05,0-24.08,0-3.97,3.12-6.8,7.09-6.48,.31,.31,.33,.71,.34,1.1,.02,.5,.01,1.01,.01,1.51,0,37.7,0,75.39,0,113.09,0,4.19,.22,3.57-3.56,3.62-.9,.01-1.8,0-2.7,0-.43,0-.87,.04-1.25-.23-.46-.64-.32-1.38-.32-2.09,0-20.87,0-41.75,0-62.62,0-5.87,0-11.73,0-17.6,0-1.19,.04-2.37,.17-3.55Z"/><path class="cls-11" d="M87.21,259.29c-1.7-.84-3.33-1.82-4.93-2.83-.19-.6-.15-1.21-.15-1.82,0-52.52,0-105.05,0-157.57,0-.9,0-1.8-.12-2.69,1.58-1.39,3.39-1.84,5.44-1.3,.28,.32,.33,.71,.34,1.11,.01,.36,.01,.72,.01,1.08,0,53.95,0,107.9,0,161.84,0,.47,.03,.94-.04,1.4-.05,.34-.04,.75-.55,.78Z"/><path class="cls-25" d="M221.84,125.71c1.66,1.69,3.65,2.43,6.01,2.18,.33,.3,.32,.71,.34,1.1,.03,.5,.01,1.01,.01,1.51,0,39.44,0,78.87,0,118.31,0,.54,0,1.08-.13,1.61-2.09,1.32-4.22,2.58-6.43,3.7-.59-.01-.53-.5-.59-.86-.08-.46-.04-.93-.04-1.4,0-41.31,0-82.61,0-123.92,0-.54-.05-1.09,.07-1.62,.08-.38,.15-.84,.75-.62Z"/><path class="cls-1" d="M221.84,125.71c-.28,.04-.46,.18-.46,.49,0,.32,0,.65,0,.97,0,41.85,0,83.69,0,125.54,0,.47-.22,1.02,.27,1.42-1.8,1.23-3.75,2.21-5.65,3.27,0-.36-.02-.72-.02-1.08,0-51.97,0-103.94,0-155.91,0-.29,0-.58,0-.86,.78,.48,1.71,.65,2.39,1.36,1.26,1.31,1.97,2.79,1.96,4.63-.02,4.93,.02,9.86-.02,14.79-.01,1.96,.32,3.79,1.53,5.38Z"/><path class="cls-55" d="M136.22,70.38c3-.83,7.32,1.66,7.41,5.96,.05,2.58,.04,5.17,0,7.75-.03,1.52,.09,3,.65,4.43,.12,.82,.12,1.65,.12,2.47,0,26.69,0,53.39,0,80.08,0,.74,.15,1.52-.27,2.22-.11,.1-.23,.2-.37,.2-2.2,.13-4.4,.16-6.61-.02-.11,0-.19-.09-.28-.15-.44-.65-.3-1.39-.3-2.1,0-21.71,0-43.43,0-65.14,0-11.13,0-22.25,0-33.38,0-.79,0-1.58-.35-2.32Z"/><path class="cls-47" d="M98.9,116.47c0,49.39,0,98.78,0,148.17,0,.47-.01,.94-.02,1.4-1.85-.93-3.61-1.99-5.35-3.09,.3-.91,.27-1.85,.27-2.78,0-47.83,0-95.65,0-143.48,0-.77-.23-1.6,.37-2.28,1.33,1.25,2.87,2.02,4.73,2.06Z"/><path class="cls-55" d="M143.64,291.9c-2.38-1.28-4.73-2.6-7.01-4.07,.13-.86,.15-1.72,.15-2.59,0-28.31,0-56.62,0-84.93,0-.74-.15-1.52,.27-2.22,.19-.18,.43-.27,.68-.28,1.93-.08,3.85-.09,5.78,0,.21,.01,.41,.1,.59,.24,.45,.69,.29,1.47,.29,2.21,0,25.68,0,51.35,0,77.03,0,4.25,0,8.5,0,12.75,0,.43,.03,.87-.08,1.29-.09,.32-.13,.77-.68,.55Z"/><path class="cls-36" d="M228.08,250.42c-.41-.43-.21-.96-.21-1.44-.01-40.36,0-80.73,0-121.09,2.12-.53,3.7-1.77,4.74-3.69,.31,.49,.22,1.04,.22,1.58,0,40.1,0,80.19,0,120.29,0,.54,.01,1.08,.02,1.62-1.54,1-3.13,1.91-4.77,2.74Z"/><path class="cls-54" d="M136.22,70.38c.39,.01,.72,.09,.7,.6-.01,.25,0,.5,0,.76,0,33.83,0,67.67,0,101.5-.64,.53-1.34,.36-2.04,.17-.62-.52-.46-1.25-.46-1.91-.01-6.66,0-13.31,0-19.97q0-1.89-1.9-1.89c-8.63,0-17.26,0-25.89,0-.63,0-1.31,.13-1.87-.32,0-.08,0-.16-.01-.24,.62-.52,1.36-.3,2.06-.33,.75-.03,1.5-.03,2.25,.01,1.66-.04,3.32-.04,4.98,0,2.16-.04,4.32-.04,6.49,0,2.3-.06,4.6-.01,6.9-.03,1.8-.01,1.81,0,1.81-1.78,0-11.86,0-23.73,0-35.59,0-3.7,.05-7.41-.04-11.11,1.24-1.51,1.69-3.24,1.68-5.19-.05-6.1-.03-12.21-.01-18.31,.01-3.36,2.31-6.05,5.38-6.35Z"/><path class="cls-8" d="M82.01,94.38c.28,.04,.46,.18,.47,.49,0,.32,0,.65,0,.97,0,53.1,0,106.19,0,159.29,0,.45,.18,.94-.2,1.34-1.27-.64-2.51-1.34-3.69-2.14-.27-.32-.33-.71-.34-1.11-.01-.36,0-.72,0-1.08,0-39.18,.01-78.36-.01-117.55,0-.36,.1-.72,0-1.07,1.1-1.47,1.48-3.11,1.47-4.94-.04-9.63-.02-19.26-.02-28.89,0-2.12,.61-3.95,2.34-5.3Z"/><path class="cls-35" d="M198.07,267.76c-.26-.42-.24-.89-.24-1.36,0-51.19,0-102.38,.01-153.57,0-.4-.29-.99,.43-1.16,1.04,.4,2.11,.68,3.23,.69,0,50.43,0,100.87-.02,151.3,0,.7,.32,1.41,.02,2.11-1.09,.75-2.24,1.42-3.43,1.98Z"/><path class="cls-46" d="M94.17,114.41c0,.54-.03,1.08-.03,1.62,0,48.48,0,96.96-.01,145.43,0,.54,.34,1.3-.61,1.48-1.15-.56-2.27-1.18-3.31-1.92,.11-.93,.13-1.87,.13-2.8,0-53.71,0-107.41,0-161.12,0-.77-.21-1.59,.35-2.29,1.31,1.19,1.81,2.72,1.81,4.44,0,3.24,.04,6.48-.01,9.72-.03,2.01,.38,3.85,1.68,5.43Z"/><path class="cls-16" d="M155.28,292.5c-1.61,.95-3.23,1.87-4.82,2.85-.68,.42-1.05-.05-1.49-.38,.16-1.33,.13-2.66,.13-3.99,0-30.22,0-60.43,0-90.65,0-.74-.15-1.52,.27-2.22,.28-.26,.64-.33,1-.31,1.58,.08,3.2-.32,4.75,.28,.45,.69,.29,1.47,.29,2.21,0,26.22,0,52.43,.01,78.65,0,4.25-.07,8.5,.05,12.75,0,.3-.02,.58-.19,.82Z"/><path class="cls-7" d="M90.69,94.82c0,54.92,0,109.83-.02,164.75,0,.49,.39,1.2-.46,1.46-1.05-.49-2.06-1.05-3-1.73,.44-.42,.23-.95,.23-1.43,.01-54.93,0-109.86,0-164.79,1.34,.11,2.37,.77,3.24,1.75Z"/><path class="cls-14" d="M156.17,87.48c.32,.34,.18,.75,.18,1.13,0,28.21,0,56.41,0,84.62-.05,.05-.09,.14-.15,.15-2.06,.26-4.12,.4-6.17-.07-.34-.47-.29-1.03-.29-1.56,0-26.06,0-52.11,0-78.17,0-.53-.07-1.09,.35-1.53,3-.22,5-1.79,6.08-4.57Z"/><path class="cls-17" d="M149.44,198.13c0,31.77,0,63.54,0,95.31,0,.54,.24,1.19-.47,1.52-1.83-.93-3.59-1.96-5.32-3.06,.25-.03,.39-.17,.39-.42,0-.36,0-.72,0-1.08,0-30.75,0-61.51,0-92.26,.23-.27,.55-.32,.88-.33,1.22-.04,2.43-.04,3.65,0,.32,.01,.64,.06,.88,.33Z"/><path class="cls-12" d="M70.8,249.82c-1.56-.8-3.09-1.66-4.55-2.63-.12-.38-.12-.78-.12-1.18,0-41.76,0-83.53,.02-125.29,0-.9-.29-1.9,.59-2.62,.31,.6,.21,1.26,.21,1.9,.02,2.76,.1,5.53-.02,8.28-.13,3.3,1.14,5.67,4.12,7.12,.13,.31,.13,.63,.13,.95-.04,37.17,0,74.34-.03,111.51,0,.66,.17,1.38-.36,1.96Z"/><path class="cls-17" d="M150.09,92.05c0,27.06,0,54.12,0,81.19-.09,.12-.2,.23-.34,.25-1.79,.15-3.58,.15-5.37,0-.14-.01-.25-.13-.34-.25,0-27.71,0-55.43,0-83.14,0-.54-.08-1.09,.23-1.58,1.33,2.18,3.23,3.42,5.81,3.53Z"/><path class="cls-22" d="M66.74,118.1c-.22,.62-.25,1.26-.25,1.91,0,41.92,0,83.83,0,125.75,0,.48,.21,1.02-.23,1.43-1.29-.62-2.52-1.35-3.71-2.14-.13-.57-.08-1.15-.08-1.72,0-42.84,0-85.67,0-128.51,0-.46-.09-.94,.14-1.38,2.26,.77,3.67,2.29,4.13,4.65Z"/><path class="cls-15" d="M165.21,286.73c-1.82,1.17-3.69,2.26-5.62,3.25-.2-.33-.15-.7-.15-1.05,.02-29.54,0-59.07,.01-88.61,0-.74-.15-1.52,.27-2.21,1.6-.62,3.24-.32,4.87-.2,.45,.03,.61,.45,.68,.86,.07,.46,.06,.93,.06,1.4,0,6.28,0,12.56,0,18.84,0,.68,0,1.36,.12,2.04,.13,.75,.09,1.51,.09,2.26,0,20.04,0,40.08,0,60.12,0,.76-.01,1.51,.04,2.27,.03,.41,.02,.8-.39,1.04Z"/><path class="cls-10" d="M70.8,249.82c0-.54,.02-1.08,.02-1.62,0-37.04,0-74.08,0-111.12,0-.57-.09-1.16,.24-1.68,1.27,.37,2.56,.4,3.85,.23,.33,.3,.33,.7,.35,1.1,.02,.36,.01,.72,.01,1.08,0,37.4,0,74.81,0,112.21,0,.73,.2,1.52-.36,2.18-1.42-.7-2.79-1.49-4.11-2.37Z"/><path class="cls-5" d="M120.5,149.03c-2.16,0-4.32,0-6.48,0-.48-.55-.34-1.23-.34-1.86-.01-6.76,0-13.53,0-20.29,0-20.47,0-40.94,.01-61.41,0-.74-.28-1.61,.55-2.17,2.64,1.15,3.85,3.25,3.88,6.04,.05,3.92,.01,7.84,.01,11.76,0,4.68,.06,9.36-.03,14.03-.05,2.45,.75,4.42,2.61,5.97,.2,.29,.17,.61,.17,.94-.05,15.01,0,30.01-.03,45.02,0,.67,.16,1.38-.35,1.97Z"/><path class="cls-42" d="M159.81,198.13c0,30.09,0,60.17,0,90.26,0,.53,.09,1.08-.21,1.58-1.38,.94-2.85,1.74-4.32,2.52-.25-.88-.22-1.77-.22-2.67,0-30.57,0-61.13,0-91.7,1.58-.57,3.17-.57,4.75,0Z"/><path class="cls-18" d="M165.21,286.73c.32-.67-.02-1.33-.02-2,.02-21.23,.02-42.47,.02-63.7,.05-.05,.1-.13,.16-.14,2.27-.28,4.55-.46,6.81,.1,.34,.47,.29,1.03,.29,1.56,0,19.52,0,39.05,0,58.57,0,.57,.03,1.16-.35,1.65-2.28,1.36-4.54,2.75-6.91,3.95Z"/><path class="cls-9" d="M74.91,252.19c0-3.6,.01-7.2,.01-10.8,0-35.25,0-70.51,0-105.76,1.24-.49,2.4-1.11,3.31-2.12,.19,.05,.34,.14,.35,.35,.02,.25,.02,.5,.02,.76,0,39.9,0,79.81,0,119.71-1.29-.61-2.5-1.34-3.68-2.13Z"/><path class="cls-41" d="M191.12,73.43c-.6,.12-.41,.6-.41,.96-.01,2.63,0,5.26,0,7.89,0,21.79,0,43.58,0,65.37q0,1.42,1.38,1.42c.76,0,1.51,.03,2.27,0,.63-.03,.97,.16,.89,.85-.02,.21,0,.43,0,.65,0,23.05,0,46.1,0,69.15,0,.44,.21,.94-.23,1.32-.47-.6-.32-1.31-.32-1.98,0-16.85,0-33.69,0-50.54,0-5.72,0-11.45,0-17.17,0-1.66-.04-1.7-1.68-1.7-8.67,0-17.34,0-26.01,0-.64,0-1.3,.11-1.9-.26-.24-.62,.31-.53,.58-.58,.56-.12,1.13-.07,1.7-.04,1.52-.03,3.03-.04,4.55,0,1.86-.04,3.72-.04,5.58,0,.9-.03,1.8-.03,2.7,0,1.19-.07,2.37-.04,3.56-.03,.88,.01,1.24-.37,1.2-1.23-.02-.43,0-.86,0-1.29,0-23.49,0-46.99,0-70.48,0-.71-.15-1.45,.34-2.08,1.91-1.12,3.85-1.17,5.82-.19Z"/><path class="cls-50" d="M120.5,149.03c0-15.41,0-30.82,0-46.22,0-.58,.05-1.14,.22-1.7,3.35,1.8,5.53,1.58,8.47-.88,.54,.1,.39,.53,.39,.86,0,15.68,0,31.35,.02,47.03,0,.67-.15,.97-.89,.96-2.73-.05-5.46-.04-8.19-.05Z"/><path class="cls-33" d="M114.23,63.31c-.3,.46-.21,.97-.21,1.47,0,28.08,0,56.17,0,84.25-1.66,0-3.31,0-4.97,0-.48-.55-.34-1.23-.34-1.86-.01-7.06,0-14.11,0-21.17,0-20.41,0-40.82,0-61.24,0-.43-.02-.87,.13-1.28,1.77-1.02,3.57-.97,5.4-.18Z"/><path class="cls-52" d="M137.13,198.13c0,29.46,0,58.91-.01,88.37,0,.47,.34,1.14-.49,1.34-1.84-.9-3.59-1.97-5.32-3.06-.15-.49-.15-.99-.15-1.5,0-20.12,0-40.24,0-60.36,0-.64-.1-1.3,.26-1.9,.42-.36,.93-.32,1.43-.33,1.51-.05,1.54-.07,1.54-1.62,0-3.7,0-7.39,0-11.09,0-2.76-.01-5.53,0-8.29,.01-1.88,.99-2.43,2.72-1.55Z"/><path class="cls-45" d="M172.12,282.77c0-20.58,0-41.15,0-61.73,.05-.05,.1-.14,.16-.14,2.27-.3,4.54-.45,6.81,.08,.44,.65,.29,1.39,.29,2.1,0,17.6,.01,35.21-.01,52.81,0,.91,.36,1.86-.12,2.76-2.38,1.37-4.75,2.75-7.13,4.12Z"/><path class="cls-13" d="M167.37,149.03c-.78,.19-1.63-.26-2.37,.27,.38,.41,.34,.93,.34,1.43,0,7.01,.01,14.02,0,21.03,0,1.59-.35,1.92-1.96,2.04-.25,.02-.5,.02-.75,.02-8.66,0-17.32,0-25.98-.02-.56,0-1.33,.33-1.63-.56,.63,0,1.26-.02,1.9-.03,2.38,0,4.75,0,7.13,0,2.02,0,4.03,0,6.05,0,2.09,0,4.18,0,6.26,0,2.12,.01,4.25,.01,6.37,.04,.55,0,.81-.18,.76-.75-.02-.21,0-.43,0-.65,0-39.21,0-78.42,0-117.63,1.74,.2,3.22,.87,4.27,2.32-.04,.86-.03,1.72-.03,2.58,0,29.23,0,58.46,0,87.69,0,.74,.2,1.52-.34,2.18Z"/><path class="cls-23" d="M62.61,113.45c.27,.39,.21,.82,.21,1.25,0,43.05,0,86.1,0,129.15,0,.41,.17,.88-.27,1.2-1.04-.5-2.05-1.05-2.98-1.73-.14-.3-.14-.63-.14-.95,.04-42.44,0-84.89,.02-127.33,0-.64-.11-1.31,.34-1.87,.97-.23,1.91-.1,2.82,.27Z"/><path class="cls-21" d="M59.79,113.17c0,42.97,0,85.93,0,128.9,0,.44,0,.86-.24,1.25-1.09-.45-2.06-1.1-3.04-1.75-.11-.39-.11-.78-.11-1.18,.01-41.07,0-82.15,0-123.22,0-.83-.01-1.66-.1-2.48,.97-.94,2.11-1.47,3.47-1.53Z"/><path class="cls-50" d="M128.04,282.89c-2.3-1.22-4.55-2.51-6.75-3.9-.15-.75-.06-1.51-.06-2.26,0-17.87,0-35.74,0-53.61,0-.71-.13-1.45,.27-2.11,.22-.2,.5-.29,.79-.3,1.71-.06,3.42-.07,5.13,0,.25,.01,.49,.09,.69,.26,.35,.47,.3,1.03,.3,1.56,0,19.57,0,39.14,0,58.72,0,.56,.1,1.17-.36,1.63Z"/><path class="cls-40" d="M179.25,278.65c-.35-1.78-.21-3.58-.21-5.37,0-17.41,0-34.83,0-52.24,.05-.05,.1-.13,.16-.14,2.06-.31,4.12-.44,6.16,.08,.43,.65,.29,1.39,.29,2.1,0,16.53,0,33.06,0,49.59,0,.78,.22,1.58-.13,2.34-2.09,1.21-4.18,2.42-6.27,3.63Z"/><path class="cls-24" d="M56.32,114.7c.29,.04,.45,.19,.45,.5,0,.32,0,.65,0,.97,0,41.33,0,82.65,0,123.98,0,.48,.21,1.02-.24,1.43-.85-.21-1.46-.87-2.23-1.23-.27-.13-.3-.37-.3-.63,0-.29,0-.58,0-.86,0-36.83,0-73.66,0-110.48,0-3.09,.06-6.19,.16-9.28,.06-1.76,.75-3.27,2.16-4.39Z"/><path class="cls-38" d="M185.3,73.63c0,24.75,0,49.51,.03,74.26,0,.97-.28,1.25-1.22,1.19-1.33-.08-2.66-.04-3.99-.05-.52-.62-.34-1.37-.34-2.08-.01-16.71,0-33.41,0-50.12,0-.9-.04-1.8,.07-2.69,1.65-1.65,2.26-3.66,2.21-5.97-.06-3.09-.06-6.18,0-9.27,.05-2.36,1.11-4.17,3.25-5.28Z"/><path class="cls-31" d="M108.83,63.48c.36,.31,.22,.74,.22,1.12,0,28.14,0,56.29,0,84.43-1.44,.01-2.88,.02-4.31,.03-.29-.46-.22-.97-.22-1.47,0-10.97,0-21.94,0-32.92,0-.42,.14-.87-.16-1.25,.72-1.33,.95-2.76,.95-4.26-.01-13.26,0-26.53,0-39.79,0-2.68,1.07-4.7,3.54-5.89Z"/><path class="cls-19" d="M167.37,149.03c0-30.42,0-60.84,.01-91.26,0-.41-.3-.97,.37-1.2,1.12,1.2,1.48,2.67,1.48,4.26,0,9.24,.03,18.48-.02,27.72-.01,2.6,.82,4.69,2.92,6.25,.12,.38,.14,.77,.14,1.17-.02,17.06,0,34.13-.01,51.19,0,.63,.14,1.31-.35,1.86-1.51,0-3.02,0-4.54,0Z"/><path class="cls-44" d="M171.91,149.03c0-17.55,0-35.1,0-52.64,0-.53-.09-1.08,.22-1.58,1.53,.88,3.18,1.09,4.91,.85,.58-.22,.67,.22,.77,.6,.1,.42,.07,.86,.07,1.29,0,16.54,0,33.08,0,49.62,0,.63,.14,1.31-.35,1.86-1.87,0-3.74,0-5.62,0Z"/><path class="cls-6" d="M121.58,221.04c0,18.85,0,37.69,0,56.54,0,.47,.21,1.02-.28,1.41-1.83-.94-3.6-1.97-5.33-3.07,.17-16.16,.03-32.32,.08-48.48,0-1.66,0-3.31,0-4.97,0-.5-.04-1.01,.27-1.46,1.76-.5,3.51-.58,5.26,.03Z"/><path class="cls-41" d="M185.52,275.02c-.19-.55-.22-1.12-.22-1.7,0-17.43,0-34.86,0-52.28,.23-.27,.55-.32,.88-.33,1.22-.04,2.43-.04,3.65,0,.32,.01,.64,.06,.88,.33,0,16.5,0,33,0,49.5,0,.44-.19,.95,.27,1.3-1.77,1.15-3.6,2.19-5.46,3.17Z"/><path class="cls-32" d="M112.7,274.02c-1.44-.66-2.77-1.52-4.11-2.36-.34-.47-.33-1.01-.33-1.56,0-15.87,0-31.74,0-47.62,0-.5-.03-1.01,.27-1.46,1.48-.56,2.97-.5,4.46-.04,.35,.47,.29,1.03,.29,1.56,0,16.55,0,33.09,0,49.64,0,.65,.16,1.4-.58,1.84Z"/><path class="cls-20" d="M163.5,11.83c.14,.01,.28,.02,.42,.03,.39,.41,.35,.93,.35,1.42,0,9.41,0,18.81,0,28.22,0,.5,.04,1.02-.35,1.42-3.75,.79-7.48-2.16-7.51-6.06-.05-6.33-.05-12.67,0-19,.02-3.18,2.72-5.92,5.76-6.04,.44-.15,.89-.16,1.33,0Z"/><path class="cls-53" d="M128.04,282.89c0-15.51,.01-31.01,.02-46.52,0-5.11,0-10.22,0-15.33,1.15-.54,2.3-.54,3.46,0,0,20.8,0,41.59,0,62.39,0,.45,.18,.94-.19,1.34-1.14-.54-2.23-1.17-3.27-1.89Z"/><path class="cls-51" d="M138,59.99c-4.01,.37-7.14-2.39-7.16-6.38-.03-6.15-.03-12.3,0-18.45,.02-3.81,3.01-6.61,6.73-6.41,.69,0,.93,.43,.96,1.04,.02,.32,.02,.65,.02,.97,0,9.09,0,18.19-.01,27.28,0,.68,.22,1.47-.55,1.96Z"/><path class="cls-31" d="M108.62,221.04c0,16.41,0,32.81,0,49.22,0,.47-.01,.94-.02,1.4-1.42-.7-2.77-1.51-4.1-2.37,.2-.62,.25-1.26,.24-1.91,0-14.97,0-29.95,0-44.92,0-.5,.02-1.01,.04-1.51,1.29-.37,2.58-.5,3.85,.09Z"/><path class="cls-34" d="M112.7,274.02c.3-.49,.24-1.04,.24-1.58,0-17.14,0-34.27,0-51.41,1.15-.54,2.3-.54,3.46,0,0,17.81,0,35.62,0,53.43,0,.51,.22,1.11-.42,1.44-1.13-.55-2.23-1.17-3.26-1.9Z"/><path class="cls-54" d="M138,59.99c.26-.39,.21-.82,.21-1.25,0-9.57,0-19.14,0-28.71,0-.57,0-1.07-.64-1.28,3.33,.15,6.02,2.8,6.05,6.1,.05,6.36,.05,12.73,0,19.09-.02,3.15-2.44,5.67-5.62,6.06Z"/><path class="cls-13" d="M163.92,42.93c0-10.36,0-20.71,0-31.07,3.01,.44,5.28,2.98,5.3,6.14,.05,6.26,.05,12.53,0,18.79-.02,3.16-2.32,5.73-5.3,6.13Z"/><path class="cls-39" d="M177.53,149.03c0-17.38,0-34.75-.01-52.13,0-.44,.3-1.06-.47-1.23,.99-.4,1.94-.88,2.8-1.53,.47,.35,.27,.86,.27,1.3,0,17.86,0,35.73,0,53.59-.86,0-1.73,0-2.59,0Z"/><path class="cls-43" d="M190.28,64.61c-2.52,.87-5.18,.07-6.92-2.06-1.67-2.04-1.85-4.94-.45-7.23,1.38-2.27,4.1-3.48,6.64-2.97,.24,.05,.48,.13,.72,.2,.34,.43,.35,.93,.35,1.44,0,3.06,0,6.12,0,9.18,0,.5,0,1.01-.33,1.44Z"/><path class="cls-52" d="M136.25,4.68c.66,0,1.33,0,1.99,0,3.58,.48,6.08,4.04,5.3,7.54-.79,3.56-4.42,5.82-7.75,4.82,.29-3.52,.06-7.05,.14-10.57,.01-.6-.11-1.24,.34-1.76l-.02-.03Z"/><path class="cls-49" d="M136.27,4.72c0,3.73,0,7.47-.01,11.2,0,.41,.24,.99-.47,1.13-2.95-.5-5.09-3.31-4.94-6.47,.14-3.01,2.58-5.64,5.42-5.86Z"/><path class="cls-37" d="M190.28,64.61c0-4.02-.01-8.04-.02-12.07,2.88,.97,4.64,3.42,4.54,6.32-.1,2.68-2,5.11-4.52,5.75Z"/><path class="cls-13" d="M163.5,11.83c-.44,0-.89,0-1.33,0,.44-.19,.89-.2,1.33,0Z"/></svg>