<?xml version="1.0" encoding="UTF-8"?>
<svg id="Layer_1" data-name="Layer 1" xmlns="http://www.w3.org/2000/svg" version="1.1" viewBox="0 0 1025 928">
  <defs>
    <style>
      .cls-1 {
        fill: #fff;
        stroke-width: 0px;
      }
    </style>
  </defs>
  <g id="_43v0fU.tif" data-name=" 43v0fU.tif">
    <g>
      <path class="cls-1" d="M1020.7,344.9c-3,10-6.1,20-8.9,30-11.2,39.6-22.3,79.3-33.2,119-1.2,4.2-2.9,5.4-7.2,5.2-12.8-.7-25.6-1-38.4-1-4.4,0-5.6-1.7-6.2-5.6-3.2-21.4-6.6-42.7-10-64,0-.6-.3-1.1-1.4-1.8-1.2,7.4-2.4,14.9-3.6,22.3-2.3,14.8-4.8,29.5-7,44.3-.5,3.1-1.5,4.2-4.7,4.1-14.1-.5-28.3-.9-42.4-1.1-2.9,0-4.1-1.1-4.8-3.8-13.5-48.3-27-96.6-40.5-144.9-.3-1.2-.4-2.6-.7-4.5,2-.2,3.8-.5,5.5-.5,11,0,22,.2,33-.1,4.2-.1,5.7,1.4,6.7,5.4,6.2,26.4,12.6,52.6,18.9,79,.3,1.4.8,2.8,2.1,4.3,1.3-6.3,2.7-12.6,3.9-19,4.1-21,8.4-42,12.2-63.1.9-5.2,3.1-6.7,8.2-6.5,9.3.4,18.7.4,28,0,5-.2,6.9,1.5,7.8,6.4,4.9,26.3,10.2,52.5,15.3,78.7.2,1.3.6,2.5,1.6,3.9.4-1.5.9-3,1.3-4.5,6.2-26,12.6-52,18.6-78,1.2-5,3.2-6.6,8.4-6.4,10.6.4,21.3,0,32,.2,1.9,0,3.8.8,5.7,1.3v1h0Z"/>
      <path class="cls-1" d="M470.4,408.4c10.6-17,22.2-33.6,31.6-51.3,6.2-11.7,13.8-16.5,27-14.9,9,1.1,18.3.2,27.4.2,1.7,0,3.5.2,6.2.4-1.5,2.6-2.4,4.5-3.5,6.2-13.2,19.4-26.4,38.7-39.8,58-1.9,2.7-2,4.7-.6,7.6,10.2,22.4,20.3,44.8,30.4,67.2.7,1.6,1.5,3.3,2.4,5.4-1.2.3-2.1.7-3,.6-13.3-.3-26.6-.8-40-.9-3.2,0-4.7-1.2-5.8-4.1-4.2-10.5-8.6-20.9-13.5-32.5-7.1,12.2-17,21.5-21.2,34.7h-41.4v-135.7c0-6.8,0-6.8,6.9-6.8,9.8,0,19.6.2,29.5-.1,4.7-.1,6.4,1.2,6.3,6.1-.3,18.3-.1,36.6-.1,54.8v4.8c.4,0,.8.1,1.1.2h0Z"/>
      <path class="cls-1" d="M146.3,476.6c-14.7,0-28.8,0-42.9-.2-1,0-2.6-2.5-2.7-4-.3-6.3-.1-12.6-.1-19.2h-28.8v21.7H26.3c-.2-2.4-.4-4.1-.4-5.9,0-40,0-80.1-.1-120.1,0-5,1.3-6.7,6.5-6.5,11.3.4,22.6.3,33.9,0,4.2,0,5.4,1.5,5.4,5.5-.2,17.9,0,35.9,0,53.8v5.6h28.9v-5.6c0-17.8.1-35.5,0-53.3,0-4.5,1.1-6.2,5.9-6.1,11.8.3,23.6.2,35.5,0,3.2,0,4.9.8,4.9,4.4,0,42.7,0,85.4,0,128.1,0,.6-.2,1.3-.2,1.5h0Z"/>
      <path class="cls-1" d="M831.6,495.3c-44.8-1.1-89.1-2.2-134-3.4.5-2.1.7-3.5,1.1-4.9,13.3-46.3,26.7-92.5,39.9-138.9,1.2-4.4,3.1-5.8,7.6-5.6,12.7.3,25.3.2,38,0,3.3,0,5.1.8,6,4.3,13.4,48.1,27,96.3,40.5,144.4.3,1.1.5,2.2.9,4.1h0ZM775.9,456.6c-3.7-24.1-7.3-47.8-10.9-71.4-.3,0-.7,0-1,0-3.8,23.7-7.6,47.3-11.4,71.4h23.3,0Z"/>
      <path class="cls-1" d="M569.3,489c7.9-11.1,14.8-20.9,22.2-31.3,2.5,3,4.5,5.4,6.5,7.7,8.3,9.5,17.8,17.2,30.9,18.4,4.5.4,9.3-.3,13.7-1.4,4.9-1.3,7.7-5.1,8.3-10.2.6-5.2-1.1-10-5.8-12.2-5.5-2.6-11.4-4.4-17.3-6.2-7.8-2.3-15.9-3.8-23.6-6.4-19.7-6.7-30.6-20.9-31.9-41.5-.6-9.5-.2-19.4,1.8-28.6,4-18.7,15.8-31.5,34.2-36.8,28.4-8.1,53.9-3.3,75,18.8,3.3,3.5,3.5,6,.5,9.8-6.2,8-12.1,16.3-17.9,24.6-2,2.8-3.4,2.9-5.8.5-6.9-6.9-14.8-12.6-24.8-13.7-4.2-.5-8.6-.1-12.8.6-4.4.8-7.3,3.9-8,8.5-.7,4.5.8,8.5,4.6,10.8,3.8,2.3,8,4.1,12.2,5.4,7.3,2.2,14.8,3.8,22.2,5.9,27.9,8.2,41.3,25.1,39,58.6-.4,5.9-2.3,11.7-3.5,17.5-.6,3.1-2.4,4.1-5.7,4-32.8-1-65.5-1.8-98.3-2.6-4.8-.1-9.5,0-15.7,0h0Z"/>
      <path class="cls-1" d="M291,481.6c-42-1.1-83.7-2.2-125.9-3.4.5-2.2.8-3.8,1.3-5.3,12-41.6,24-83.2,35.9-124.9,1.2-4.1,2.9-5.5,7.2-5.5,12.8.3,25.6.2,38.4,0,3,0,4.9.6,5.8,3.9,12.3,44.3,24.8,88.5,37.3,132.8.1.5,0,1,.1,2.3h0ZM239.4,456.7c-3.7-24.2-7.4-47.8-11-71.4-.4,0-.7,0-1.1,0-3.8,23.6-7.5,47.3-11.3,71.3h23.4Z"/>
      <path class="cls-1" d="M372.8,483.6c-21-.5-41.9-1-62.9-1.7-1.4,0-3.5-1.5-4-2.7-14.3-40.9-12.1-80,15.3-115,20.1-25.8,52.7-31.9,81.7-23,1.6.5,4,2.6,4,4.1.3,16.1.2,32.1.2,49.6-1.8-1.8-2.8-2.7-3.8-3.6-14.6-15.5-38.9-12.5-48.9,6.2-6.7,12.6-7.5,26.4-6.9,40.3.2,5,.9,10,1.9,14.8,3,13.7,8.8,25.5,23.2,31.2h0Z"/>
      <path class="cls-1" d="M206.3,486.8c19.8.5,39.6,1.1,59.4,1.6,2.6,0,4.2.5,5,3.5,2.9,10.9,6,21.8,9.1,32.6,1,3.5,0,4.9-3.7,4.9-12.3-.1-24.6-.1-37,0-3.1,0-4.5-1.2-5.1-4.2-1.2-5.7-2.7-11.3-3.8-17-.6-3.2-2.1-4.2-5.4-4.2-12.8.2-25.6.1-38.5,0-3,0-4.5.9-5,4-1.1,5.7-2.6,11.3-3.8,17-.6,2.9-1.8,4.3-5,4.3-12.5,0-25,0-37.5,0-3.6,0-4.4-1.5-3.5-4.7,3.5-12.1,7.1-24.2,10.4-36.4.9-3.2,3-2.9,5.3-2.9,19.6,0,39.3,0,58.9,0v1.4h0Z"/>
      <path class="cls-1" d="M385.2,491.5c0,12.9.1,25.1-.2,37.3,0,1.4-2.4,3.5-4,4-32,8.9-71.3.7-91.9-36-1.3-2.3-2.4-4.6-4.1-7.9,33.7.9,66.5,1.7,100.2,2.6h0Z"/>
      <path class="cls-1" d="M666,498c-3.8,9.3-8.4,15.9-14.7,21.2-21,17.7-44.9,19.3-70,11.3-13.8-4.4-25.2-12.6-34.4-23.8-1.3-1.6-2.5-4.5-2-6.4.8-3,3-4.9,7.1-4.8,28.9,1,57.9,1.7,86.8,2.4,8.6.2,17.2,0,27.2,0h0Z"/>
      <path class="cls-1" d="M742.7,500.7c21,.5,41.9,1.2,62.9,1.5,3.5,0,5,1.2,5.8,4.5,1.3,5.7,2.9,11.3,4.7,16.8,1.3,4,.7,5.9-4.1,5.8-12-.2-24-.2-36,0-3.2,0-4.9-1.1-5.5-4.3-1.2-5.9-2.7-11.6-4-17.5-.5-2.5-1.6-3.6-4.3-3.6-13.3.1-26.6.1-40,0-2.7,0-3.8,1-4.3,3.6-1.2,5.7-2.7,11.3-3.8,17-.7,3.3-2.1,4.8-5.7,4.8-12.2-.2-24.3-.2-36.5,0-4.2,0-4.8-1.7-3.8-5.2,2.1-7,4.3-14,6.1-21,.8-3.1,2.2-4.2,5.5-4.1,21,.7,41.9,1.1,62.9,1.7h0s0,0,0,0Z"/>
      <path class="cls-1" d="M416,595.4c2.5-7.9,5.2-15.7,7.5-23.7.9-3.1,2.4-4.3,5.6-4.1,4.1.2,8.3,0,12.8,0v55.9h-14.1v-29.7c-.4,0-.8-.1-1.2-.2-1.5,4.9-3.3,9.8-4.5,14.8-1,4.4-4.2,3.4-7,3.4-2.7,0-5.6.7-6.5-3.4-1.1-5-3-9.8-5.3-14.6v29.6h-14.5v-55.9c5.2,0,10.4-.2,15.4.2,1.1,0,2.5,2.3,3.1,3.8,2.7,7.8,5.2,15.7,7.8,23.6.4,0,.7,0,1,.1h0Z"/>
      <path class="cls-1" d="M4.3,482.4c9,0,17.4,0,25.8,0,5.3,0,10.6.2,16,.3,2.3,0,3.8.5,3.8,3.3,0,13.1,0,26.2,0,39.3,0,3-1.4,4-4.3,4-12.3,0-24.6,0-36.9-.2-1.4,0-4.1-1.8-4.1-2.8-.3-14.7-.2-29.5-.2-44h0Z"/>
      <path class="cls-1" d="M78.7,484.5h45.9v16.1c0,8.1,0,16.3,0,24.4,0,2.9-1,4.2-4.1,4.2-12.6,0-25.3,0-37.9-.2-1.3,0-3.8-2.4-3.8-3.7-.3-13.6-.2-27.2-.2-40.8h0Z"/>
      <path class="cls-1" d="M779.5,623.8c-9,.5-15.2-3.1-18.7-10.8-2.2-4.9-4.4-9.8-7.7-14.5v25.2h-14.6v-55.9c3.9,0,7.9-.3,11.7.2,1.3.2,2.7,2.1,3.4,3.6,3.4,7.5,6.7,15,11,22.4v-25.8h14.9v55.7h0Z"/>
      <path class="cls-1" d="M942.6,603.5c-7.4-1.3-3.9-6.3-4.4-10.4h20.5c0,7.7.3,15.1-.1,22.5-.3,4.8-5.1,8.4-10.2,8.4-6.3,0-12.6,0-19,0-5.7,0-10.2-3.8-10.4-9.4-.3-12.4-.3-24.9,0-37.3,0-5.1,3.2-8.7,8.3-9,7.6-.5,15.3-.7,22.9-.1,5.7.4,8.4,4.1,8.6,9.8.1,2.8,0,5.6,0,8.8h-15.8c0-1.8-.3-3.4-.3-5,0-2.8-1.4-4.3-3.9-3.5-1.4.4-3.3,2.2-3.4,3.4-.3,9.5-.3,18.9,0,28.4,0,1.2,2,3.1,3.4,3.5,2.6.7,3.9-1,3.8-3.7,0-2,0-4,0-6.4h0Z"/>
      <path class="cls-1" d="M67.4,587h-16c0-1.9.2-3.7-.3-5.1-.6-1.4-1.9-3.2-3.3-3.6-2.5-.8-4,.6-4,3.5,0,9.5,0,18.9,0,28.4,0,2.9,1.7,4.1,4.1,3.4,1.4-.4,2.8-2.2,3.2-3.7.5-1.8.1-3.9.1-6.2-7.1-1.1-4.1-6.2-4.5-10.6h20.4c0,7.8.4,15.4-.1,22.9-.3,4.9-5.1,8.1-10.4,8.1-6.2,0-12.3,0-18.5,0-5.9,0-10.4-3.9-10.5-9.7-.2-12.3-.2-24.6,0-36.8,0-5.5,3.2-9,9.1-9.5,7.1-.5,14.3-.6,21.4,0,6.4.5,9.2,4.2,9.4,10.7,0,2.6,0,5.2,0,8.2h0Z"/>
      <path class="cls-1" d="M252.2,623.8h-15.6c-3.5-8.5-3.5-8.1-12.3-8.3-6.4-.1-3.8,5.5-6.4,8.2h-14.8c0-1,0-2,.3-2.8,4.4-16.5,8.9-33,13.2-49.6.7-2.8,2-3.8,4.8-3.7,5,.3,11.2-1.5,14.6.8,3.2,2.3,3.7,8.7,5,13.4,3.8,13.7,7.4,27.5,11.2,42h0ZM228,588h-1.3c-1.2,5.3-2.3,10.6-3.6,16.1h8.5c-1.3-5.7-2.4-10.9-3.6-16.1h0Z"/>
      <path class="cls-1" d="M483.3,495.1c15.3,0,30,0,44.7.1,1.1,0,2.6,1.5,3.1,2.6,4.1,8.9,8,17.8,12.1,26.7,1.7,3.6.5,4.7-3.2,4.7-13,0-25.9,0-38.9-.1-1.6,0-4.2-1.2-4.8-2.5-4.6-10.4-8.8-21-13.2-31.5h0Z"/>
      <path class="cls-1" d="M405,492.9h42.5c0,11.6.1,22.5-.2,33.5,0,1-2.3,2.8-3.6,2.8-11.6.2-23.3.2-35,0-1.3,0-3.5-2.1-3.6-3.3-.3-10.9-.2-21.9-.2-32.9h0Z"/>
      <path class="cls-1" d="M882.3,504c-1.3,8.3-2.3,15.6-3.8,22.8-.2,1-2.4,2.3-3.7,2.3-10.6.2-21.3.2-31.9,0-1.3,0-3.4-1.2-3.7-2.3-2.4-7.6-4.4-15.2-6.5-22.8h49.7,0Z"/>
      <path class="cls-1" d="M955.1,505.9c-2,7.4-3.6,13.9-5.7,20.1-.5,1.4-2.7,3-4.2,3.1-10.5.3-20.9.3-31.4,0-1.5,0-3.9-2-4.2-3.4-1.5-6.6-2.4-13.3-3.4-19.8h48.8Z"/>
      <path class="cls-1" d="M582.4,568.1h15.6v55.6h-15.6v-55.6Z"/>
      <path class="cls-1" d="M406.7,483.9h-19.1c6.6-4.5,12.8-8.8,19.1-13.1v13.1Z"/>
      <path class="cls-1" d="M228,588c1.2,5.2,2.3,10.5,3.6,16.1h-8.5c1.2-5.5,2.4-10.8,3.6-16h1.3c0,0,0,0,0,0Z"/>
    </g>
  </g>
</svg>