<?xml version="1.0" encoding="utf-8"?>
<!-- Generator: Adobe Illustrator 26.2.1, SVG Export Plug-In . SVG Version: 6.00 Build 0)  -->
<svg version="1.1" id="a" xmlns="http://www.w3.org/2000/svg" xmlns:xlink="http://www.w3.org/1999/xlink" x="0px" y="0px"
	 viewBox="0 0 150 150" style="enable-background:new 0 0 150 150;" xml:space="preserve">
<style type="text/css">
	.st0{fill:url(#SVGID_1_);}
	.st1{fill:#FFFFFF;}
</style>
<g>
	<linearGradient id="SVGID_1_" gradientUnits="userSpaceOnUse" x1="21.5215" y1="21.5388" x2="128.4438" y2="128.4612">
		<stop  offset="1.758794e-02" style="stop-color:#FFCE00"/>
		<stop  offset="0.4372" style="stop-color:#FF1C03"/>
		<stop  offset="1" style="stop-color:#DE0021"/>
	</linearGradient>
	<path class="st0" d="M116.5,100c-15-0.8-23.9-10.1-24.1-25c0.2-14.9,9.1-24.2,24.1-25c9.9-0.6,17-7.9,16.8-17.2
		c-0.2-9-7.6-16.2-16.6-16.3c-9.2-0.1-17.2,6.9-16.8,16.4c0.5,11.6-4.6,18.5-14.9,22.4c-10.6,4-20.2,1.7-28.8-5.2
		c-4.2-3.4-5.8-8-5.9-13.4c-0.1-3.2-0.2-6.5-1.2-9.4C46.3,19.3,37.9,15,29.5,17c-7.7,1.8-13.4,9.3-12.9,17.1
		c0.6,8.6,7.4,15.3,16.1,15.9c10.1,0.6,18.3,4.5,23,13.9c1.8,3.7,2.7,7.5,2.7,11.2c0,3.7-0.8,7.5-2.7,11.2
		c-4.7,9.4-12.8,13.3-23,13.9c-8.7,0.5-15.5,7.3-16.1,15.9c-0.5,7.8,5.2,15.3,12.9,17.1c8.3,1.9,16.7-2.3,19.5-10.3
		c1-2.9,1.1-6.3,1.2-9.4c0.1-5.4,1.7-10,5.9-13.4c8.6-6.9,18.2-9.2,28.8-5.2c10.3,3.9,15.4,10.7,14.9,22.4
		c-0.4,9.6,7.6,16.5,16.8,16.4c9-0.1,16.4-7.3,16.6-16.3C133.5,107.9,126.3,100.6,116.5,100z"/>
	<g>
		<path class="st1" d="M74.9,100c-9.1,0-16.7,7.6-16.8,16.7c-0.1,9.2,7.8,16.9,17.2,16.8c9.2-0.1,16.5-7.7,16.4-16.9
			C91.6,107.4,84.1,100,74.9,100z"/>
		<path class="st1" d="M33.5,58.1c-9.4-0.1-17,7.6-17,16.9c-0.1,9.3,7.6,17,17,16.9C42.8,91.9,50,84.5,50,75.2c0-0.1,0-0.1,0-0.2
			c0-0.1,0-0.1,0-0.2C50,65.5,42.8,58.1,33.5,58.1z"/>
		<path class="st1" d="M133.4,74.3c-0.4-9.2-8-16.4-17.2-16.3c-9.2,0.2-16.5,7.7-16.4,16.9c-0.1,9.2,7.2,16.7,16.4,16.9
			c9.1,0.2,16.8-7.1,17.2-16.3c0-0.2,0-0.5,0-0.7C133.5,74.8,133.5,74.5,133.4,74.3z"/>
		<path class="st1" d="M74.9,50c9.2,0,16.7-7.3,16.8-16.6c0.1-9.2-7.2-16.8-16.4-16.9C65.9,16.4,58,24,58.1,33.3
			C58.2,42.4,65.8,49.9,74.9,50z"/>
	</g>
</g>
</svg>
