<?xml version="1.0" encoding="utf-8"?>
<!-- Generator: Adobe Illustrator 26.0.2, SVG Export Plug-In . SVG Version: 6.00 Build 0)  -->
<svg version="1.1" id="Layer_1" xmlns="http://www.w3.org/2000/svg" xmlns:xlink="http://www.w3.org/1999/xlink" x="0px" y="0px"
	 viewBox="0 0 135.8 39.5" style="enable-background:new 0 0 135.8 39.5;" xml:space="preserve">
<style type="text/css">
	.st0{fill:none;}
	.st1{fill:#FFFFFF;}
</style>
<rect x="-7.1" y="-53.8" class="st0" width="150" height="150"/>
<g>
	<path class="st1" d="M105.6,10.1c0.5,0,1.1,0,1.6,0c0.4,0,0.5-0.1,0.4-0.5c-0.2-0.8-0.3-1.6-0.5-2.4c-1.4-4.4-5.1-6.7-9.7-6.1
		c-2.3,0.3-4,1.6-5.4,3.3c-0.4,0.5-0.4,0.5-0.8,0c-2.3-3-5.3-3.9-8.9-3.2c-4.4,1-6.3,4.8-6.8,8.3c0,0.4,0.1,0.4,0.4,0.4
		c1.1,0,2.1,0,3.2,0c0.4,0,0.5-0.1,0.6-0.5c0.4-2.6,2-4.1,4.6-4.3c1.5-0.1,2.8,0.3,3.8,1.5c0.7,0.8,1.1,1.8,1.2,2.8
		c0.1,0.4,0.2,0.5,0.6,0.5c1.1,0,2.1,0,3.2,0c0.4,0,0.5-0.1,0.6-0.5c0.3-2.6,2-4.1,4.6-4.3c2.4-0.2,4.2,1,4.9,3.3
		c0.1,0.4,0.2,0.7,0.2,1.1c0,0.3,0.2,0.5,0.5,0.5C104.6,10.1,105.1,10.1,105.6,10.1z M23.6,11.2c-0.6,0-1.2,0-1.7,0
		c-0.2,0-0.4,0.1-0.4,0.4c0.1,0.9,0,1.9,0.2,2.8c0.7,3.3,2.5,5.9,5.8,7.2c2.2,0.9,4.5,1,6.8,0.6c2-0.3,3.8-1,5.2-2.5
		c2.3-2.3,3.1-5.1,3-8.2c0-0.3-0.2-0.4-0.4-0.4c-0.8,0-1.7,0-2.5,0c-1.2,0-1.2,0-1.2,1.2c0,2.3-1.5,4.4-3.6,5.3
		c-1.2,0.5-2.5,0.6-3.8,0.5c-2-0.2-3.6-1.2-4.6-3c-0.6-1.1-0.7-2.3-0.7-3.5c0-0.4-0.1-0.5-0.5-0.5C24.6,11.2,24.1,11.2,23.6,11.2z
		 M40.4,10.1c0.4,0,0.8,0,1.1,0c1,0,1.1,0,0.8-1c-0.7-3-2.2-5.5-5.1-6.9c-1.9-0.9-3.9-1.2-5.9-1.1c-2.1,0.1-4,0.6-5.8,1.8
		c-2.4,1.7-3.6,4.1-4.1,6.9c-0.1,0.4,0.1,0.4,0.4,0.4c1.1,0,2.2,0,3.3,0c0.3,0,0.4-0.1,0.5-0.4c0.4-2,1.6-3.3,3.6-4
		c1.3-0.4,2.6-0.5,3.9-0.3c2.4,0.3,4.6,1.5,5.1,4.3c0.1,0.3,0.2,0.4,0.5,0.4C39.3,10.1,39.9,10.1,40.4,10.1z M4.7,1.2
		c-1.4,0-2.7,0-4.1,0c-0.3,0-0.5,0.1-0.5,0.4c0,2.7,0,5.3,0,8c0,0.4,0.2,0.5,0.5,0.5c1.1,0,2.1,0,3.2,0c0.4,0,0.5-0.1,0.5-0.5
		c0-1.3,0-2.5,0-3.8c0-0.4,0.2-0.6,0.6-0.6c1.1,0,2.2,0,3.2,0c0.9,0,1.7,0.2,2.5,0.6C12.2,6.6,12.9,8,13,9.6c0,0.3,0,0.5,0.4,0.5
		c1.1,0,2.3,0,3.4,0c0.3,0,0.4-0.1,0.4-0.4c-0.2-1-0.2-1.9-0.6-2.8C15.6,3.7,12,1.2,8.5,1.2C7.3,1.2,6,1.2,4.7,1.2z M53.7,22.4
		c2,0,3.9,0,5.9,0c0.6,0,0.6,0,0.6-0.6c0-1,0-2,0-3c0-0.5-0.2-0.6-0.6-0.6c-2.6,0-5.1,0-7.7,0c-0.4,0-0.6-0.1-0.6-0.6
		c0-2,0-3.9,0-5.9c0-0.4-0.1-0.6-0.5-0.6c-1,0-2.1,0-3.1,0c-0.4,0-0.5,0.1-0.5,0.5c0,3.4,0,6.8,0,10.1c0,0.4,0.1,0.6,0.6,0.6
		C49.8,22.4,51.7,22.4,53.7,22.4z M124.3,5.3c0.7,0,1.3,0,2,0c0.4,0,0.6,0.1,0.6,0.6c0,1.3,0,2.5,0,3.8c0,0.4,0.1,0.5,0.5,0.5
		c1,0,2.1,0,3.2,0c0.4,0,0.5-0.1,0.5-0.5c0-1.3,0-2.5,0-3.8c0-0.5,0.2-0.6,0.6-0.6c1.3,0,2.5,0,3.8,0c0.3,0,0.5-0.1,0.5-0.5
		c0-1.1,0-2.2,0-3.3c0-0.3-0.1-0.4-0.4-0.4c-4.4,0-8.7,0-13.1,0c-0.3,0-0.4,0.1-0.4,0.4c0,1.1,0,2.2,0,3.3c0,0.3,0.1,0.4,0.4,0.4
		C123,5.3,123.6,5.3,124.3,5.3z M107.8,16.8c0-1.7,0-3.4,0-5.1c0-0.4-0.1-0.5-0.5-0.5c-1.1,0-2.2,0-3.2,0c-0.4,0-0.5,0.1-0.5,0.5
		c0,3.4,0,6.9,0,10.3c0,0.4,0.1,0.5,0.5,0.5c1.1,0,2.2,0,3.2,0c0.4,0,0.5-0.1,0.5-0.5C107.8,20.3,107.8,18.6,107.8,16.8z
		 M112.9,22.4c1.3,0,2.6,0,3.9,0c0.1,0,0.3-0.2,0.3-0.4c0-3.5,0-6.9,0-10.4c0-0.3-0.1-0.5-0.5-0.5c-1.1,0-2.1,0-3.2,0
		c-0.4,0-0.6,0.1-0.6,0.6c0,3.4,0,6.8,0,10.1C112.9,22.1,112.9,22.2,112.9,22.4z M17.2,16.9c0-1.7,0-3.4,0-5.1
		c0-0.3-0.1-0.5-0.5-0.5c-1.1,0-2.2,0-3.3,0c-0.4,0-0.5,0.1-0.5,0.5c0,3.4,0,6.8,0,10.1c0,0.4,0.1,0.5,0.5,0.5c1.1,0,2.1,0,3.2,0
		c0.4,0,0.5-0.1,0.5-0.5C17.2,20.3,17.2,18.6,17.2,16.9z M69.9,16.8c0-1.7,0-3.4,0-5.1c0-0.4-0.1-0.5-0.5-0.5c-1.1,0-2.2,0-3.2,0
		c-0.3,0-0.5,0.1-0.5,0.5c0,3.4,0,6.9,0,10.3c0,0.4,0.1,0.5,0.5,0.5c1,0,2,0,3.1,0c0.6,0,0.6,0,0.6-0.6
		C69.9,20.2,69.9,18.5,69.9,16.8z M79.8,16.9c0-1.7,0-3.4,0-5.2c0-0.4-0.1-0.5-0.5-0.5c-1.1,0-2.1,0-3.2,0c-0.4,0-0.5,0.1-0.5,0.5
		c0,3.4,0,6.9,0,10.3c0,0.3,0.1,0.4,0.4,0.4c1.1,0,2.2,0,3.3,0c0.4,0,0.4-0.1,0.4-0.5C79.8,20.3,79.8,18.6,79.8,16.9z M93.8,16.9
		c0-1.7,0-3.5,0-5.2c0-0.3-0.1-0.5-0.5-0.5c-1.1,0-2.2,0-3.3,0c-0.4,0-0.5,0.1-0.4,0.5c0,3.4,0,6.9,0,10.3c0,0.4,0.1,0.5,0.5,0.5
		c1.1,0,2.2,0,3.2,0c0.4,0,0.5-0.1,0.5-0.5C93.8,20.3,93.8,18.6,93.8,16.9z M126.9,16.8c0,1.7,0,3.4,0,5.2c0,0.4,0.1,0.5,0.5,0.5
		c1.1,0,2.2,0,3.2,0c0.3,0,0.4-0.1,0.4-0.4c0-3.4,0-6.9,0-10.3c0-0.4-0.1-0.5-0.5-0.5c-1.1,0-2.1,0-3.2,0c-0.4,0-0.5,0.1-0.5,0.5
		C126.9,13.4,126.9,15.1,126.9,16.8z M4.4,16.8c0-1.7,0-3.4,0-5.1c0-0.3-0.1-0.5-0.4-0.5c-1.1,0-2.2,0-3.3,0c-0.3,0-0.4,0.1-0.4,0.4
		c0,3.4,0,6.8,0,10.2c0,0.4,0.1,0.5,0.5,0.5c1.1,0,2.2,0,3.2,0c0.4,0,0.5-0.1,0.5-0.5C4.4,20.1,4.4,18.5,4.4,16.8z M112.9,5.6
		c0,1.3,0,2.7,0,4c0,0.4,0.1,0.5,0.5,0.5c1.1,0,2.2,0,3.2,0c0.4,0,0.5-0.1,0.5-0.5c0-2.7,0-5.4,0-8.1c0-0.3-0.1-0.5-0.5-0.5
		c-1.1,0-2.2,0-3.3,0c-0.4,0-0.5,0.1-0.5,0.5C112.9,2.9,112.9,4.2,112.9,5.6z M47.2,5.6c0,1.3,0,2.7,0,4c0,0.4,0.1,0.5,0.5,0.5
		c1.1,0,2.2,0,3.2,0c0.3,0,0.5-0.1,0.5-0.5c0-2.7,0-5.4,0-8.1c0-0.4-0.1-0.4-0.5-0.4c-1.1,0-2.1,0-3.2,0c-0.4,0-0.5,0.1-0.5,0.5
		C47.3,2.9,47.2,4.3,47.2,5.6z M69.9,5.7c0-1.4,0-2.7,0-4.1c0-0.4-0.1-0.5-0.5-0.5c-1.1,0-2.2,0-3.2,0c-0.3,0-0.5,0.1-0.5,0.4
		c0,2.7,0,5.4,0,8.1c0,0.4,0.2,0.5,0.5,0.5c1,0,2.1,0,3.1,0c0.4,0,0.5-0.2,0.5-0.6C69.9,8.3,69.9,7,69.9,5.7z M98.8,29.7
		c0.7,1.3,1.4,2.6,2.1,3.9c0.2,0.4,0.3,0.8,0.3,1.3c0,0.7,0,1.4,0,2.1c0.6,0,1.1,0,1.6,0c0-0.8,0-1.6,0-2.4c0-0.3,0.1-0.6,0.2-0.9
		c0.7-1.2,1.3-2.5,2-3.7c0.1-0.1,0.1-0.2,0.2-0.4c-0.5,0-0.9,0-1.3,0c-0.3,0-0.4,0.1-0.6,0.4c-0.4,0.9-0.9,1.8-1.4,2.7
		c-0.3-0.6-0.6-1.2-0.9-1.7c-0.7-1.3-0.7-1.3-2.2-1.3C99,29.7,99,29.7,98.8,29.7z M80.5,31c0-0.5,0-0.9,0-1.3c-1.9,0-3.7,0-5.5,0
		c0,0.4,0,0.8,0,1.3c0.7,0,1.3,0,2,0c0,2,0,4,0,6c0.5,0,1,0,1.6,0c0-2,0-4,0-6C79.2,31,79.8,31,80.5,31z M54.1,29.7
		c0,2.5,0,4.9,0,7.3c0.5,0,1,0,1.5,0c0-2.5,0-4.9,0-7.3C55.2,29.7,54.7,29.7,54.1,29.7z"/>
	<path class="st1" d="M31.8,37.2C31.8,37.2,31.8,37.1,31.8,37.2c-1.7-0.3-2.5-1.3-2.7-2.8c-0.1-0.7-0.1-1.5,0.1-2.3
		c0.4-1.8,2-2.7,3.9-2.5c0.5,0.1,1,0.3,1.6,0.4c-0.2,0.5-0.4,0.9-0.5,1.3c-0.4-0.1-0.8-0.3-1.2-0.4c-1-0.2-1.8,0.2-2.1,1.2
		c-0.3,0.8-0.3,1.6-0.1,2.4c0.3,1,1,1.5,2.1,1.3c0.5-0.1,1-0.2,1.5-0.3c0,0.4,0,0.8,0,1.1c0,0.1-0.2,0.2-0.3,0.2
		c-0.4,0.1-0.7,0.2-1.1,0.3C32.6,37.2,32.2,37.2,31.8,37.2z"/>
	<path class="st1" d="M105.6,10.1c-0.5,0-1.1,0-1.6,0c-0.3,0-0.5-0.1-0.5-0.5c0-0.4-0.1-0.7-0.2-1.1c-0.7-2.3-2.5-3.5-4.9-3.3
		c-2.6,0.2-4.2,1.7-4.6,4.3c0,0.4-0.2,0.5-0.6,0.5c-1.1,0-2.1,0-3.2,0c-0.4,0-0.5-0.1-0.6-0.5c-0.2-1-0.5-2-1.2-2.8
		c-1-1.2-2.3-1.6-3.8-1.5c-2.6,0.2-4.2,1.7-4.6,4.3c-0.1,0.4-0.2,0.5-0.6,0.5c-1.1,0-2.1,0-3.2,0c-0.3,0-0.5-0.1-0.4-0.4
		c0.4-3.5,2.4-7.4,6.8-8.3c3.6-0.8,6.6,0.2,8.9,3.2c0.4,0.5,0.4,0.5,0.8,0c1.4-1.7,3.1-3,5.4-3.3c4.6-0.7,8.3,1.6,9.7,6.1
		c0.2,0.8,0.3,1.6,0.5,2.4c0.1,0.4-0.1,0.5-0.4,0.5C106.7,10.1,106.2,10.1,105.6,10.1z"/>
	<path class="st1" d="M23.6,11.2c0.5,0,1.1,0,1.6,0c0.4,0,0.5,0.1,0.5,0.5c0,1.2,0.1,2.4,0.7,3.5c1,1.8,2.5,2.8,4.6,3
		c1.3,0.1,2.6,0,3.8-0.5c2.2-0.9,3.6-3,3.6-5.3c0-1.2,0-1.2,1.2-1.2c0.8,0,1.7,0,2.5,0c0.3,0,0.4,0.1,0.4,0.4c0.1,3.1-0.7,5.9-3,8.2
		c-1.4,1.4-3.2,2.2-5.2,2.5c-2.3,0.3-4.6,0.3-6.8-0.6c-3.3-1.3-5-3.9-5.8-7.2c-0.2-0.9-0.1-1.9-0.2-2.8c0-0.3,0.1-0.4,0.4-0.4
		C22.4,11.2,23,11.2,23.6,11.2z"/>
	<path class="st1" d="M40.4,10.1c-0.5,0-1.1,0-1.6,0c-0.3,0-0.5-0.1-0.5-0.4c-0.5-2.8-2.7-4.1-5.1-4.3c-1.3-0.1-2.6-0.1-3.9,0.3
		c-1.9,0.7-3.1,2-3.6,4c-0.1,0.3-0.2,0.4-0.5,0.4c-1.1,0-2.2,0-3.3,0c-0.3,0-0.5,0-0.4-0.4c0.5-2.8,1.7-5.2,4.1-6.9
		c1.7-1.2,3.7-1.7,5.8-1.8c2.1-0.1,4.1,0.2,5.9,1.1c2.9,1.4,4.4,3.8,5.1,6.9c0.2,1,0.2,1-0.8,1C41.1,10.1,40.8,10.1,40.4,10.1z"/>
	<path class="st1" d="M4.7,1.2c1.3,0,2.5,0,3.8,0c3.5,0,7.1,2.5,8.2,5.6c0.3,0.9,0.4,1.9,0.6,2.8c0.1,0.3-0.1,0.4-0.4,0.4
		c-1.1,0-2.3,0-3.4,0C13,10.1,13,9.9,13,9.6c-0.1-1.6-0.8-3-2.3-3.8C9.9,5.4,9.1,5.3,8.2,5.3c-1.1,0-2.2,0-3.2,0
		c-0.4,0-0.6,0.1-0.6,0.6c0,1.3,0,2.5,0,3.8c0,0.4-0.1,0.5-0.5,0.5c-1.1,0-2.1,0-3.2,0c-0.4,0-0.5-0.1-0.5-0.5c0-2.7,0-5.3,0-8
		c0-0.4,0.1-0.4,0.5-0.4C2,1.2,3.4,1.2,4.7,1.2z"/>
	<path class="st1" d="M53.7,22.4c-2,0-4,0-5.9,0c-0.4,0-0.6-0.1-0.6-0.6c0-3.4,0-6.8,0-10.1c0-0.4,0.1-0.5,0.5-0.5c1,0,2.1,0,3.1,0
		c0.5,0,0.5,0.2,0.5,0.6c0,2,0,3.9,0,5.9c0,0.5,0.2,0.6,0.6,0.6c2.6,0,5.1,0,7.7,0c0.4,0,0.6,0.1,0.6,0.6c0,1,0,2,0,3
		c0,0.6,0,0.6-0.6,0.6C57.6,22.4,55.7,22.4,53.7,22.4z"/>
	<path class="st1" d="M124.3,5.3c-0.7,0-1.3,0-2,0c-0.3,0-0.4-0.1-0.4-0.4c0-1.1,0-2.2,0-3.3c0-0.3,0.1-0.4,0.4-0.4
		c4.4,0,8.7,0,13.1,0c0.3,0,0.4,0.1,0.4,0.4c0,1.1,0,2.2,0,3.3c0,0.4-0.2,0.5-0.5,0.5c-1.3,0-2.5,0-3.8,0c-0.4,0-0.6,0.1-0.6,0.6
		c0,1.3,0,2.5,0,3.8c0,0.4-0.1,0.5-0.5,0.5c-1,0-2.1,0-3.2,0c-0.4,0-0.5-0.1-0.5-0.5c0-1.3,0-2.5,0-3.8c0-0.4-0.1-0.6-0.6-0.6
		C125.6,5.3,125,5.3,124.3,5.3z"/>
	<path class="st1" d="M107.8,16.8c0,1.7,0,3.4,0,5.1c0,0.4-0.1,0.5-0.5,0.5c-1.1,0-2.2,0-3.2,0c-0.4,0-0.5-0.1-0.5-0.5
		c0-3.4,0-6.9,0-10.3c0-0.3,0.1-0.5,0.5-0.5c1.1,0,2.2,0,3.2,0c0.4,0,0.5,0.1,0.5,0.5C107.8,13.4,107.8,15.1,107.8,16.8z"/>
	<path class="st1" d="M112.9,22.4c0-0.2,0-0.4,0-0.5c0-3.4,0-6.8,0-10.1c0-0.4,0.1-0.6,0.6-0.6c1.1,0,2.1,0,3.2,0
		c0.3,0,0.5,0.1,0.5,0.5c0,3.5,0,6.9,0,10.4c0,0.1-0.2,0.4-0.3,0.4C115.5,22.4,114.2,22.4,112.9,22.4z"/>
	<path class="st1" d="M17.2,16.9c0,1.7,0,3.3,0,5c0,0.4-0.1,0.5-0.5,0.5c-1.1,0-2.1,0-3.2,0c-0.4,0-0.5-0.1-0.5-0.5
		c0-3.4,0-6.8,0-10.1c0-0.3,0.1-0.5,0.5-0.5c1.1,0,2.2,0,3.3,0c0.4,0,0.5,0.2,0.5,0.5C17.2,13.5,17.2,15.2,17.2,16.9z"/>
	<path class="st1" d="M69.9,16.8c0,1.7,0,3.3,0,5c0,0.6,0,0.6-0.6,0.6c-1,0-2,0-3.1,0c-0.4,0-0.5-0.1-0.5-0.5c0-3.4,0-6.9,0-10.3
		c0-0.4,0.1-0.5,0.5-0.5c1.1,0,2.2,0,3.2,0c0.4,0,0.5,0.1,0.5,0.5C69.9,13.4,69.9,15.1,69.9,16.8z"/>
	<path class="st1" d="M79.8,16.9c0,1.7,0,3.4,0,5.1c0,0.3-0.1,0.5-0.4,0.5c-1.1,0-2.2,0-3.3,0c-0.3,0-0.4-0.1-0.4-0.4
		c0-3.4,0-6.9,0-10.3c0-0.4,0.2-0.5,0.5-0.5c1.1,0,2.1,0,3.2,0c0.4,0,0.5,0.1,0.5,0.5C79.8,13.4,79.8,15.2,79.8,16.9z"/>
	<path class="st1" d="M93.8,16.9c0,1.7,0,3.4,0,5.1c0,0.4-0.1,0.5-0.5,0.5c-1.1,0-2.2,0-3.2,0c-0.4,0-0.5-0.1-0.5-0.5
		c0-3.4,0-6.9,0-10.3c0-0.3,0.1-0.5,0.4-0.5c1.1,0,2.2,0,3.3,0c0.4,0,0.5,0.1,0.5,0.5C93.8,13.4,93.8,15.2,93.8,16.9z"/>
	<path class="st1" d="M126.9,16.8c0-1.7,0-3.4,0-5.1c0-0.4,0.1-0.5,0.5-0.5c1.1,0,2.1,0,3.2,0c0.4,0,0.5,0.1,0.5,0.5
		c0,3.4,0,6.9,0,10.3c0,0.3-0.1,0.4-0.4,0.4c-1.1,0-2.2,0-3.2,0c-0.4,0-0.5-0.1-0.5-0.5C126.9,20.3,126.9,18.5,126.9,16.8z"/>
	<path class="st1" d="M4.4,16.8c0,1.7,0,3.3,0,5c0,0.4-0.1,0.5-0.5,0.5c-1.1,0-2.2,0-3.2,0c-0.3,0-0.5-0.1-0.5-0.5
		c0-3.4,0-6.8,0-10.2c0-0.3,0.1-0.4,0.4-0.4c1.1,0,2.2,0,3.3,0c0.4,0,0.4,0.1,0.4,0.5C4.4,13.4,4.4,15.1,4.4,16.8z"/>
	<path class="st1" d="M112.9,5.6c0-1.3,0-2.7,0-4c0-0.4,0.1-0.5,0.5-0.5c1.1,0,2.2,0,3.3,0c0.4,0,0.5,0.1,0.5,0.5c0,2.7,0,5.4,0,8.1
		c0,0.4-0.1,0.5-0.5,0.5c-1.1,0-2.2,0-3.2,0c-0.4,0-0.5-0.1-0.5-0.5C112.9,8.3,112.9,6.9,112.9,5.6z"/>
	<path class="st1" d="M47.2,5.6c0-1.3,0-2.7,0-4c0-0.4,0.1-0.5,0.5-0.5c1.1,0,2.1,0,3.2,0c0.3,0,0.5,0.1,0.5,0.4c0,2.7,0,5.4,0,8.1
		c0,0.4-0.1,0.5-0.5,0.5c-1.1,0-2.2,0-3.2,0c-0.4,0-0.5-0.2-0.5-0.5C47.3,8.3,47.2,7,47.2,5.6z"/>
	<path class="st1" d="M69.9,5.7c0,1.3,0,2.6,0,3.9c0,0.4-0.1,0.6-0.5,0.6c-1,0-2.1,0-3.1,0c-0.4,0-0.5-0.1-0.5-0.5
		c0-2.7,0-5.4,0-8.1c0-0.4,0.1-0.4,0.5-0.4c1.1,0,2.2,0,3.2,0c0.4,0,0.5,0.1,0.5,0.5C69.9,2.9,69.9,4.3,69.9,5.7z"/>
	<path class="st1" d="M98.8,29.7c0.1,0,0.1,0,0.2,0c1.5,0,1.5,0,2.2,1.3c0.3,0.6,0.6,1.1,0.9,1.7c0.5-0.9,0.9-1.8,1.4-2.7
		c0.1-0.3,0.3-0.4,0.6-0.4c0.4,0,0.8,0,1.3,0c-0.1,0.2-0.1,0.3-0.2,0.4c-0.7,1.2-1.4,2.5-2,3.7c-0.1,0.3-0.2,0.6-0.2,0.9
		c0,0.8,0,1.6,0,2.4c-0.5,0-1,0-1.6,0c0-0.7,0-1.4,0-2.1c0-0.5-0.1-0.9-0.3-1.3C100.2,32.3,99.6,31,98.8,29.7z"/>
	<path class="st1" d="M80.5,31c-0.7,0-1.3,0-2,0c0,2,0,4,0,6c-0.6,0-1,0-1.6,0c0-2,0-4,0-6c-0.7,0-1.3,0-2,0c0-0.5,0-0.9,0-1.3
		c1.8,0,3.7,0,5.5,0C80.5,30.1,80.5,30.5,80.5,31z"/>
	<path class="st1" d="M54.1,29.7c0.5,0,1,0,1.5,0c0,2.4,0,4.9,0,7.3c-0.5,0-1,0-1.5,0C54.1,34.6,54.1,32.2,54.1,29.7z"/>
</g>
</svg>
