<?xml version="1.0" encoding="utf-8"?>
<!-- Generator: Adobe Illustrator 25.2.3, SVG Export Plug-In . SVG Version: 6.00 Build 0)  -->
<svg version="1.1" id="_Layer_" xmlns="http://www.w3.org/2000/svg" xmlns:xlink="http://www.w3.org/1999/xlink" x="0px" y="0px"
	 viewBox="0 0 150 150" style="enable-background:new 0 0 150 150;" xml:space="preserve">
<style type="text/css">
	.st0{fill:none;}
	.st1{fill:#FFFFFF;}
	.st2{fill:#FF6E00;}
	.st3{fill:#6414E6;}
	.st4{fill:#19BEE6;}
	.st5{fill:#E619DC;}
	.st6{fill-rule:evenodd;clip-rule:evenodd;fill:#FFFFFF;}
	.st7{fill:#E61973;}
	.st8{fill:#FFB919;}
	.st9{fill:#1987E6;}
	.st10{fill:#FF4B00;}
	.st11{fill:#14E691;}
	.st12{fill:#FF1928;}
</style>
<rect y="0" class="st0" width="150" height="150"/>
<g>
	<rect y="0" class="st0" width="150" height="150"/>
	<path class="st1" d="M2.1,114.7v-10h6.2v1.3h1.2v3.7H8.4v1.3H4.6v3.7H2.1z M7.1,108.5v-1.2H4.6v1.2H7.1z"/>
	<path class="st1" d="M12.1,114.7v-1.2h-1.2V106h1.2v-1.2h5v1.2h1.2v7.5h-1.2v1.2H12.1z M15.8,112.2v-5h-2.5v5H15.8z"/>
	<path class="st1" d="M20.8,114.7v-1.2h-1.2V106h1.2v-1.2h5v1.2H27v2.5h-2.5v-1.2H22v5h2.5V111H27v2.5h-1.2v1.2H20.8z"/>
	<path class="st1" d="M28.3,114.7v-10h2.5v3.7h2.5v-3.7h2.5v3.7h-1.2v2.6h1.2v3.7h-2.5V111h-2.5v3.7H28.3z"/>
	<path class="st1" d="M37,114.7v-10h7.5v2.5h-5v1.2h3.7v2.6h-3.7v1.2h5v2.5L37,114.7z"/>
	<path class="st1" d="M48.2,114.7v-7.5h-2.5v-2.5h7.5v2.5h-2.5v7.5H48.2z"/>
	<path class="st1" d="M58.2,114.7v-1.2H57V106h1.2v-1.2h5v2.5h-3.7v5H62V111h-1.2v-2.5h3.7v5h-1.2v1.2H58.2z"/>
	<path class="st1" d="M65.7,114.7V106h1.2v-1.2h5v1.2h1.2v8.7h-2.5v-2.5h-2.5v2.5H65.7z M70.7,109.7v-2.5h-2.5v2.5H70.7z"/>
	<path class="st1" d="M74.4,114.7v-10h1.2v1.3h1.2v1.2H78v1.2h1.2v-1.2h1.2V106h1.2v-1.2h1.2v10h-2.5V111h-1.2v1.2h-1.2V111h-1.2
		v3.7H74.4z"/>
	<path class="st1" d="M84.3,114.7v-10h7.5v2.5h-5v1.2h3.7v2.6h-3.7v1.2h5v2.5L84.3,114.7z"/>
	<path class="st1" d="M93.1,114.7v-2.5h5V111h-3.7v-1.2h-1.2V106h1.2v-1.2h6.2v2.5h-5v1.2h3.7v1.2h1.2v3.7h-1.2v1.2L93.1,114.7z"/>
	<path class="st1" d="M104.3,114.7v-2.5h5V111h-3.7v-1.2h-1.2V106h1.2v-1.2h6.2v2.5h-5v1.2h3.7v1.2h1.2v3.7h-1.2v1.2L104.3,114.7z"
		/>
	<path class="st1" d="M114.2,114.7v-1.2H113V106h1.2v-1.2h5v1.2h1.2v7.5h-1.2v1.2H114.2z M118,112.2v-5h-2.5v5H118z"/>
	<path class="st1" d="M121.7,114.7v-10h7.5v2.5h-5v1.2h3.7v2.6h-3.7v3.7L121.7,114.7z"/>
	<path class="st1" d="M132.9,114.7v-7.5h-2.5v-2.5h7.5v2.5h-2.5v7.5H132.9z"/>
	<rect x="52.2" y="35.3" class="st2" width="5.4" height="5.4"/>
	<rect x="2.1" y="41.6" class="st3" width="5.4" height="5.4"/>
	<rect x="8.4" y="91.6" class="st4" width="5.4" height="5.4"/>
	<rect x="39.7" y="79.1" class="st5" width="5.4" height="5.4"/>
	<path class="st6" d="M20.1,35.3h-5.4v5.4h5.4V35.3z M13.8,35.3H8.4v5.4h5.4C13.8,40.7,13.8,35.3,13.8,35.3z M20.9,40.7h5.4v-5.4
		h-5.4V40.7z M32.6,35.3h-5.4v5.4h5.4V35.3z M38.8,35.3h-5.4v5.4h5.4V35.3z M51.3,35.3h-5.4v5.4h5.4V35.3z M8.4,47h5.4v-5.4H8.4V47z
		 M2.1,53.2h5.4v-5.4H2.1V53.2z M8.4,53.2h5.4v-5.4H8.4V53.2z M2.1,59.5h5.4v-5.4H2.1V59.5z M8.4,59.5h5.4v-5.4H8.4V59.5z M2.1,65.8
		h5.4v-5.4H2.1V65.8z M8.4,65.8h5.4v-5.4H8.4V65.8z M2.1,72h5.4v-5.4H2.1V72z M8.4,72h5.4v-5.4H8.4V72z M2.1,78.3h5.4v-5.4H2.1V78.3
		z M8.4,78.3h5.4v-5.4H8.4V78.3z M2.1,84.5h5.4v-5.4H2.1V84.5z M8.4,84.5h5.4v-5.4H8.4V84.5z M14.6,78.3H20v-5.4h-5.4V78.3z
		 M14.6,84.5H20v-5.4h-5.4V84.5z M20.9,78.3h5.4v-5.4h-5.4V78.3z M20.9,84.5h5.4v-5.4h-5.4V84.5z M27.1,78.3h5.4v-5.4h-5.4V78.3z
		 M27.1,84.5h5.4v-5.4h-5.4V84.5z M33.4,78.3h5.4v-5.4h-5.4V78.3z M33.4,84.5h5.4v-5.4h-5.4V84.5z M45.9,78.3h5.4v-5.4h-5.4V78.3z
		 M2.1,90.8h5.4v-5.4H2.1V90.8z M2.1,97h5.4v-5.4H2.1V97z M8.4,90.8h5.4v-5.4H8.4V90.8z M14.6,47H20v-5.4h-5.4V47z M20.9,47h5.4
		v-5.4h-5.4V47z M27.1,47h5.4v-5.4h-5.4V47z M33.4,47h5.4v-5.4h-5.4V47z M39.7,40.7h5.4v-5.4h-5.4V40.7z M39.7,78.3h5.4v-5.4h-5.4
		V78.3z M39.7,47h5.4v-5.4h-5.4V47z M45.9,47h5.4v-5.4h-5.4V47z M52.2,47h5.4v-5.4h-5.4V47z M45.9,53.2h5.4v-5.4h-5.4V53.2z
		 M52.2,53.2h5.4v-5.4h-5.4V53.2z M58.4,47.8v5.4h5.4v-5.4H58.4z M52.2,59.5h5.4v-5.4h-5.4V59.5z M58.4,59.5h5.4v-5.4h-5.4V59.5z
		 M52.2,65.8h5.4v-5.4h-5.4V65.8z M58.4,65.8h5.4v-5.4h-5.4V65.8z M52.2,72h5.4v-5.4h-5.4V72z M52.2,78.3h5.4v-5.4h-5.4V78.3z
		 M45.9,72h5.4v-5.4h-5.4V72z M58.4,72h5.4v-5.4h-5.4V72z"/>
	<path class="st6" d="M76.2,59.5h5.4v-5.4h-5.4V59.5z M76.2,65.7h5.4v-5.4h-5.4V65.7z M76.2,72h5.4v-5.4h-5.4V72z M76.2,78.2h5.4
		v-5.4h-5.4V78.2z M76.2,84.5h5.4v-5.4h-5.4V84.5z M82.4,53.2h5.4v-5.4h-5.4V53.2z M82.4,47h5.4v-5.4h-5.4V47z M88.7,53.2h5.4v-5.4
		h-5.4V53.2z M88.7,47h5.4v-5.4h-5.4V47z M100.4,41.6H95V47h5.4V41.6z M95,40.7h5.4v-5.4H95V40.7z M101.2,47h5.4v-5.4h-5.4V47z
		 M101.2,40.7h5.4v-5.4h-5.4V40.7z M107.5,47h5.4v-5.4h-5.4V47z M112.9,35.3h-5.4v5.4h5.4V35.3z M119.1,41.6h-5.4V47h5.4V41.6z
		 M113.7,40.7h5.4v-5.4h-5.4V40.7z M82.4,59.5h5.4v-5.4h-5.4V59.5z M82.4,65.7h5.4v-5.4h-5.4V65.7z M82.4,72h5.4v-5.4h-5.4V72z
		 M107.4,65.7h5.4v-5.4h-5.4V65.7z M107.4,72h5.4v-5.4h-5.4V72z M119.1,60.3h-5.4v5.4h5.4V60.3z M119.1,66.6h-5.4V72h5.4V66.6z
		 M120,65.7h5.4v-5.4H120V65.7z M120,72h5.4v-5.4H120V72z M120,84.5h5.4v-5.4H120V84.5z M126.2,65.8h5.4v-5.4h-5.4
		C126.2,60.4,126.2,65.8,126.2,65.8z M126.2,72h5.4v-5.4h-5.4C126.2,66.6,126.2,72,126.2,72z M120,47h5.4v-5.4H120V47z M120,53.2
		h5.4v-5.4H120V53.2z M126.2,47h5.4v-5.4h-5.4C126.2,41.6,126.2,47,126.2,47z M126.2,53.2h5.4v-5.4h-5.4
		C126.2,47.8,126.2,53.2,126.2,53.2z M82.4,78.2h5.4v-5.4h-5.4V78.2z M82.4,84.5h5.4v-5.4h-5.4V84.5z M88.7,84.5h5.4v-5.4h-5.4V84.5
		z M88.7,90.8h5.4v-5.4h-5.4V90.8z M88.7,97h5.4v-5.4h-5.4V97z M100.4,85.3H95v5.4h5.4V85.3z M95,97h5.4v-5.4H95V97z M101.2,90.8
		h5.4v-5.4h-5.5L101.2,90.8z M101.2,97h5.4v-5.4h-5.5L101.2,97z M107.5,90.8h5.4v-5.4h-5.4V90.8z M107.5,97h5.4v-5.4h-5.4V97z
		 M119.2,85.3h-5.4v5.4h5.4V85.3z M113.7,97h5.4v-5.4h-5.4V97z M120,90.8h5.4v-5.4H120V90.8z M126.2,90.8h5.4v-5.4h-5.4
		C126.2,85.4,126.2,90.8,126.2,90.8z M126.2,78.2h5.4v-5.4h-5.4C126.2,72.8,126.2,78.2,126.2,78.2z M126.2,84.5h5.4v-5.4h-5.4
		C126.2,79.1,126.2,84.5,126.2,84.5z M132.5,66.6V72h5.4v-5.4H132.5z M132.5,78.2h5.4v-5.4h-5.4V78.2z"/>
	<rect x="76.2" y="47.8" class="st7" width="5.4" height="5.4"/>
	<rect x="88.7" y="35.3" class="st8" width="5.4" height="5.4"/>
	<rect x="82.4" y="85.3" class="st9" width="5.4" height="5.4"/>
	<rect x="120" y="91.6" class="st10" width="5.4" height="5.4"/>
	<rect x="132.5" y="60.3" class="st11" width="5.4" height="5.4"/>
	<rect x="132.5" y="79.1" class="st12" width="5.4" height="5.4"/>
	<path class="st1" d="M141.5,109v-3.6h-1.1v-0.6h2.8v0.6h-1v3.6H141.5z M143.7,109v-4.2h0.7l1.4,2.7l1.3-2.7h0.7v4.2h-0.6v-2.9
		l-1,2.1h-0.7l-1.1-2.2v3H143.7z"/>
</g>
</svg>
