<?xml version="1.0" encoding="utf-8"?>
<!-- Generator: Adobe Illustrator 26.0.3, SVG Export Plug-In . SVG Version: 6.00 Build 0)  -->
<svg version="1.1" id="Layer_1" xmlns="http://www.w3.org/2000/svg" xmlns:xlink="http://www.w3.org/1999/xlink" x="0px" y="0px"
	 viewBox="0 0 150 54" style="enable-background:new 0 0 150 54;" xml:space="preserve">
<style type="text/css">
	.st0{fill:#2185C7;}
	.st1{fill:#FFFFFF;}
	.st2{fill:#ED1F24;}
</style>
<g>
	<g>
		<path class="st0" d="M133.9,16.7c-0.1-2-0.8-4-2.2-5.5c-1.5-1.7-3.7-2.6-5.9-2.9H92c-4.9,0.6-9.4,3.9-11.6,8.4v0
			c-21.2,0-42.3,0-63.5,0c-3.4,0-6.5,2.7-7.2,6c-0.7,2.9-1.6,5.8-2.2,8.8v1.5c0.2,1.1,0.6,2.2,1.4,3c1.1,1.1,2.6,1.4,4.1,1.4h61.5
			c0.1,2,0.9,4,2.3,5.5c1.4,1.6,3.6,2.5,5.7,2.7h33.4c5.1-0.4,9.7-3.7,12-8.2L133.9,16.7z"/>
		<path class="st0" d="M135.5,14.2c0.3,0.2,0.6,0.3,0.9,0.4c0.3,0.1,0.6,0.1,1,0.1c0.4,0,0.9-0.2,1.2-0.5c0.3-0.2,0.5-0.5,0.7-0.8
			c0.2-0.4,0.4-0.9,0.3-1.4c0-0.3-0.1-0.7-0.3-1c-0.1-0.3-0.3-0.6-0.6-0.8c-0.3-0.3-0.7-0.5-1.1-0.6c-0.3,0-0.5-0.1-0.8,0
			c-0.4,0-0.8,0.2-1.1,0.3c-0.3,0.2-0.7,0.5-0.9,0.9c-0.2,0.3-0.3,0.8-0.4,1.2c0,0.5,0.1,1,0.3,1.4C135,13.7,135.2,14,135.5,14.2
			L135.5,14.2z M135,11.9c0-0.4,0.2-0.7,0.4-1c0.2-0.3,0.5-0.5,0.9-0.7c0.2-0.1,0.4-0.1,0.6-0.1c0.3,0,0.6,0,0.8,0.1
			c0.3,0.1,0.6,0.3,0.9,0.6c0.3,0.3,0.4,0.6,0.5,1c0,0.3,0,0.7-0.1,1c-0.1,0.3-0.2,0.5-0.4,0.7c-0.2,0.2-0.4,0.3-0.6,0.4
			c-0.3,0.1-0.7,0.2-1.1,0.2c-0.4,0-0.8-0.2-1.1-0.5c-0.3-0.2-0.4-0.6-0.6-0.9C135,12.5,135,12.2,135,11.9L135,11.9z M136.6,13.4
			c0-0.3,0-0.7,0-1h0.3c0,0,0.1,0,0.2,0s0.1,0.1,0.1,0.2c0,0.1,0.1,0.2,0.1,0.2c0.1,0.2,0.2,0.4,0.3,0.6h0.7
			c-0.1-0.2-0.2-0.5-0.4-0.7c0-0.1-0.1-0.3-0.2-0.4c-0.1-0.1-0.2-0.1-0.2-0.1c0,0,0.1,0,0.1,0c0.1,0,0.2-0.2,0.3-0.3
			s0.1-0.2,0.1-0.3s0-0.2,0-0.3c0-0.1-0.1-0.2-0.1-0.2c-0.1-0.1-0.3-0.2-0.4-0.2c-0.1,0-0.3,0-0.4,0c-0.3,0-0.7,0-1,0v2.7
			C136.1,13.4,136.4,13.4,136.6,13.4L136.6,13.4z M136.6,11.3h0.3c0.1,0,0.2,0,0.3,0c0,0,0.1,0.1,0.1,0.1c0,0.1,0,0.2,0,0.2
			c0,0.1,0,0.2-0.1,0.2c-0.1,0-0.2,0.1-0.3,0.1c-0.1,0-0.2,0-0.3,0C136.6,11.7,136.6,11.5,136.6,11.3z"/>
		<path class="st0" d="M128,37.4c2.3-0.1,4.7,0.3,7-0.4c2.5-0.9,4.5-3,5.2-5.7c0.7-2.9,1.6-5.7,2.3-8.6v-1.5
			c-0.2-1.6-1.2-3.1-2.7-3.9c-1.8-1-3.9-0.5-5.9-0.6L128,37.4z"/>
	</g>
	<path class="st1" d="M22,29.6c-1,0.1-2.1,0-3.1,0c-0.3,1-0.6,2-0.9,3c-1.1,0-2.1,0-3.2,0c1.3-4.1,2.6-8.3,3.9-12.4
		c2.2,0,4.3,0,6.5,0c1.2,0,2.2,1.1,2,2.3c-0.2,1.3-0.7,2.5-1.1,3.7C25.5,28.1,23.8,29.5,22,29.6z M25.3,32.7
		c1.3-4.1,2.6-8.2,3.8-12.3c1.1,0,2.1,0,3.2,0c-0.9,3.1-1.9,6.2-2.9,9.3h3c0.3-1.1,0.7-2.1,1-3.1h3.2c-0.6,2.1-1.3,4.2-2,6.2
		C31.5,32.7,28.5,32.7,25.3,32.7L25.3,32.7z M48.1,23.5c-0.9,3.1-1.9,6.1-2.9,9.2c-1.1,0-2.1,0-3.2,0c0.3-1,0.6-2,0.9-3
		c-1,0-2,0-3,0c-0.3,1-0.6,2-0.9,3c-1.1,0-2.1,0-3.2,0c0.9-3,1.9-6,2.9-9c0.5-1.8,2.3-3.4,4.3-3.3c1.1,0,2.3,0,3.4,0
		C47.9,20.5,48.6,22.2,48.1,23.5L48.1,23.5z M58,26.4c-0.6,1.8-2.3,3-4.1,3.2c-0.3,1-0.6,2-0.9,3c-1.1,0-2.1,0-3.2,0
		c0.3-1,0.6-2,0.9-3c-0.7-0.2-1.4-0.3-1.8-0.9c-0.5-0.7-0.4-1.7-0.2-2.5c0.6-2,1.2-3.9,1.8-5.9c1.1,0,2.1,0,3.2,0
		c-0.7,2.1-1.3,4.1-2,6.2h3c0.7-2.1,1.3-4.2,2-6.2h3.2C59.3,22.3,58.6,24.4,58,26.4L58,26.4z M61.6,20.6h4.1
		c-0.4,1.2-0.9,2.4-1.2,3.6c-1.4,0-2.7,0-4.1,0C60.8,23,61.2,21.8,61.6,20.6L61.6,20.6z M73.1,27.4c-0.5,1.8-1,3.5-1.5,5.3
		c-1.1,0-2.1,0-3.2,0c0.5-1.9,1.1-3.7,1.6-5.6c-1,0-2,0-3,0c-0.6,1.8-1.1,3.7-1.6,5.6c-1.1,0-2.1,0-3.2,0c0.5-1.8,1-3.6,1.6-5.4
		c0.5-1.9,2.3-3.4,4.3-3.3c1.1,0,2.2,0,3.2,0c0.7,0,1.4,0.4,1.7,1.1C73.5,25.8,73.3,26.6,73.1,27.4L73.1,27.4z"/>
	<path class="st2" d="M91.6,42.3c-2.7,0-5.5,0-8.2,0c-1.8,0-3.7-0.8-4.7-2.3c-1-1.6-1.1-3.6-0.5-5.3c1.5-4.9,3.1-9.8,4.6-14.7
		c1.3-4.8,6.1-8.6,11.1-8.3c4.5,0,9.1,0,13.6,0c-0.8,2.5-1.6,5.1-2.4,7.6c-4.8,0-9.6,0-14.3,0c-1.6,5.1-3.3,10.3-4.9,15.5h7.6
		c0.4-1.3,0.8-2.7,1.2-4c-1.3,0-2.6,0-3.8,0c0.8-2.5,1.6-5,2.3-7.5h11c-1.2,3.9-2.4,7.8-3.7,11.7C99.3,38.8,95.7,42,91.6,42.3
		L91.6,42.3z M125.8,33.9c-1.3,4.9-6.2,8.7-11.3,8.5c-2.3,0-4.6,0-6.8,0c-1.7-0.1-3.5-0.9-4.4-2.3c-1.1-1.6-1.2-3.6-0.6-5.4
		c1.6-5,3.1-10.1,4.7-15.1c1.1-4,4.6-7.1,8.6-8.1c2.4-0.4,4.9-0.1,7.3-0.2c1.9,0,4-0.1,5.5,1.2c1.9,1.5,2.4,4.2,1.7,6.4
		C128.9,23.8,127.3,28.8,125.8,33.9L125.8,33.9z"/>
	<path class="st0" d="M115.4,19.3c-1.6,5.1-3.2,10.3-4.8,15.4h6.9c1.6-5.1,3.2-10.3,4.8-15.4C120.1,19.3,117.7,19.3,115.4,19.3z
		 M19.8,26.5h3c0.3-1,0.7-2.1,1-3.1c-1,0-2,0-3,0C20.4,24.4,20.1,25.5,19.8,26.5z M41,26.5h3c0.3-1,0.7-2.1,1-3.1c-1,0-2,0-3,0
		C41.7,24.4,41.3,25.5,41,26.5z"/>
</g>
</svg>
