<svg id="_Layer_" data-name=" Layer " xmlns="http://www.w3.org/2000/svg" viewBox="0 0 150 150"><defs><style>.cls-1{fill:none;}.cls-2{fill:#f19021;}.cls-3{fill:#fff;}</style></defs><rect class="cls-1" width="150" height="150"/><path class="cls-2" d="M81.85,58.44c-16.23,1-8.94,22.16,9,21C108.42,78.39,99.15,57.37,81.85,58.44Z"/><path class="cls-2" d="M75,45.38a52.31,52.31,0,1,0,52.31,52.31h0A52.31,52.31,0,0,0,75,45.38Zm0,99.14a46.82,46.82,0,1,1,46.81-46.83h0A46.83,46.83,0,0,1,75,144.52ZM73.42,8.86C61,18.25,63.16,32.65,63.16,32.65S55.36,12.39,45.22,0c-1.37,15.94,3.63,37.07,3.63,37.07S42.5,24,27,23.24C39.85,30.65,44.85,44,46,47.59a52.13,52.13,0,0,1,25.51-7.72C70.49,36.54,66.87,22.48,73.42,8.86Z"/><path class="cls-3" d="M39.52,102.82v11H35V85.56h9.57q4.88,0,7.33,2.32a8.28,8.28,0,0,1,2.47,6.35,8.05,8.05,0,0,1-2.51,6.29q-2.52,2.3-7.27,2.3Zm10.21-8.59a4.8,4.8,0,0,0-1.34-3.66,6.05,6.05,0,0,0-4.28-1.25H39.52V99.1h4.56C47.84,99.1,49.73,97.48,49.73,94.23Zm12.45,16h9.75v3.56H57.62V85.56h4.56Zm30.6-2.56H80.88l-2.17,6.12H73.84L84.23,86h5.24l10.35,27.77H94.94Zm-1.28-3.51L86.83,91l-4.68,13.18Zm26.6-18.58-9.39,17.94v10.27h-4.58V103.5L94.7,85.56H100l6.47,13.07,6.47-13.07Z"/></svg>