<svg id="Layer_1" data-name="Layer 1" xmlns="http://www.w3.org/2000/svg" viewBox="0 0 150 54"><defs><style>.cls-1{fill:none;}.cls-2{fill:#fff;}</style></defs><rect class="cls-1" y="-48" width="150" height="150"/><path class="cls-2" d="M14.93,44a4.1,4.1,0,0,1-1.31,3.42,3.18,3.18,0,0,1-2.35.65,3.7,3.7,0,0,1-3-1.44,4.73,4.73,0,0,1-.93-2.88,4.81,4.81,0,0,1,1-3.28,6.93,6.93,0,0,1,1.18-1A3.37,3.37,0,0,1,11.24,39a9,9,0,0,1,1.84.27,1.9,1.9,0,0,1,1.18.79.51.51,0,0,1,.13.39.43.43,0,0,1-.13.38.49.49,0,0,1-.39.14.42.42,0,0,1-.38-.14,9.21,9.21,0,0,0-.93-.65,3,3,0,0,0-1.18-.27,2.53,2.53,0,0,0-2.22,1.17,4.69,4.69,0,0,0-.65,2.36,4.39,4.39,0,0,0,1,3,2.2,2.2,0,0,0,1.56.66,4.39,4.39,0,0,0,1.31-.28,2.51,2.51,0,0,0,1.45-2.49V44H12.33a.48.48,0,0,1-.52-.52c0-.39.14-.52.52-.52h2c.39,0,.66.38.66.93V44Zm127.86,0a4.11,4.11,0,0,1-1.32,3.42,3.18,3.18,0,0,1-2.35.65,3.7,3.7,0,0,1-3-1.44,4.73,4.73,0,0,1-.93-2.88,4.81,4.81,0,0,1,1-3.28,6.93,6.93,0,0,1,1.18-1,3.39,3.39,0,0,1,1.7-.39,9,9,0,0,1,1.83.27,1.9,1.9,0,0,1,1.18.79.51.51,0,0,1,.13.39.43.43,0,0,1-.13.38.49.49,0,0,1-.39.14.44.44,0,0,1-.38-.14,9.21,9.21,0,0,0-.93-.65,3,3,0,0,0-1.18-.27A2.53,2.53,0,0,0,137,41.09a4.69,4.69,0,0,0-.65,2.36,4.39,4.39,0,0,0,1,3,2.22,2.22,0,0,0,1.56.66,4.39,4.39,0,0,0,1.31-.28,2.51,2.51,0,0,0,1.45-2.49V44h-1.56a.48.48,0,0,1-.52-.52c0-.39.13-.52.52-.52h2a.7.7,0,0,1,.79.79V44h-.13Zm-73.7,3.42c0,.52-.13.79-.52.79a.48.48,0,0,1-.52-.52l-1-7.22L64.9,47.66c-.13.27-.27.38-.52.38s-.52-.13-.52-.38l-2.1-7.22-1,7.22c0,.38-.27.52-.65.52a.6.6,0,0,1-.52-.66v-.27l1.31-7.47a.68.68,0,0,1,.27-.52,1,1,0,0,1,.52-.27c.27,0,.39,0,.52.13s.27.28.27.39l1.84,6.43,1.83-6.57c0-.13.14-.27.27-.38s.28-.14.52-.14.39,0,.53.14a.7.7,0,0,1,.27.52Zm20.47.13c0,.39-.14.66-.52.66s-.52-.14-.52-.52V39.8c0-.38.13-.52.52-.52s.52.14.52.52Zm26.35,0c0,.39-.13.52-.52.52s-.38-.13-.66-.38L110,41v6.43c0,.39-.13.52-.52.52s-.52-.13-.52-.52V39.55c0-.38.14-.52.39-.52s.38.14.65.39l4.6,6.68V39.64a.42.42,0,0,1,.14-.38.46.46,0,0,1,.38-.14c.39,0,.52.14.52.52V47.5h.25Zm-75,.14c0,.27-.13.38-.52.38a.44.44,0,0,1-.38-.13c-.14,0-.14,0-.14-.14l-.52-1.56H35.27l-.8,1.56c-.13.27-.27.39-.52.39s-.52-.14-.52-.39V47.5l2.88-7.61c.13-.27.13-.38.27-.52a.49.49,0,0,1,.38-.13.93.93,0,0,1,.52.13.69.69,0,0,1,.28.52l2.87,7.61c.27,0,.27.16.27.16m-2-2.49-1.69-4.85L35.4,45.17Zm82-39.35a3.53,3.53,0,1,1-3.53,3.53,3.53,3.53,0,0,1,3.53-3.53Zm22,3.55a3.53,3.53,0,1,1-3.53-3.53A3.51,3.51,0,0,1,142.92,9.37Zm-22,13.77a3.53,3.53,0,1,1-3.53,3.53A3.53,3.53,0,0,1,120.89,23.14Zm22,3.53a3.53,3.53,0,1,1-3.53-3.53A3.5,3.5,0,0,1,142.92,26.67ZM133.75,18a3.53,3.53,0,1,1-3.53-3.53A3.5,3.5,0,0,1,133.75,18Zm-22.3,11.41-9.82-23.2c-.14-.27-.28-.39-.53-.39H96.89c-.27,0-.38.14-.52.39l-10,23.2v.14c0,.27.14.38.39.38h4.46c.27,0,.38-.13.52-.38l2.1-5.37h10.48l2.11,5.37c.14.27.27.38.52.38h4.46c.27,0,.39-.13.39-.38-.25,0-.25-.14-.39-.14ZM95.33,20,99,10.69l3.67,9.3Zm-53.77-6.7A3.14,3.14,0,0,1,42.22,12a3.83,3.83,0,0,1,1.69-1.45A6.1,6.1,0,0,1,46.13,10h8.79a.56.56,0,0,0,.52-.52V6.34a.56.56,0,0,0-.52-.52H45.21c-5.37,0-9.72,4.71-9.72,10.48v3.44c0,5.78,4.33,10.49,9.72,10.49h9.71a.57.57,0,0,0,.52-.52V26.42a.56.56,0,0,0-.52-.52H46.13a5.65,5.65,0,0,1-2.22-.52,3.83,3.83,0,0,1-1.69-1.45,5.18,5.18,0,0,1-.66-1.31,9,9,0,0,1-.27-2.11V20H54.92a.56.56,0,0,0,.52-.52V16.19a.56.56,0,0,0-.52-.52H41.31V15.4s.11-1.18.25-2.11ZM71.72,30h8c.27,0,.38-.27.38-.52V26.15c0-.27-.13-.52-.38-.52H72.49a4.12,4.12,0,0,1-1.84-.52,4.23,4.23,0,0,1-1.45-1.45,2.15,2.15,0,0,1-.52-1.45v-16c0-.27-.13-.39-.38-.39H64.11a.56.56,0,0,0-.52.52v16A8,8,0,0,0,71.72,30m-43-.52L23.09,20c2.87-.65,4.84-2.62,4.84-6.95.14-5.77-3.8-7.08-8.65-7.22H7.6a.56.56,0,0,0-.52.52V29.55a.56.56,0,0,0,.52.52h4.19a.56.56,0,0,0,.52-.52V20.49h5.91l5.25,9.19a.71.71,0,0,0,.66.39h4.46c.27,0,.38-.14.38-.39-.25-.13-.25-.25-.25-.25ZM19.4,16.19l-1.32.14H12.2V10.17h7.2c2.76,0,3.53,1.31,3.53,3S22,16.19,19.4,16.19Z"/></svg>