<?xml version="1.0" encoding="UTF-8"?>
<svg id="Layer_1" data-name="Layer 1" xmlns="http://www.w3.org/2000/svg" xmlns:xlink="http://www.w3.org/1999/xlink" version="1.1" viewBox="0 0 300 300">
  <defs>
    <style>
      .cls-1 {
        fill: url(#linear-gradient);
      }

      .cls-1, .cls-2, .cls-3, .cls-4, .cls-5 {
        stroke-width: 0px;
      }

      .cls-2 {
        fill: url(#linear-gradient-4);
      }

      .cls-3 {
        fill: url(#linear-gradient-2);
      }

      .cls-4 {
        fill: url(#linear-gradient-3);
      }

      .cls-5 {
        fill: #fff;
      }
    </style>
    <linearGradient id="linear-gradient" x1="272.7" y1="204" x2="172" y2="117.7" gradientTransform="translate(0 302) scale(1 -1)" gradientUnits="userSpaceOnUse">
      <stop offset="0" stop-color="#ffd76e"/>
      <stop offset=".5" stop-color="#ff3dff"/>
      <stop offset=".8" stop-color="#a800ff"/>
    </linearGradient>
    <linearGradient id="linear-gradient-2" x1="133.9" y1="209.2" x2="13.7" y2="106.2" gradientTransform="translate(108 302) scale(1 -1) skewX(-10)" gradientUnits="userSpaceOnUse">
      <stop offset="0" stop-color="#ffd76e"/>
      <stop offset=".2" stop-color="#ff3dff"/>
      <stop offset=".9" stop-color="#a800ff"/>
    </linearGradient>
    <linearGradient id="linear-gradient-3" x1="62.6" y1="146.7" x2="35.2" y2="107.2" gradientTransform="translate(0 302) scale(1 -1)" gradientUnits="userSpaceOnUse">
      <stop offset="0" stop-color="#ffd83d"/>
      <stop offset=".2" stop-color="#ffd33d"/>
      <stop offset=".5" stop-color="#ffc440"/>
      <stop offset=".7" stop-color="#ffad45"/>
      <stop offset=".8" stop-color="#ffa347"/>
    </linearGradient>
    <linearGradient id="linear-gradient-4" x1="146.7" y1="216.9" x2="40.3" y2="139.5" gradientTransform="translate(0 302) scale(1 -1)" gradientUnits="userSpaceOnUse">
      <stop offset="0" stop-color="#ff3dff"/>
      <stop offset=".2" stop-color="#fa3dff"/>
      <stop offset=".3" stop-color="#eb3eff"/>
      <stop offset=".5" stop-color="#d440ff"/>
      <stop offset=".7" stop-color="#b343ff"/>
      <stop offset=".8" stop-color="#9347ff"/>
    </linearGradient>
  </defs>
  <g id="_圖層_1-2" data-name=" 圖層 1-2">
    <g>
      <g>
        <path class="cls-5" d="M98.2,213.4v.9c0,3,2.7,5.4,6,5.4h23.9c1.1,0,2.1.8,2.1,1.9v1.4c0,.3-.3.6-.7.6h-24.9c-5.7,0-10.3-4.1-10.3-9.3v-.9c0-5.1,4.6-9.3,10.3-9.3h24.9c.4,0,.7.3.7.6v1.4c0,1-.9,1.8-2.1,1.8h-23.9c-3.3,0-6,2.4-6,5.4h0Z"/>
        <path class="cls-5" d="M171.4,204.1h1.3c.4,0,.7.3.7.6v17c0,1-.9,1.9-2.1,1.9h-1.3c-.4,0-.7-.3-.7-.6v-6.9c0-.2-.2-.3-.3-.3h-27.3c-.2,0-.3.1-.3.3v5.6c0,1-.9,1.9-2.1,1.9h-1.3c-.4,0-.7-.3-.7-.6v-17c0-1,.9-1.9,2.1-1.9h1.3c.4,0,.7.3.7.6v6.9c0,.2.2.3.3.3h27.3c.2,0,.3-.1.3-.3v-5.6c0-1,.9-1.9,2.1-1.9Z"/>
        <path class="cls-5" d="M85.2,204.1h1.2c.4,0,.7.3.7.6v16.9c0,1-.9,1.9-2.1,1.9h-1.2c-.4,0-.7-.3-.7-.6v-16.9c0-1,.9-1.9,2.1-1.9Z"/>
        <path class="cls-5" d="M72.8,222.4c0,.6-.4,1.1-1.1,1.1h-1.8c-.9,0-1.8-.3-2.5-.8l-8.9-6.2c-.7-.5-1.6-.8-2.5-.8h-14.5c-.2,0-.3.1-.3.3v5.6c0,1-.9,1.8-2,1.8h-1.2c-.4,0-.7-.3-.7-.6v-8.8c0-1,.9-1.8,2-1.8h27.4c1.2,0,2.2-.9,2.1-2,0-1-1-2.2-2.2-2.2h-27.3c-1.1,0-2-.8-2-1.8v-1.4c0-.3.3-.6.7-.6h28.4c3.6,0,6.5,3,6.4,6.3-.1,3.1-3.1,5.2-6.5,5.2h-1.8c-.2,0-.3.2-.1.3l8,5.6c.2.2.4.4.5.7h0Z"/>
        <path class="cls-5" d="M220.4,218.2c0,3.2-3.1,5.8-6.7,5.8h-23c-3.6,0-6.7-2.6-6.7-5.8,0-1.6.7-3.5,1.8-4.5-1-1.1-1.6-2.3-1.5-3.8.2-3.1,3.2-5.5,6.7-5.5h22.3c3.5,0,6.5,2.4,6.7,5.5.1,1.6-.5,2.7-1.5,3.8,1.2,1.1,1.9,2.9,1.9,4.5h0ZM216.3,218.1c0-1.1-1-2.3-2.2-2.3h-23.9c-1.2,0-2.2,1.2-2.2,2.3,0,1.1,1.1,1.9,2.3,1.9,28.8,0-5.7,0,23.8,0s2.2-.8,2.3-1.9h0ZM188.4,210.1c0,1.1,1,2,2.2,2h23.2c1.2,0,2.2-.9,2.2-2,0-1.1-1.1-1.9-2.3-1.9h-23.1c-1.2,0-2.2.8-2.3,1.9h0Z"/>
        <path class="cls-5" d="M260.8,218.2c0,3.2-3.1,5.8-6.7,5.8h-23c-3.6,0-6.7-2.6-6.7-5.8,0-1.6.7-3.5,1.8-4.5-1-1.1-1.6-2.3-1.5-3.8.2-3.1,3.2-5.5,6.7-5.5h22.3c3.5,0,6.5,2.4,6.7,5.5.1,1.6-.5,2.7-1.5,3.8,1.2,1.1,1.9,2.9,1.9,4.5h0ZM256.8,218.1c0-1.1-1-2.3-2.2-2.3h-23.9c-1.2,0-2.2,1.2-2.2,2.3,0,1.1,1.1,1.9,2.3,1.9,28.8,0-5.7,0,23.8,0s2.2-.8,2.3-1.9h0ZM228.8,210.1c0,1.1,1,2,2.2,2h23.2c1.2,0,2.2-.9,2.2-2,0-1.1-1.1-1.9-2.3-1.9h-23.1c-1.2,0-2.2.8-2.3,1.9h0Z"/>
      </g>
      <path class="cls-1" d="M249.2,128l-4-2.2,3.1-2.6c6.3-5.3,9.8-12.5,9.9-20,0-7-2.9-13.6-8.2-18.7-5.8-5.4-13.6-8.4-22-8.4-17.2,0-31.2,12.5-31.3,27.8,0,7.4,3.3,14.4,9.3,19.6l1.5,1.1s-23.4,9.2-23.4,33.9h17c0-9.6,6.8-21.2,24.8-21.2s13.6,2.4,18.1,6.7c4.3,4.1,6.7,9.3,6.6,14.9,0,11.5-10.6,20.9-23.4,20.9s-3.1-.1-4.5-.4c-3-.5-6.1.8-7.8,3.2h0c-3.2,4.5-.3,10.6,5.4,11.5,2,.3,4,.4,6,.4,22.6,0,41.2-16.3,41.3-36.3,0-12.3-6.9-23.5-18.6-30.1h0ZM227.8,118.1c-4.4,0-8.5-1.6-11.6-4.5-3-2.8-4.7-6.6-4.7-10.5,0-7.9,7.1-14.3,15.7-14.3s8.5,1.6,11.6,4.5c3,2.8,4.7,6.6,4.6,10.5,0,7.9-7.1,14.3-15.7,14.3h0Z"/>
      <path class="cls-3" d="M159.9,194.4c-15.2,0-31.2-8.5-37.5-23.1-1.8-4.1-2.6-8.4-2.5-12.5,0-12.5,7.4-24,19.4-30.7l3.4-1.9-3.3-2.8c-6.1-5.2-9.4-12.1-9.3-19.6.1-15.3,14.2-27.8,31.3-27.8s16.2,3,22,8.4c5.4,5,8.3,11.7,8.2,18.7,0,7.6-3.6,14.7-9.9,20l-3.1,2.6,4,2.2c11.7,6.6,18.7,17.8,18.6,30.1-.1,20-18.6,36.3-41.3,36.3h0ZM160.3,137.2c-8.5,0-16.3,4.1-20.4,10.7-1.8,2.9-5.2,16.1,4,25.4,4.6,4.1,10.6,6.3,16.9,6.3,12.8,0,23.3-9.4,23.4-20.9,0-5.6-2.3-10.8-6.6-14.9-4.5-4.2-10.8-6.7-17.3-6.7h0ZM160.6,88.8c-8.6,0-15.6,6.4-15.7,14.3,0,3.9,1.6,7.6,4.7,10.5,3.1,2.9,7.2,4.5,11.6,4.5,8.6,0,15.7-6.4,15.7-14.3,0-3.9-1.6-7.6-4.6-10.5-3.1-2.9-7.2-4.5-11.6-4.5h0Z"/>
      <ellipse class="cls-4" cx="47.5" cy="177.1" rx="15.3" ry="14"/>
      <path class="cls-2" d="M106,192.5c-4.5,0-8.4-2.6-10.1-6.5l-23.2-56.1h9c10.1-.5,18.2-8.2,18.2-17.6s-8.6-17.6-19.2-17.6h-24.2v59.9c-2.8-1.3-5.8-2.1-9-2.1s-6.4.7-9.2,2.1v-76.5h42.4c20.6,0,37.4,15.3,37.4,34s-8,24.8-20.9,30.5l-.9.4,20.4,49.3h-10.7,0Z"/>
    </g>
  </g>
</svg>