<?xml version="1.0" encoding="utf-8"?>
<!-- Generator: Adobe Illustrator 27.6.1, SVG Export Plug-In . SVG Version: 6.00 Build 0)  -->
<svg version="1.1" id="Layer_1" xmlns="http://www.w3.org/2000/svg" xmlns:xlink="http://www.w3.org/1999/xlink" x="0px" y="0px"
	 viewBox="0 0 300 300" style="enable-background:new 0 0 300 300;" xml:space="preserve">
<style type="text/css">
	.st0{fill:#360608;}
	.st1{fill:#EE7C19;}
	.st2{fill:#F5E074;}
	.st3{fill:url(#SVGID_1_);}
	.st4{fill:url(#SVGID_00000121246472142429954710000007738442583326402236_);}
	.st5{fill:url(#SVGID_00000152236819557832853110000008570300484689485746_);}
	.st6{fill:url(#SVGID_00000109739643354594818770000008533187342340251058_);}
</style>
<image style="display:none;overflow:visible;" width="563" height="509" xlink:href="560949D499D93DC3.png"  transform="matrix(0.4327 0 0 0.4327 28.2084 39.89)">
</image>
<g>
	<path class="st0" d="M280.7,132c-1.4-3.2-4.5-5.4-8-5.6c-15-0.9-30.3-1.7-45.4-2.2c-0.7,0-1.3,0-2,0c-12.5,0-24.2,4.2-33.5,11.7
		c0.7-7.8-1.5-15.8-6.6-22.5c-4.3-5.7-8.6-11.4-12.9-17.1c-1.2-1.5-2.7-2.6-4.5-3.2c-0.1-1.8-0.8-3.7-1.9-5.2L157.8,77
		c-1.8-2.3-4.5-3.7-7.4-3.7c-2.9,0-5.6,1.4-7.4,3.7l-2.2,2.9c-8.3,10.9-16.8,22.2-25.3,33.4c-5.2,6.9-7.3,15.2-6.5,23.2
		c-9.4-8-21.5-12.4-34.3-12.4c-0.7,0-1.3,0-2,0c-15.1,0.6-30.4,1.3-45.4,2.2c-3.5,0.2-6.5,2.4-8,5.6c-1.4,3.2-1,7,1.1,9.8
		c6.5,8.5,13.1,17.2,20.3,26.3c2.4,3,4.7,6,7.1,9c6.6,8.4,13.8,17.4,22,27.5c1.1,1.3,2.5,2.3,4,2.9c0.3,1.6,0.9,3.2,2,4.6
		c3.1,3.8,6.2,7.6,9.2,11.3c1.8,2.2,4.4,3.4,7.2,3.4c0.2,0,0.5,0,0.7,0c15.5-1.2,31.2-1.9,46.7-2.1c3.4,0,6.8-0.1,10.2-0.1
		c3.4,0,6.8,0,10.2,0.1c15.5,0.2,31.3,0.9,46.7,2.1c0.2,0,0.5,0,0.7,0c2.8,0,5.4-1.3,7.2-3.4c3.1-3.8,6.2-7.5,9.2-11.3
		c1.1-1.3,1.8-2.9,2-4.6c1.5-0.6,2.9-1.5,4-2.9c8.2-10.1,15.4-19.1,22-27.5c2.4-3,4.7-6,7.1-9c2.2-2.8,2.6-6.5,1.3-9.8
		c0,0,0-0.1,0-0.1c0.4,0,0.9,0.1,1.3,0.1c0.2,0,0.4,0,0.6,0c2.9,0,5.6-1.3,7.3-3.6c3.4-4.3,6.7-8.7,9.9-12.9
		C281.7,138.9,282.1,135.2,280.7,132z"/>
	<g>
		<path class="st1" d="M224.2,196.6c-1.6-0.1-3.2-0.3-4.8-0.4c-4-0.3-8.1-0.6-12.1-0.8c-11.7-0.7-23.7-1.2-35.4-1.5
			c-3.3-0.1-6.6-0.1-9.9-0.2c-2.3,0-4.7-0.1-7-0.1c-0.7,0-1.4-0.4-1.7-1.1c-0.3-0.7-0.2-1.4,0.2-2c8.1-10.1,16.3-20.2,24.2-30
			c4.2-5.2,8.4-10.4,12.6-15.5c8.8-10.8,22.1-17.1,36.5-17.1c0.6,0,1.2,0,1.8,0c15.4,0.6,30.9,1.3,46.2,2.2c0.7,0,1.3,0.5,1.6,1.1
			c0.3,0.6,0.2,1.4-0.2,2c-3.3,4.2-6.6,8.5-10.1,12.9c-0.4,0.5-0.9,0.7-1.5,0.7c0,0-0.1,0-0.1,0c-11.9-0.8-24.1-1.5-36.1-2.1
			c-0.5,0-0.9,0-1.4,0c-8.9,0-17.5,4-22.9,10.6c-5.8,7.2-11.7,14.4-17.5,21.5l-0.7,0.9c0.6,0,1.3,0,1.9,0.1
			c8.2,0.3,16.4,0.7,24.6,1.2c1.4,0.1,2.8,0.2,4.2,0.3c3.1-3.8,6.3-7.7,9.4-11.5c-3.4-0.2-6.8-0.4-10.2-0.6c-1.5,1.9-3,3.8-4.6,5.7
			c-0.4,0.5-0.9,0.7-1.5,0.7c0,0-0.1,0-0.1,0c-4.6-0.2-9.3-0.5-13.9-0.6c-0.7,0-1.4-0.5-1.7-1.1c-0.3-0.7-0.2-1.4,0.2-2l4.7-5.9
			c0.1-0.2,0.2-0.4,0.3-0.6l3.2-4c3.7-4.6,9.7-5.2,14.4-5.2c2,0,3.9,0.1,5.9,0.2l0.9,0.1c4.4,0.2,8.9,0.5,13.3,0.8
			c5.6,0.4,11.3,0.7,16.9,1.2c0.7,0.1,1.3,0.5,1.6,1.1c0.3,0.6,0.2,1.4-0.3,2c-2.4,3-4.8,6-7.2,9c-6.8,8.4-14.1,17.3-22.4,27.4
			c-0.4,0.4-0.9,0.7-1.5,0.7C224.3,196.6,224.3,196.6,224.2,196.6z"/>
		<path class="st1" d="M75.6,196.6c-0.6,0-1.1-0.3-1.5-0.7c-8.3-10.1-15.7-19-22.4-27.4c-2.4-3-4.8-6-7.2-9
			c-7.3-9.2-14.1-17.7-20.7-26.2c-0.4-0.6-0.5-1.3-0.2-2c0.3-0.6,0.9-1.1,1.6-1.1c15.3-0.9,30.8-1.6,46.2-2.2c0.6,0,1.2,0,1.8,0
			c14.4,0,27.8,6.2,36.5,17.1c2.5,3,4.9,6.1,7.4,9.1l6.9,8.5c0.5,0.6,0.6,1.3,0.2,2c-0.3,0.7-1,1.1-1.7,1.1
			c-5.2,0.1-10.4,0.3-15.6,0.4c12.7,6.1,23,11.1,32.7,15.9c0.3,0.1,0.5,0.3,0.6,0.5c2.1,2.6,4.2,5.3,6.3,7.9c0.5,0.6,0.5,1.4,0.2,2
			c-0.3,0.7-1,1.1-1.7,1.1c-5.6,0-11.3,0.1-16.9,0.2c0,0,0,0,0,0c-0.3,0-0.7-0.1-1-0.3c-15.4-8.9-31-17.6-46.1-26l-0.9-0.5
			c-2.7-1.5-5.4-6.1-3.6-9.3c1-1.8,3.4-3.5,5.3-3.6c4.2-0.2,8.4-0.4,12.6-0.6c-5.4-5.6-13.2-8.9-21.3-8.9c-0.5,0-0.9,0-1.4,0
			c-5.1,0.2-10.3,0.5-15.5,0.8c2.8,3.5,5.5,6.9,8.3,10.4c2.4,3,4.8,6,7.2,8.9c6.5,7.9,13.4,16.4,22.4,27.4c0.5,0.6,0.6,1.3,0.3,2
			c-0.3,0.7-0.9,1.1-1.6,1.1c-5.6,0.3-11.3,0.7-16.9,1.2C75.7,196.6,75.7,196.6,75.6,196.6z"/>
		<path class="st1" d="M208.7,215.3c-15.9-1.2-32.2-1.9-48.2-2.1c-3.5,0-7-0.1-10.5-0.1c-3.5,0-7,0-10.5,0.1
			c-16,0.2-32.2,0.9-48.2,2.1c0,0-0.1,0-0.1,0c-0.6,0-1.1-0.2-1.5-0.7c-3.1-3.8-6.3-7.5-9.4-11.3c-0.5-0.5-0.6-1.3-0.3-2
			c0.3-0.7,0.9-1.1,1.6-1.2c22.3-1.7,44.9-2.6,67.3-2.7h2.3c22.4,0,45,0.9,67.3,2.7c0.7,0.1,1.3,0.5,1.6,1.2c0.3,0.7,0.2,1.4-0.3,2
			c-3.1,3.8-6.3,7.6-9.4,11.3c-0.4,0.4-0.9,0.7-1.5,0.7C208.8,215.3,208.7,215.3,208.7,215.3z"/>
		<path class="st1" d="M150.4,181c-0.6,0-1.1-0.3-1.5-0.7c-2.8-3.6-5.5-7.2-8.3-10.7c-0.5-0.7-0.5-1.6,0-2.3
			c5.1-6.7,10.2-13.3,15.3-20c3.3-4.3,6.6-8.5,10-12.8c2.5-3.2,2.5-7.4,0-10.6l-2.4-3.1c-6.8,8.8-13.5,17.6-20.3,26.4
			c0,0,0,0.1-0.1,0.1c-2.8,3.6-5.6,7.3-8.3,10.9c-0.4,0.5-0.9,0.7-1.5,0.8c0,0,0,0,0,0c-0.6,0-1.1-0.3-1.5-0.7l-10.8-13.8
			c-7-8.9-7-21,0-30.1c8.6-11.2,17.3-22.5,25.7-33.4l2.3-2.9c0.4-0.5,0.9-0.7,1.5-0.7l0,0c0.6,0,1.1,0.3,1.5,0.7l8.3,10.8
			c0.5,0.7,0.5,1.6,0,2.3l-8.3,10.8c-0.1,0.1-0.1,0.2-0.2,0.2c-5.6,7.2-11.2,14.5-16.8,21.7c-2.5,3.2-2.5,7.5,0,10.6l0.1,0.1
			c6.5-8.5,12.9-16.8,20.4-26.6l8.3-10.8c0.4-0.5,0.9-0.7,1.5-0.7c0,0,0,0,0,0c0.6,0,1.1,0.3,1.5,0.7c4.4,5.7,8.8,11.4,13.1,17.1
			c7,9.1,7,21.2,0,30.1l-4.7,6.1c-7.6,9.8-15.5,19.8-23.3,29.9C151.5,180.7,151,181,150.4,181L150.4,181z"/>
	</g>
	<g>
		<path class="st2" d="M228.6,141c12,0.6,24.1,1.2,36.1,2.1c3.3-4.2,6.7-8.5,10-12.9c-15.4-0.9-30.8-1.6-46.2-2.2
			c-14.5-0.5-28.1,5.6-36.7,16.3c-12.2,15.2-24.5,30.2-36.8,45.5c2.3,0,4.7,0,7,0.1c3.3,0,6.6,0.1,9.9,0.2
			c11.8,0.3,23.7,0.8,35.5,1.5c4,0.2,8.1,0.5,12.1,0.8c1.6,0.1,3.2,0.2,4.8,0.4c7.5-9,14.9-18.1,22.4-27.4c2.4-3,4.8-6,7.2-9
			c-5.6-0.4-11.2-0.8-16.9-1.2c-4.4-0.3-8.8-0.5-13.2-0.8c-7.2-0.4-15.3-1.1-19.6,4.2c-1.1,1.3-2.2,2.7-3.2,4c0,0,0.1,0,0.1,0
			c-1.7,2.2-3.5,4.3-5.2,6.5c4.6,0.2,9.3,0.4,13.9,0.6c1.7-2.2,3.5-4.3,5.2-6.5c5,0.3,9.9,0.6,14.9,0.9c-4.1,5.1-8.3,10.1-12.4,15.2
			c-1.7-0.1-3.4-0.2-5.2-0.3c-8.2-0.5-16.4-0.9-24.5-1.2c-1.9-0.1-3.9-0.1-5.8-0.2c6.9-8.5,13.8-16.9,20.7-25.4
			C208.8,144.8,218.4,140.5,228.6,141z"/>
		<path class="st2" d="M70.1,164.2c-2.4-3-4.8-5.9-7.2-8.9c-3.5-4.4-7.1-8.8-10.6-13.3c6.4-0.4,12.8-0.7,19.2-1
			c10.1-0.5,19.8,3.8,25.8,11.3c0.3,0.4,0.7,0.8,1,1.2c-0.9,0-1.7,0.1-2.6,0.1c-4.6,0.2-9.3,0.4-13.9,0.6c-1.3,0.1-3.1,1.4-3.7,2.6
			c-1.1,2.1,0.8,5.6,2.9,6.8c15.7,8.7,31.4,17.5,47.1,26.5c5.6-0.1,11.3-0.2,16.9-0.2c-2.1-2.7-4.2-5.3-6.3-7.9
			c-13.2-6.6-26.4-12.9-39.7-19.2c2.2-0.1,4.3-0.2,6.5-0.2c5.6-0.2,11.3-0.4,16.9-0.5c-2.3-2.8-4.6-5.7-6.9-8.5
			c-2.5-3-4.9-6.1-7.4-9.1c-8.6-10.7-22.3-16.8-36.7-16.3c-15.4,0.6-30.8,1.3-46.2,2.2c6.9,8.9,13.8,17.6,20.7,26.2
			c2.4,3,4.8,6,7.2,9c7.5,9.2,14.9,18.3,22.4,27.4c5.6-0.4,11.3-0.8,16.9-1.2C85,182.5,77.5,173.4,70.1,164.2z"/>
		<path class="st2" d="M148.9,197.5c-22.4,0-44.8,0.9-67.1,2.7c3.1,3.8,6.3,7.6,9.4,11.3c16.1-1.2,32.2-1.9,48.3-2.1
			c7-0.1,14.1-0.1,21.1,0c16.1,0.2,32.2,0.9,48.3,2.1c3.1-3.8,6.3-7.5,9.4-11.3c-22.3-1.7-44.7-2.6-67.1-2.7
			C150.4,197.5,149.6,197.5,148.9,197.5z"/>
		<path class="st2" d="M133.2,155c2.8-3.7,5.6-7.3,8.3-10.9c0,0,0,0,0,0c7.3-9.5,14.6-19,21.9-28.5c1.3,1.7,2.6,3.4,3.9,5.1
			c3,3.9,3,9.1,0,13c-3.3,4.3-6.6,8.5-10,12.8c-5.1,6.6-10.2,13.3-15.3,20c2.8,3.6,5.5,7.1,8.3,10.7c9.3-12.1,18.7-24,28-35.9
			c6.4-8.2,6.4-19.4,0-27.8c-4.4-5.7-8.8-11.4-13.1-17.1c-2.8,3.6-5.6,7.2-8.3,10.8c0,0,0,0,0,0c-7.3,9.5-14.6,19-21.9,28.6
			c-0.5-0.7-1.1-1.4-1.6-2c-3-3.9-3-9.1,0-13c5.7-7.4,11.3-14.7,17-22c0,0,0,0,0,0c2.8-3.6,5.6-7.2,8.3-10.8
			c-2.8-3.6-5.6-7.2-8.3-10.8c-9.3,12.1-18.7,24.1-28,36.3c-6.4,8.4-6.4,19.6,0,27.8C126,145.8,129.6,150.4,133.2,155z"/>
	</g>
	<g>
		
			<linearGradient id="SVGID_1_" gradientUnits="userSpaceOnUse" x1="216.3087" y1="446.4414" x2="216.3087" y2="378.162" gradientTransform="matrix(1 0 0 1 -1.3274 -254.5112)">
			<stop  offset="0" style="stop-color:#EE7C19"/>
			<stop  offset="0.49" style="stop-color:#EFD925"/>
			<stop  offset="0.5" style="stop-color:#EE7C19"/>
			<stop  offset="0.5864" style="stop-color:#EF991A"/>
			<stop  offset="0.6744" style="stop-color:#EFAE1A"/>
			<stop  offset="0.76" style="stop-color:#F0BB1B"/>
			<stop  offset="0.84" style="stop-color:#F0BF1B"/>
		</linearGradient>
		<path class="st3" d="M223.6,189.8c-1.3-0.1-2.6-0.2-3.8-0.3c-4-0.3-8.1-0.6-12.1-0.8c-11.8-0.7-23.8-1.2-35.6-1.5
			c-3.3-0.1-6.6-0.1-9.9-0.2c-1,0-2.1,0-3.1,0c7.3-9,14.6-18.1,21.7-26.9c4.2-5.2,8.4-10.4,12.6-15.5c8-9.9,20.3-15.6,33.5-15.6
			c0.5,0,1.1,0,1.6,0c14.1,0.5,28.4,1.2,42.5,2c-2.4,3-4.8,6.1-7.2,9.2c-11.6-0.8-23.5-1.5-35.1-2c-0.5,0-1.1,0-1.6,0
			c-10.1,0-19.7,4.5-25.8,12c-5.8,7.2-11.7,14.4-17.5,21.5l-3.1,3.9c-0.5,0.6-0.6,1.3-0.3,2c0.3,0.7,1,1.1,1.7,1.1
			c1.9,0.1,3.9,0.1,5.8,0.2c8.1,0.3,16.4,0.7,24.5,1.2c1.7,0.1,3.4,0.2,5.2,0.3c0,0,0.1,0,0.1,0c0.6,0,1.1-0.3,1.5-0.7
			c4.1-5,8.3-10.1,12.4-15.2c0.5-0.6,0.6-1.3,0.3-2c-0.3-0.7-0.9-1.1-1.6-1.1c-4.9-0.3-10-0.6-14.9-0.9c0,0-0.1,0-0.1,0
			c-0.6,0-1.1,0.3-1.5,0.7c-1.5,1.9-3,3.8-4.6,5.7c-3.1-0.2-6.1-0.3-9.2-0.4l2.8-3.5c0.1-0.2,0.2-0.3,0.3-0.5l2.8-3.4
			c2.1-2.6,5.6-3.8,11.5-3.8c1.9,0,3.8,0.1,5.6,0.2l0.9,0.1c4.4,0.2,8.9,0.5,13.2,0.8c4.4,0.3,8.8,0.6,13.2,0.9
			c-1.6,2.1-3.3,4.1-4.9,6.1C238.7,171.3,231.6,180.1,223.6,189.8z"/>
		
			<linearGradient id="SVGID_00000045610497998848324360000017772488960827359889_" gradientUnits="userSpaceOnUse" x1="86.3698" y1="446.4414" x2="86.3698" y2="378.162" gradientTransform="matrix(1 0 0 1 -1.3274 -254.5112)">
			<stop  offset="0" style="stop-color:#EE7C19"/>
			<stop  offset="0.49" style="stop-color:#EFD925"/>
			<stop  offset="0.5" style="stop-color:#EE7C19"/>
			<stop  offset="0.5864" style="stop-color:#EF991A"/>
			<stop  offset="0.6744" style="stop-color:#EFAE1A"/>
			<stop  offset="0.76" style="stop-color:#F0BB1B"/>
			<stop  offset="0.84" style="stop-color:#F0BF1B"/>
		</linearGradient>
		<path style="fill:url(#SVGID_00000045610497998848324360000017772488960827359889_);" d="M76.4,189.8
			c-8.1-9.8-15.2-18.5-21.8-26.6c-2.4-3-4.8-6-7.2-9c-6.5-8.1-12.6-15.8-18.4-23.3c14.1-0.8,28.4-1.5,42.5-2c0.5,0,1.1,0,1.6,0
			c13.1,0,25.6,5.8,33.5,15.6c2.5,3,11.8,14.6,11.8,14.6c-4.3,0.1-8.7,0.2-13.1,0.4c-2.2,0.1-4.3,0.2-6.5,0.2
			c-0.9,0-1.6,0.7-1.8,1.5c-0.2,0.9,0.3,1.7,1.1,2.1c15.8,7.5,27.9,13.4,39.2,19c1.2,1.5,2.4,3,3.6,4.5c-4.2,0-8.4,0.1-12.5,0.2
			c-15.3-8.8-30.7-17.4-45.7-25.7l-0.9-0.5c-1.4-0.8-2.6-3.3-2.1-4.2c0.3-0.7,1.6-1.5,2.1-1.5c4.6-0.2,9.3-0.4,13.9-0.6l2.6-0.1
			c0.7,0,1.4-0.5,1.7-1.1c0.3-0.7,0.2-1.4-0.3-2l-1-1.2c-6.1-7.5-15.7-12-25.8-12c-0.5,0-1.1,0-1.6,0c-6.4,0.3-12.8,0.6-19.3,1
			c-0.7,0-1.3,0.5-1.6,1.1c-0.3,0.7-0.2,1.4,0.2,2c3.5,4.5,7.1,8.9,10.6,13.3c2.4,3,4.8,6,7.2,8.9c5.9,7.2,12.2,14.9,20.1,24.5
			C84.6,189.2,80.5,189.5,76.4,189.8z"/>
		
			<linearGradient id="SVGID_00000078756614912082857210000016880564750229373367_" gradientUnits="userSpaceOnUse" x1="151.3273" y1="446.4414" x2="151.3273" y2="378.162" gradientTransform="matrix(1 0 0 1 -1.3274 -254.5112)">
			<stop  offset="0" style="stop-color:#EE7C19"/>
			<stop  offset="0.49" style="stop-color:#EFD925"/>
			<stop  offset="0.5" style="stop-color:#EE7C19"/>
			<stop  offset="0.5864" style="stop-color:#EF991A"/>
			<stop  offset="0.6744" style="stop-color:#EFAE1A"/>
			<stop  offset="0.76" style="stop-color:#F0BB1B"/>
			<stop  offset="0.84" style="stop-color:#F0BF1B"/>
		</linearGradient>
		<path style="fill:url(#SVGID_00000078756614912082857210000016880564750229373367_);" d="M208,208.6c-15.7-1.1-31.7-1.8-47.4-2
			c-3.5,0-7.1-0.1-10.6-0.1c-3.5,0-7.1,0-10.6,0.1c-15.8,0.2-31.7,0.9-47.4,2c-2.1-2.6-4.3-5.1-6.4-7.7c21-1.6,42.3-2.4,63.3-2.4
			h2.2c21,0,42.3,0.8,63.3,2.4C212.3,203.4,210.1,206,208,208.6z"/>
		
			<linearGradient id="SVGID_00000158740896255011369240000001620236525981627794_" gradientUnits="userSpaceOnUse" x1="151.7097" y1="446.4414" x2="151.7097" y2="378.162" gradientTransform="matrix(1 0 0 1 -1.3274 -254.5112)">
			<stop  offset="0" style="stop-color:#EE7C19"/>
			<stop  offset="0.49" style="stop-color:#EFD925"/>
			<stop  offset="0.5" style="stop-color:#EE7C19"/>
			<stop  offset="0.5864" style="stop-color:#EF991A"/>
			<stop  offset="0.6744" style="stop-color:#EFAE1A"/>
			<stop  offset="0.76" style="stop-color:#F0BB1B"/>
			<stop  offset="0.84" style="stop-color:#F0BF1B"/>
		</linearGradient>
		<path style="fill:url(#SVGID_00000158740896255011369240000001620236525981627794_);" d="M144.5,165.5c4.8-6.3,9.6-12.5,14.4-18.8
			c3.3-4.3,6.6-8.5,10-12.8c3.5-4.6,3.5-10.7,0-15.3l-3.9-5.1c-0.4-0.5-0.9-0.7-1.5-0.7l0,0c-0.6,0-1.2,0.3-1.5,0.7l-1.2,1.6
			C153.8,124,146.9,133,140,142c0,0-0.1,0.1-0.1,0.1c-2.3,2.9-4.5,5.9-6.8,8.9l-9.3-11.9c-5.9-7.5-5.9-17.8,0-25.5
			c8.6-11.2,17.3-22.5,25.7-33.4l0.7-1l5.9,7.7l-7.2,9.4c-0.1,0.1-0.1,0.2-0.2,0.2c-5.7,7.3-11.3,14.6-17,22
			c-3.5,4.6-3.5,10.8,0,15.3l1.6,2c0.4,0.5,0.9,0.7,1.5,0.7c0,0,0,0,0,0c0.6,0,1.1-0.3,1.5-0.7c7-9.2,13.8-18,21.9-28.6l6.8-8.9
			c3.9,5,7.7,10.1,11.6,15.1c5.9,7.7,5.9,18,0,25.5l-4.7,6.1c-7.1,9.1-14.5,18.5-21.8,27.9C148.4,170.5,146.4,168,144.5,165.5z"/>
	</g>
</g>
</svg>
