<?xml version="1.0" encoding="utf-8"?>
<!-- Generator: Adobe Illustrator 27.7.0, SVG Export Plug-In . SVG Version: 6.00 Build 0)  -->
<svg version="1.1" id="Layer_1" xmlns="http://www.w3.org/2000/svg" xmlns:xlink="http://www.w3.org/1999/xlink" x="0px" y="0px"
	 viewBox="0 0 100 100" style="enable-background:new 0 0 100 100;" xml:space="preserve">
<style type="text/css">
	.st0{fill:#BC9A61;}
	.st1{fill:#B9131A;}
</style>
<g>
	<path class="st0" d="M8.3,68.5c-0.9-0.7-1.5-1.2-1.8-1.4C6.3,67,6.2,66.8,6,66.5c-0.2-0.2-0.3-0.6-0.3-1c0-0.5,0.1-0.9,0.5-1.2
		c0.3-0.3,0.7-0.5,1.2-0.5c1.1,0,1.8,0.7,2,2h0.4v-2c0-0.1,0-0.2-0.1-0.2c-0.2-0.2-0.9-0.4-2.2-0.4c-0.9,0-1.7,0.2-2.3,0.7
		c-0.7,0.5-1.1,1.2-1.1,2.1c0,0.5,0.1,1,0.4,1.3c0.3,0.4,0.8,0.8,1.5,1.3c1.2,0.8,1.9,1.4,2.3,1.9c0.4,0.4,0.6,0.9,0.6,1.5
		c0,0.6-0.2,1.1-0.6,1.5c-0.4,0.4-0.9,0.6-1.5,0.6c-0.9,0-1.5-0.3-2-1c-0.2-0.3-0.3-0.8-0.5-1.4H4v2.2c0,0.2,0.1,0.3,0.2,0.3
		c0.2,0.1,0.6,0.2,1.1,0.3c0.5,0.1,1,0.1,1.4,0.1c1.1,0,2.1-0.3,2.8-0.8c0.7-0.6,1.1-1.3,1.1-2.2c0-0.6-0.2-1.1-0.5-1.5
		C9.7,69.7,9.2,69.1,8.3,68.5z"/>
	<path class="st0" d="M16.5,66.5c-1.1,0-2,0.4-2.7,1.3v-1.3c-0.7,0.4-1.6,0.6-2.7,0.7v0.4h0.4c0.3,0,0.6,0,0.7,0.1
		c0.1,0.1,0.2,0.3,0.2,0.6v8.1c0,0.7-0.1,1.1-0.2,1.2c-0.1,0.1-0.5,0.3-1.1,0.3v0.4h4.3V78c-0.8-0.1-1.3-0.2-1.4-0.3
		c-0.1-0.1-0.2-0.6-0.2-1.3v-2.1c0.6,0.2,1.2,0.4,1.8,0.4c1.2,0,2.2-0.4,3-1.3c0.8-0.8,1.2-1.9,1.2-3.2c0-1.1-0.3-2-0.9-2.7
		C18.2,66.8,17.4,66.5,16.5,66.5z M17.4,73.2c-0.5,0.6-1.1,1-1.9,1c-0.6,0-1.2-0.2-1.8-0.7v-2.8c0-0.8,0-1.4,0.1-1.8
		c0.2-1.1,0.9-1.6,1.9-1.6c0.7,0,1.3,0.3,1.7,0.9c0.4,0.6,0.6,1.4,0.6,2.4C18.1,71.7,17.9,72.6,17.4,73.2z"/>
	<path class="st0" d="M26.8,73.6c-0.2,0-0.4-0.1-0.4-0.3c-0.1-0.2-0.1-0.5-0.1-0.9V69c0-0.9-0.2-1.5-0.6-1.9c-0.4-0.4-1.1-0.6-2-0.6
		c-0.7,0-1.4,0.1-2,0.4c-0.2,0.1-0.4,0.2-0.4,0.4L21,68.2c0,0.1,0,0.1,0.1,0.2l0.5,0.1c0,0,0.1,0,0.1,0c0.1,0,0.2-0.1,0.3-0.4
		c0.4-0.8,0.9-1.1,1.5-1.1c0.9,0,1.3,0.8,1.3,2.3l-1.7,0.7c-0.7,0.3-1.2,0.5-1.5,0.7c-0.8,0.5-1.2,1.1-1.2,1.9
		c0,0.6,0.2,1.1,0.6,1.5c0.4,0.4,0.9,0.6,1.5,0.6c0.3,0,0.7-0.1,1.1-0.4l1.2-0.8c0,0.4,0.1,0.8,0.4,1.2l2.2-0.7l-0.1-0.4
		C27.1,73.6,26.9,73.6,26.8,73.6z M24.9,71.1c0,1.7-0.6,2.6-1.7,2.6c-0.4,0-0.7-0.1-0.9-0.4c-0.2-0.2-0.3-0.6-0.3-1
		c0-0.9,0.5-1.5,1.6-2c0.4-0.1,0.8-0.3,1.4-0.5V71.1z"/>
	<path class="st0" d="M35.9,73.6c-0.4,0-0.6-0.4-0.6-1.2V63c-0.8,0.3-1.7,0.5-2.7,0.5v0.4h0.4c0.3,0,0.5,0,0.6,0.1
		c0.1,0.1,0.2,0.3,0.2,0.8v2c-0.5-0.2-1.1-0.2-1.7-0.2c-1.3,0-2.3,0.4-3,1.1c-0.8,0.8-1.2,1.8-1.2,3c0,1.1,0.3,2.1,1,2.9
		c0.7,0.8,1.5,1.2,2.5,1.2c0.4,0,0.8-0.2,1.4-0.5l1-0.6v0.1c0,0.4,0.1,0.7,0.3,1l2.3-0.7l-0.1-0.4C36.1,73.6,36,73.6,35.9,73.6z
		 M33.9,71.8c0,0.6-0.1,1-0.3,1.2c-0.2,0.2-0.4,0.4-0.7,0.5c-0.3,0.2-0.6,0.2-0.9,0.2c-0.8,0-1.4-0.4-1.9-1.3
		c-0.4-0.7-0.6-1.5-0.6-2.4c0-0.8,0.2-1.6,0.6-2.2c0.5-0.7,1.1-1,1.9-1c0.8,0,1.4,0.3,1.9,1V71.8z"/>
	<path class="st0" d="M43.4,68.5c-0.4-1.3-1.3-2-2.8-2c-1.1,0-1.9,0.4-2.6,1.1c-0.7,0.8-1,1.7-1,2.9c0,1.2,0.4,2.2,1.1,3
		c0.7,0.8,1.7,1.2,3,1.2h0.4l2-1l-0.2-0.5c-0.7,0.4-1.3,0.5-1.8,0.5c-0.6,0-1-0.1-1.5-0.4c-1-0.6-1.5-1.6-1.5-3.2h5
		C43.6,69.5,43.5,68.9,43.4,68.5z M41.2,69.6h-2.7c0-0.5,0.1-0.8,0.2-1.1c0.3-1,0.9-1.5,1.8-1.5c0.5,0,0.9,0.2,1.2,0.5
		c0.3,0.3,0.5,0.7,0.5,1.2C42.2,69.3,41.9,69.6,41.2,69.6z"/>
	<path class="st0" d="M52.1,66.7L52,66.5c-0.7,0.2-1.4,0.2-2.2,0.2c-0.1,0-0.3,0-0.4,0c-0.4-0.1-0.9-0.2-1.4-0.2
		c-0.9,0-1.7,0.2-2.3,0.7c-0.6,0.5-0.9,1.1-0.9,1.9c0,1.1,0.6,2,1.8,2.5l-1.5,1.2c0,0,0,0.1,0,0.1c0,0.1,0,0.1,0,0.1
		c0,0.5,0.3,0.8,1,0.9l-1.6,0.9c-0.1,0.1-0.2,0.3-0.2,0.6c0,0.6,0.2,1.2,0.5,1.6c0.3,0.4,0.7,0.7,1.3,0.9c0.6,0.2,1.2,0.3,1.8,0.3
		c1,0,1.8-0.2,2.5-0.7c0.8-0.6,1.2-1.3,1.2-2.2c0-0.9-0.4-1.5-1.2-1.9c-0.4-0.2-1-0.3-1.7-0.4c-0.8-0.1-1.4-0.2-1.7-0.3
		c-0.2-0.1-0.3-0.2-0.3-0.4c0-0.2,0.1-0.4,0.4-0.6c0.3,0,0.5,0,0.6,0c0.9,0,1.6-0.3,2.2-0.8c0.6-0.5,0.9-1.1,0.9-1.9
		c0-0.7-0.2-1.3-0.7-1.8h1.6L52.1,66.7z M46.8,74.2l1.5,0.3c0.4,0.1,0.7,0.1,1,0.2c0.7,0.2,1.1,0.7,1.1,1.4c0,0.5-0.2,1-0.7,1.3
		c-0.5,0.3-1,0.5-1.7,0.5c-0.7,0-1.3-0.2-1.8-0.6c-0.5-0.4-0.7-0.8-0.7-1.4c0-0.4,0.1-0.7,0.3-0.9C46,74.8,46.3,74.5,46.8,74.2z
		 M48,71.4c-0.5,0-0.9-0.2-1.2-0.7c-0.3-0.5-0.5-1.1-0.5-1.8c0-0.6,0.1-1.1,0.4-1.5c0.3-0.4,0.6-0.5,1.1-0.5c0.4,0,0.8,0.2,1.1,0.6
		c0.3,0.4,0.4,1,0.4,1.8C49.3,70.7,48.9,71.4,48,71.4z"/>
	<path class="st0" d="M58.5,73.6c-0.2,0-0.4-0.1-0.4-0.3c-0.1-0.2-0.1-0.5-0.1-0.9V69c0-0.9-0.2-1.5-0.6-1.9c-0.4-0.4-1.1-0.6-2-0.6
		c-0.7,0-1.4,0.1-2,0.4c-0.2,0.1-0.3,0.2-0.4,0.4l-0.2,0.9c0,0.1,0,0.1,0.1,0.2l0.5,0.1c0,0,0.1,0,0.1,0c0.1,0,0.2-0.1,0.3-0.4
		c0.4-0.8,0.9-1.1,1.5-1.1c0.9,0,1.3,0.8,1.3,2.3l-1.7,0.7c-0.7,0.3-1.2,0.5-1.5,0.7c-0.8,0.5-1.2,1.1-1.2,1.9
		c0,0.6,0.2,1.1,0.6,1.5c0.4,0.4,0.9,0.6,1.5,0.6c0.3,0,0.7-0.1,1.1-0.4l1.2-0.8c0,0.4,0.2,0.8,0.4,1.2l2.2-0.7L59,73.5
		C58.8,73.6,58.6,73.6,58.5,73.6z M56.5,71.1c0,1.7-0.6,2.6-1.7,2.6c-0.4,0-0.7-0.1-0.9-0.4c-0.2-0.2-0.3-0.6-0.3-1
		c0-0.9,0.5-1.5,1.6-2c0.4-0.1,0.8-0.3,1.4-0.5V71.1z"/>
	<path class="st0" d="M72.1,72.5v-3.3c0-0.6,0-1-0.1-1.3c-0.2-1-0.9-1.5-2.1-1.5c-1.1,0-2,0.5-2.8,1.4c-0.2-0.5-0.5-0.9-0.8-1.1
		c-0.3-0.2-0.7-0.3-1.3-0.3c-1.1,0-2.1,0.5-2.8,1.4v-1.4c-0.7,0.4-1.6,0.6-2.7,0.7v0.4h0.4c0.3,0,0.6,0.1,0.7,0.1
		c0.1,0.1,0.2,0.3,0.2,0.6v4.2c0,0.7-0.1,1.1-0.2,1.2c-0.1,0.1-0.5,0.2-1.1,0.3v0.4h3.9v-0.4c-0.6-0.1-1-0.2-1.1-0.3
		c-0.1-0.1-0.2-0.5-0.2-1.2v-1.8c0-1.4,0.2-2.3,0.6-2.7c0.3-0.4,0.8-0.6,1.5-0.6c0.6,0,1,0.2,1.2,0.5c0.2,0.3,0.3,0.9,0.3,1.8v2.9
		c0,0.7-0.1,1.1-0.2,1.2c-0.1,0.1-0.5,0.2-1.1,0.3v0.4h3.9v-0.4c-0.6-0.1-1-0.2-1.1-0.3c-0.1-0.1-0.2-0.5-0.2-1.2v-1.8
		c0-0.7,0-1.1,0-1.4c0.1-0.5,0.2-1,0.5-1.3c0.3-0.4,0.8-0.7,1.5-0.7c0.6,0,1,0.2,1.2,0.5c0.2,0.3,0.3,0.9,0.3,1.8v2.9
		c0,0.7-0.1,1.1-0.2,1.2c-0.1,0.1-0.5,0.2-1.1,0.3v0.4h3.9v-0.4c-0.6-0.1-1-0.2-1.1-0.3C72.2,73.7,72.1,73.2,72.1,72.5z"/>
	<path class="st0" d="M75.6,65.4c0.3,0,0.5-0.1,0.7-0.3c0.2-0.2,0.3-0.4,0.3-0.6c0-0.2-0.1-0.5-0.3-0.6c-0.2-0.2-0.4-0.3-0.6-0.3
		c-0.3,0-0.5,0.1-0.6,0.3c-0.2,0.2-0.3,0.4-0.3,0.6c0,0.3,0.1,0.5,0.3,0.7C75.2,65.4,75.4,65.4,75.6,65.4z"/>
	<path class="st0" d="M76.6,73.7c-0.1-0.1-0.2-0.6-0.2-1.2v-6c-0.7,0.4-1.6,0.6-2.7,0.7v0.4h0.4c0.3,0,0.6,0,0.7,0.1
		c0.1,0.1,0.2,0.3,0.2,0.6v4.2c0,0.7-0.1,1.1-0.2,1.2c-0.1,0.1-0.5,0.2-1.1,0.3v0.4h3.9V74C77.1,73.9,76.8,73.8,76.6,73.7z"/>
	<path class="st0" d="M86.5,73.7c-0.1-0.1-0.1-0.5-0.1-1.2v-3.3c0-0.7,0-1.2-0.1-1.4c-0.3-0.9-1-1.3-2.2-1.3c-1.2,0-2.3,0.5-3.1,1.4
		v-1.4c-0.7,0.4-1.6,0.6-2.7,0.7v0.4h0.4c0.3,0,0.6,0,0.7,0.1c0.1,0.1,0.2,0.3,0.2,0.6v4.2c0,0.7-0.1,1.1-0.2,1.2
		c-0.1,0.1-0.5,0.3-1.1,0.3v0.4h3.9V74c-0.6-0.1-1-0.2-1.1-0.3c-0.1-0.1-0.2-0.5-0.2-1.2v-1.9c0-0.7,0-1.2,0.1-1.6
		c0.2-1.1,1-1.7,2.1-1.7c0.7,0,1.1,0.2,1.4,0.5c0.3,0.3,0.4,0.9,0.4,1.8v2.9c0,0.7,0,1.1-0.1,1.2c-0.1,0.2-0.5,0.3-1.1,0.4v0.4h3.9
		V74C87,73.9,86.6,73.8,86.5,73.7z"/>
	<path class="st0" d="M96,66.6l-0.2-0.2c-0.7,0.2-1.4,0.2-2.2,0.2c-0.1,0-0.3,0-0.4,0c-0.4-0.1-0.9-0.2-1.4-0.2
		c-0.9,0-1.7,0.2-2.3,0.7c-0.6,0.5-0.9,1.1-0.9,1.9c0,1.1,0.6,2,1.8,2.5L89,72.8c0,0,0,0.1,0,0.1c0,0.1,0,0.1,0,0.1
		c0,0.5,0.3,0.8,1,0.9l-1.6,0.9c-0.1,0.1-0.2,0.3-0.2,0.6c0,0.6,0.2,1.2,0.5,1.6c0.3,0.4,0.7,0.7,1.3,0.9c0.6,0.2,1.2,0.3,1.8,0.3
		c1,0,1.8-0.2,2.5-0.7c0.8-0.6,1.2-1.3,1.2-2.2c0-0.9-0.4-1.5-1.2-1.9c-0.4-0.2-1-0.3-1.7-0.4c-0.8-0.1-1.4-0.2-1.7-0.3
		c-0.2-0.1-0.3-0.2-0.3-0.4c0-0.2,0.1-0.4,0.4-0.6c0.3,0,0.5,0,0.6,0c0.9,0,1.6-0.3,2.2-0.8c0.6-0.5,0.9-1.1,0.9-1.9
		c0-0.7-0.2-1.3-0.7-1.8h1.6L96,66.6z M90.7,74.1l1.5,0.3c0.4,0.1,0.7,0.1,1,0.2c0.7,0.2,1.1,0.7,1.1,1.4c0,0.5-0.2,1-0.7,1.3
		c-0.4,0.3-1,0.5-1.7,0.5c-0.7,0-1.3-0.2-1.8-0.6c-0.5-0.4-0.7-0.8-0.7-1.4c0-0.4,0.1-0.7,0.3-0.9C89.9,74.7,90.2,74.4,90.7,74.1z
		 M91.9,71.3c-0.5,0-0.9-0.2-1.2-0.7c-0.3-0.5-0.5-1.1-0.5-1.8c0-0.6,0.1-1.1,0.4-1.5c0.3-0.4,0.6-0.5,1.1-0.5
		c0.4,0,0.8,0.2,1.1,0.6c0.3,0.4,0.4,1,0.4,1.8C93.2,70.6,92.8,71.3,91.9,71.3z"/>
	<g>
		<path class="st1" d="M65.8,56.8h-1v-0.4h2.4v0.4h-1v2.7h-0.4V56.8z"/>
		<path class="st1" d="M67.7,56.4h0.6l1,2.3h0l1-2.3h0.6v3.1h-0.4V57h0l-1,2.5h-0.3l-1-2.5h0v2.5h-0.4V56.4z"/>
	</g>
	<g>
		<path class="st1" d="M55.1,54.9c-2.1-2.4-1.9-5.2-1.9-5.4l0-0.5l0.5,0.1c0,0,5.2,1.4,7.7-0.9c2.5-2.2,3.4-7.3,0.2-12.5
			c-3-4.9-10.2-10-11.6-11c-1.4,1-8.6,6.1-11.6,11c-3.2,5.2-2.2,10.3,0.2,12.5c2.5,2.3,7.6,0.9,7.7,0.9l0.5-0.1l0,0.5
			c0,0.1,0.3,3-1.9,5.4c-1.8,1.9-4.6,2.9-8.4,2.9v1.7c4.3,0,7.5-1.2,9.6-3.5c2.5-2.7,2.4-5.5,2.4-6.7c0-1.2-0.3-2.6-0.3-2.6
			l-2.5,0.7c-1.1,0.3-4.6,0.8-6.1-0.5c-1.9-1.7-2.5-5.9,0.1-10.3c2.4-3.9,7.8-8,10.2-9.8c2.4,1.7,7.8,5.8,10.2,9.8
			c2.7,4.4,2,8.5,0.1,10.3c-1.5,1.4-5,0.8-6.1,0.5l-2.5-0.7c0,0-0.2,1.4-0.3,2.6c0,1.2-0.1,3.9,2.4,6.7c2.1,2.3,5.3,3.5,9.6,3.5
			v-1.7C59.7,57.8,56.8,56.8,55.1,54.9z"/>
		<path class="st1" d="M63.2,50.1c3.3-3,4.6-9.3,0.7-15.8c-3.6-5.9-12.3-11.7-12.7-12L50,21.6l-1.2,0.8c-0.4,0.2-9,6-12.7,12
			c-3.9,6.4-2.6,12.8,0.7,15.8c2,1.8,4.7,2.1,6.8,2c-0.2,0.3-0.4,0.7-0.7,1c-1.3,1.3-3.4,2-6.4,2v1.7c3.5,0,6.1-0.9,7.7-2.6
			c1.4-1.5,1.7-3.3,1.7-4.2c-1.5,0.3-5.6,0.9-8-1.2c-2.8-2.5-3.8-7.9-0.4-13.6c3.4-5.6,11.8-11.2,12.1-11.4l0.2-0.2l0.2,0.2
			c0.4,0.2,8.7,5.8,12.1,11.4c3.4,5.6,2.4,11.1-0.4,13.6c-2.4,2.1-6.5,1.5-8,1.2c0,0.9,0.3,2.7,1.7,4.2c1.6,1.7,4.2,2.6,7.7,2.6
			v-1.7c-3,0-5.1-0.7-6.4-2c-0.3-0.3-0.5-0.7-0.7-1C58.5,52.2,61.2,51.9,63.2,50.1z"/>
	</g>
</g>
</svg>
