<?xml version="1.0" encoding="utf-8"?>
<!-- Generator: Adobe Illustrator 27.0.0, SVG Export Plug-In . SVG Version: 6.00 Build 0)  -->
<svg version="1.1" id="Layer_1" xmlns="http://www.w3.org/2000/svg" xmlns:xlink="http://www.w3.org/1999/xlink" x="0px" y="0px"
	 viewBox="0 0 300 300" style="enable-background:new 0 0 300 300;" xml:space="preserve">
<style type="text/css">
	.st0{fill:#FFFFFF;}
</style>
<g>
	<path class="st0" d="M73.9,81.4h18v47.1H70.9c-19.1,0-28.7,7.3-28.7,22v0.2c0,14.6,9.5,21.9,28.6,21.9c10.9,0,21.1-3.2,30.6-9.4
		s18.3-13.8,26.2-22.6l24.5-23.6c8.6-9.8,19.2-17.9,31.9-24.5c12.7-6.6,26.7-9.9,42.1-9.9c23.7,0,41.9,6.2,54.5,18.6
		c12.7,12.4,19,29.3,19,50.6s-6.3,37.7-19,49.1c-12.7,11.4-30.8,17.1-54.5,17.1h-9.4v-43.5H229c19.2,0,28.8-7.7,28.8-23.1
		s-9.6-23.1-28.8-23.1c-8,0-15.7,1.7-23,5c-7.3,3.3-13.9,7.7-19.7,13s-11.6,11.2-17.3,17.6c-5.7,6.4-11.7,12.8-18,19
		c-6.3,6.3-13,12-20.1,17.3c-7.2,5.3-15.6,9.6-25.3,13c-9.7,3.3-20.3,5-31.8,5c-23.6,0-41.7-5.9-54.4-17.6
		C6.7,189.3,0.4,172.8,0.4,151.4c0-21.3,6.3-38.3,19-51C32,87.8,50.2,81.4,73.9,81.4z"/>
</g>
</svg>
