<?xml version="1.0" encoding="utf-8"?>
<!-- Generator: Adobe Illustrator 27.3.1, SVG Export Plug-In . SVG Version: 6.00 Build 0)  -->
<svg version="1.1" id="Layer_1" xmlns="http://www.w3.org/2000/svg" xmlns:xlink="http://www.w3.org/1999/xlink" x="0px" y="0px"
	 viewBox="0 0 150 150" style="enable-background:new 0 0 150 150;" xml:space="preserve">
<style type="text/css">
	.st0{fill:#AB754A;}
</style>
<g>
	<path class="st0" d="M64.6,94.6L51.7,62.3h6.1v0.3l-0.5,0.5c-0.1,0.1-0.2,0.2-0.2,0.3c0,0.1-0.1,0.3-0.1,0.5c0,0.1,0,0.3,0,0.4
		c0,0.1,0.1,0.3,0.1,0.4L64.9,84l10.3-22.3l10.3,21.9l7.3-18.9c0-0.1,0.1-0.3,0.1-0.4c0-0.1,0-0.3,0-0.4c0-0.2,0-0.3-0.1-0.5
		c0-0.1-0.1-0.2-0.2-0.3l-0.5-0.5v-0.3h6L85.7,94.6L75.1,71.2L64.6,94.6z"/>
	<path class="st0" d="M76.9,16.1c0,1-0.8,1.9-1.8,1.9c-1,0-1.8-0.8-1.8-1.9c0-1,0.8-1.9,1.8-1.9C76.1,14.2,76.9,15.1,76.9,16.1"/>
	<path class="st0" d="M97.7,24.2c0,1-0.8,1.9-1.8,1.9c-1,0-1.8-0.8-1.8-1.9c0-1,0.8-1.9,1.8-1.9C96.8,22.3,97.7,23.2,97.7,24.2"/>
	<path class="st0" d="M118,33.4c0,1-0.8,1.9-1.8,1.9c-1,0-1.8-0.8-1.8-1.9c0-1,0.8-1.9,1.8-1.9C117.1,31.5,118,32.4,118,33.4"/>
	<path class="st0" d="M127,54c0,1-0.8,1.9-1.8,1.9c-1,0-1.8-0.8-1.8-1.9c0-1,0.8-1.9,1.8-1.9C126.1,52.2,127,53,127,54"/>
	<path class="st0" d="M134.9,75.1c0,1-0.8,1.9-1.8,1.9c-1,0-1.8-0.8-1.8-1.9c0-1,0.8-1.9,1.8-1.9C134.1,73.2,134.9,74.1,134.9,75.1"
		/>
	<path class="st0" d="M126.9,96.1c0,1-0.8,1.9-1.8,1.9c-1,0-1.8-0.8-1.8-1.9c0-1,0.8-1.9,1.8-1.9C126.1,94.3,126.9,95.1,126.9,96.1"
		/>
	<path class="st0" d="M117.8,116.7c0,1-0.8,1.9-1.8,1.9c-1,0-1.8-0.8-1.8-1.9c0-1,0.8-1.9,1.8-1.9
		C117,114.9,117.8,115.7,117.8,116.7"/>
	<path class="st0" d="M97.5,125.9c0,1-0.8,1.9-1.8,1.9s-1.8-0.8-1.8-1.9c0-1,0.8-1.9,1.8-1.9S97.5,124.8,97.5,125.9"/>
	<path class="st0" d="M111.8,39.6c0,1-0.8,1.9-1.8,1.9c-1,0-1.8-0.8-1.8-1.9c0-1,0.8-1.9,1.8-1.9C111,37.7,111.8,38.6,111.8,39.6"/>
	<path class="st0" d="M118.4,53.6c0,1-0.8,1.9-1.8,1.9c-1,0-1.8-0.8-1.8-1.9c0-1,0.8-1.9,1.8-1.9C117.6,51.8,118.4,52.6,118.4,53.6"
		/>
	<path class="st0" d="M121.2,60.4c0,1-0.8,1.9-1.8,1.9c-1,0-1.8-0.8-1.8-1.9c0-1,0.8-1.9,1.8-1.9C120.3,58.6,121.2,59.4,121.2,60.4"
		/>
	<path class="st0" d="M126.3,75.1c0,1-0.8,1.9-1.8,1.9c-1,0-1.8-0.8-1.8-1.9c0-1,0.8-1.9,1.8-1.9C125.5,73.2,126.3,74,126.3,75.1"/>
	<path class="st0" d="M121.1,89.7c0,1-0.8,1.9-1.8,1.9c-1,0-1.8-0.8-1.8-1.9c0-1,0.8-1.9,1.8-1.9C120.3,87.9,121.1,88.7,121.1,89.7"
		/>
	<path class="st0" d="M118.3,96.5c0,1-0.8,1.9-1.8,1.9c-1,0-1.8-0.8-1.8-1.9c0-1,0.8-1.9,1.8-1.9C117.5,94.6,118.3,95.5,118.3,96.5"
		/>
	<path class="st0" d="M111.7,110.5c0,1-0.8,1.9-1.8,1.9c-1,0-1.8-0.8-1.8-1.9c0-1,0.8-1.9,1.8-1.9
		C110.9,108.7,111.7,109.5,111.7,110.5"/>
	<path class="st0" d="M97.9,117.2c0,1-0.8,1.9-1.8,1.9c-1,0-1.8-0.8-1.8-1.9c0-1,0.8-1.9,1.8-1.9C97.1,115.3,97.9,116.2,97.9,117.2"
		/>
	<path class="st0" d="M91.2,120c0,1-0.8,1.9-1.8,1.9c-1,0-1.8-0.8-1.8-1.9c0-1,0.8-1.9,1.8-1.9C90.4,118.1,91.2,118.9,91.2,120"/>
	<path class="st0" d="M91.3,30.1c0,1-0.8,1.9-1.8,1.9s-1.8-0.8-1.8-1.9c0-1,0.8-1.9,1.8-1.9S91.3,29,91.3,30.1"/>
	<path class="st0" d="M98,32.9c0,1-0.8,1.9-1.8,1.9c-1,0-1.8-0.8-1.8-1.9c0-1,0.8-1.9,1.8-1.9C97.2,31,98,31.9,98,32.9"/>
	<path class="st0" d="M55.8,32.8c0,1-0.8,1.9-1.8,1.9c-1,0-1.8-0.8-1.8-1.9c0-1,0.8-1.9,1.8-1.9C55,31,55.8,31.8,55.8,32.8"/>
	<path class="st0" d="M41.9,39.5c0,1-0.8,1.9-1.8,1.9c-1,0-1.8-0.8-1.8-1.9c0-1,0.8-1.9,1.8-1.9C41.1,37.6,41.9,38.5,41.9,39.5"/>
	<path class="st0" d="M35.8,33.3c0,1-0.8,1.9-1.8,1.9c-1,0-1.8-0.8-1.8-1.9c0-1,0.8-1.9,1.8-1.9C35,31.4,35.8,32.3,35.8,33.3"/>
	<path class="st0" d="M26.7,53.9c0,1-0.8,1.9-1.8,1.9c-1,0-1.8-0.8-1.8-1.9c0-1,0.8-1.9,1.8-1.9C25.9,52,26.7,52.8,26.7,53.9"/>
	<path class="st0" d="M35.3,53.5c0,1-0.8,1.9-1.8,1.9c-1,0-1.8-0.8-1.8-1.9c0-1,0.8-1.9,1.8-1.9C34.5,51.7,35.3,52.5,35.3,53.5"/>
	<path class="st0" d="M32.5,60.3c0,1-0.8,1.9-1.8,1.9c-1,0-1.8-0.8-1.8-1.9c0-1,0.8-1.9,1.8-1.9C31.7,58.4,32.5,59.3,32.5,60.3"/>
	<path class="st0" d="M27.4,74.9c0,1-0.8,1.9-1.8,1.9c-1,0-1.8-0.8-1.8-1.9c0-1,0.8-1.9,1.8-1.9C26.6,73.1,27.4,73.9,27.4,74.9"/>
	<path class="st0" d="M18.7,74.9c0,1-0.8,1.9-1.8,1.9c-1,0-1.8-0.8-1.8-1.9c0-1,0.8-1.9,1.8-1.9C17.9,73.1,18.7,73.9,18.7,74.9"/>
	<path class="st0" d="M26.7,96c0,1-0.8,1.9-1.8,1.9c-1,0-1.8-0.8-1.8-1.9c0-1,0.8-1.9,1.8-1.9C25.9,94.1,26.7,95,26.7,96"/>
	<path class="st0" d="M35.7,116.6c0,1-0.8,1.9-1.8,1.9c-1,0-1.8-0.8-1.8-1.9c0-1,0.8-1.9,1.8-1.9C34.9,114.8,35.7,115.6,35.7,116.6"
		/>
	<path class="st0" d="M56,125.8c0,1-0.8,1.9-1.8,1.9c-1,0-1.8-0.8-1.8-1.9c0-1,0.8-1.9,1.8-1.9C55.2,124,56,124.8,56,125.8"/>
	<path class="st0" d="M76.7,133.9c0,1-0.8,1.9-1.8,1.9c-1,0-1.8-0.8-1.8-1.9c0-1,0.8-1.9,1.8-1.9C75.9,132.1,76.7,132.9,76.7,133.9"
		/>
	<path class="st0" d="M32.5,89.6c0,1-0.8,1.9-1.8,1.9c-1,0-1.8-0.8-1.8-1.9c0-1,0.8-1.9,1.8-1.9C31.7,87.7,32.5,88.6,32.5,89.6"/>
	<path class="st0" d="M35.2,96.4c0,1-0.8,1.9-1.8,1.9c-1,0-1.8-0.8-1.8-1.9c0-1,0.8-1.9,1.8-1.9C34.4,94.5,35.2,95.3,35.2,96.4"/>
	<path class="st0" d="M41.8,110.4c0,1-0.8,1.9-1.8,1.9c-1,0-1.8-0.8-1.8-1.9c0-1,0.8-1.9,1.8-1.9C41,108.6,41.8,109.4,41.8,110.4"/>
	<path class="st0" d="M55.6,117.1c0,1-0.8,1.9-1.8,1.9c-1,0-1.8-0.8-1.8-1.9c0-1,0.8-1.9,1.8-1.9C54.8,115.3,55.6,116.1,55.6,117.1"
		/>
	<path class="st0" d="M62.3,119.9c0,1-0.8,1.9-1.8,1.9c-1,0-1.8-0.8-1.8-1.9c0-1,0.8-1.9,1.8-1.9C61.5,118.1,62.3,118.9,62.3,119.9"
		/>
	<path class="st0" d="M76.8,125.2c0,1-0.8,1.9-1.8,1.9c-1,0-1.8-0.8-1.8-1.9c0-1,0.8-1.9,1.8-1.9C75.9,123.3,76.8,124.1,76.8,125.2"
		/>
	<path class="st0" d="M62.4,30c0,1-0.8,1.9-1.8,1.9c-1,0-1.8-0.8-1.8-1.9c0-1,0.8-1.9,1.8-1.9C61.6,28.2,62.4,29,62.4,30"/>
	<path class="st0" d="M56.1,24.1c0,1-0.8,1.9-1.8,1.9c-1,0-1.8-0.8-1.8-1.9c0-1,0.8-1.9,1.8-1.9C55.3,22.3,56.1,23.1,56.1,24.1"/>
	<path class="st0" d="M76.9,24.8c0,1-0.8,1.9-1.8,1.9c-1,0-1.8-0.8-1.8-1.9c0-1,0.8-1.9,1.8-1.9C76.1,23,76.9,23.8,76.9,24.8"/>
	<path class="st0" d="M77.4,32.3c0,1.3-1,2.3-2.3,2.3c-1.3,0-2.3-1-2.3-2.3c0-1.3,1-2.3,2.3-2.3C76.3,30,77.4,31,77.4,32.3"/>
	<path class="st0" d="M86,35.4c0,1.3-1,2.3-2.3,2.3c-1.3,0-2.3-1-2.3-2.3c0-1.3,1-2.3,2.3-2.3C85,33,86,34.1,86,35.4"/>
	<path class="st0" d="M98.9,40.8c0,1.3-1,2.3-2.3,2.3c-1.3,0-2.3-1-2.3-2.3c0-1.3,1-2.3,2.3-2.3C97.8,38.4,98.9,39.5,98.9,40.8"/>
	<path class="st0" d="M107.1,44.9c0,1.3-1,2.3-2.3,2.3c-1.3,0-2.3-1-2.3-2.3c0-1.3,1-2.3,2.3-2.3C106.1,42.5,107.1,43.6,107.1,44.9"
		/>
	<path class="st0" d="M111.1,53.2c0,1.3-1,2.3-2.3,2.3c-1.3,0-2.3-1-2.3-2.3c0-1.3,1-2.3,2.3-2.3C110.1,50.9,111.1,51.9,111.1,53.2"
		/>
	<path class="st0" d="M116.4,66.3c0,1.3-1,2.3-2.3,2.3c-1.3,0-2.3-1-2.3-2.3c0-1.3,1-2.3,2.3-2.3C115.4,63.9,116.4,65,116.4,66.3"/>
	<path class="st0" d="M119.4,75.1c0,1.3-1,2.3-2.3,2.3s-2.3-1-2.3-2.3c0-1.3,1-2.3,2.3-2.3S119.4,73.8,119.4,75.1"/>
	<path class="st0" d="M116.4,83.9c0,1.3-1,2.3-2.3,2.3c-1.3,0-2.3-1-2.3-2.3c0-1.3,1-2.3,2.3-2.3C115.3,81.5,116.4,82.6,116.4,83.9"
		/>
	<path class="st0" d="M111.1,96.9c0,1.3-1,2.3-2.3,2.3s-2.3-1-2.3-2.3c0-1.3,1-2.3,2.3-2.3S111.1,95.6,111.1,96.9"/>
	<path class="st0" d="M107,105.2c0,1.3-1,2.3-2.3,2.3c-1.3,0-2.3-1-2.3-2.3c0-1.3,1-2.3,2.3-2.3C106,102.9,107,103.9,107,105.2"/>
	<path class="st0" d="M98.8,109.3c0,1.3-1,2.3-2.3,2.3c-1.3,0-2.3-1-2.3-2.3c0-1.3,1-2.3,2.3-2.3C97.7,106.9,98.8,108,98.8,109.3"/>
	<path class="st0" d="M85.9,114.7c0,1.3-1,2.3-2.3,2.3c-1.3,0-2.3-1-2.3-2.3c0-1.3,1-2.3,2.3-2.3C84.9,112.3,85.9,113.4,85.9,114.7"
		/>
	<path class="st0" d="M77.3,117.7c0,1.3-1,2.3-2.3,2.3c-1.3,0-2.3-1-2.3-2.3c0-1.3,1-2.3,2.3-2.3C76.2,115.3,77.3,116.4,77.3,117.7"
		/>
	<path class="st0" d="M68.6,114.6c0,1.3-1,2.3-2.3,2.3c-1.3,0-2.3-1-2.3-2.3c0-1.3,1-2.3,2.3-2.3C67.5,112.3,68.6,113.3,68.6,114.6"
		/>
	<path class="st0" d="M55.8,109.2c0,1.3-1,2.3-2.3,2.3c-1.3,0-2.3-1-2.3-2.3c0-1.3,1-2.3,2.3-2.3C54.7,106.9,55.8,107.9,55.8,109.2"
		/>
	<path class="st0" d="M47.5,105.1c0,1.3-1,2.3-2.3,2.3c-1.3,0-2.3-1-2.3-2.3c0-1.3,1-2.3,2.3-2.3C46.5,102.8,47.5,103.8,47.5,105.1"
		/>
	<path class="st0" d="M43.5,96.8c0,1.3-1,2.3-2.3,2.3s-2.3-1-2.3-2.3c0-1.3,1-2.3,2.3-2.3S43.5,95.5,43.5,96.8"/>
	<path class="st0" d="M38.2,83.7c0,1.3-1,2.3-2.3,2.3c-1.3,0-2.3-1-2.3-2.3c0-1.3,1-2.3,2.3-2.3C37.2,81.4,38.2,82.4,38.2,83.7"/>
	<path class="st0" d="M35.3,74.9c0,1.3-1,2.3-2.3,2.3c-1.3,0-2.3-1-2.3-2.3c0-1.3,1-2.3,2.3-2.3C34.2,72.6,35.3,73.6,35.3,74.9"/>
	<path class="st0" d="M68.7,35.3c0,1.3-1,2.3-2.3,2.3c-1.3,0-2.3-1-2.3-2.3c0-1.3,1-2.3,2.3-2.3C67.7,33,68.7,34,68.7,35.3"/>
	<path class="st0" d="M55.9,40.7c0,1.3-1,2.3-2.3,2.3c-1.3,0-2.3-1-2.3-2.3c0-1.3,1-2.3,2.3-2.3C54.8,38.4,55.9,39.4,55.9,40.7"/>
	<path class="st0" d="M47.6,44.8c0,1.3-1,2.3-2.3,2.3c-1.3,0-2.3-1-2.3-2.3c0-1.3,1-2.3,2.3-2.3C46.6,42.4,47.6,43.5,47.6,44.8"/>
	<path class="st0" d="M43.6,53.1c0,1.3-1,2.3-2.3,2.3c-1.3,0-2.3-1-2.3-2.3c0-1.3,1-2.3,2.3-2.3C42.5,50.8,43.6,51.8,43.6,53.1"/>
	<path class="st0" d="M38.2,66.1c0,1.3-1,2.3-2.3,2.3s-2.3-1-2.3-2.3c0-1.3,1-2.3,2.3-2.3S38.2,64.8,38.2,66.1"/>
	<path class="st0" d="M78.7,40.5c0,2-1.6,3.7-3.6,3.7c-2,0-3.6-1.7-3.6-3.7c0-2,1.6-3.7,3.6-3.7C77.1,36.8,78.7,38.4,78.7,40.5"/>
	<path class="st0" d="M54.6,50.6c0,2-1.6,3.7-3.6,3.7c-2,0-3.6-1.7-3.6-3.7c0-2,1.6-3.7,3.6-3.7C53,46.9,54.6,48.5,54.6,50.6"/>
	<path class="st0" d="M44.6,74.9c0,2-1.6,3.7-3.6,3.7c-2,0-3.6-1.7-3.6-3.7c0-2,1.6-3.7,3.6-3.7C43,71.2,44.6,72.9,44.6,74.9"/>
	<path class="st0" d="M102.7,50.6c0,2-1.6,3.7-3.6,3.7c-2,0-3.6-1.7-3.6-3.7c0-2,1.6-3.7,3.6-3.7C101.1,46.9,102.7,48.6,102.7,50.6"
		/>
	<path class="st0" d="M112.7,75c0,2-1.6,3.7-3.6,3.7c-2,0-3.6-1.7-3.6-3.7c0-2,1.6-3.7,3.6-3.7C111,71.3,112.7,73,112.7,75"/>
	<path class="st0" d="M102.7,99.4c0,2-1.6,3.7-3.6,3.7c-2,0-3.6-1.7-3.6-3.7c0-2,1.6-3.7,3.6-3.7C101,95.7,102.7,97.4,102.7,99.4"/>
	<path class="st0" d="M78.6,109.5c0,2-1.6,3.7-3.6,3.7c-2,0-3.6-1.7-3.6-3.7c0-2,1.6-3.7,3.6-3.7C77,105.8,78.6,107.5,78.6,109.5"/>
	<path class="st0" d="M54.6,99.4c0,2-1.6,3.7-3.6,3.7c-2,0-3.6-1.7-3.6-3.7c0-2,1.6-3.7,3.6-3.7C52.9,95.7,54.6,97.3,54.6,99.4"/>
</g>
</svg>
