<?xml version="1.0" encoding="utf-8"?>
<!-- Generator: Adobe Illustrator 28.1.0, SVG Export Plug-In . SVG Version: 6.00 Build 0)  -->
<svg version="1.1" id="Layer_1" xmlns="http://www.w3.org/2000/svg" xmlns:xlink="http://www.w3.org/1999/xlink" x="0px" y="0px"
	 viewBox="0 0 300 300" style="enable-background:new 0 0 300 300;" xml:space="preserve">
<style type="text/css">
	.st0{fill:#FFFFFF;}
</style>
<g>
	<g>
		<path class="st0" d="M245,114c-0.4,2-1.7,3.9-3.9,5.3l-3.3,2.3l-22.5-15.9c-5.5-3.9-14.1-3.9-19.6,0l-22.4,16l-3.8-2.6
			c-4.6-3.3-4.6-10.1,0-13.4L195.6,87c5.5-3.9,14.1-3.9,19.6,0l25.7,18.3C244.4,107.7,245.7,110.9,245,114z"/>
		<path class="st0" d="M130.5,119l-3.8,2.6l-22.4-15.9c-5.5-3.9-14.1-3.9-19.6,0l-22.5,16l-3.3-2.3c-2.2-1.6-3.5-3.5-3.9-5.5
			c-0.7-3,0.6-6.2,3.9-8.5L84.7,87c5.5-3.9,14.1-3.9,19.6,0l26.1,18.6C135.1,108.9,135.1,115.8,130.5,119z"/>
		<path class="st0" d="M260.9,112.4v18.8c0,3.6-1.9,7.2-5.8,10l-36.7,26.1c-7.7,5.5-20.2,5.5-27.9,0l-34.8-24.8
			c-3.5-2.5-8.1-2.5-11.6,0l-34.8,24.8c-7.7,5.5-20.2,5.5-27.9,0l-36.7-26.1c-3.9-2.7-5.8-6.4-5.8-10v-18.8c0,3.3,1.7,6.8,5.1,9.4
			c0.3,0.3,0.4,0.4,0.7,0.6l10.1,7.2l26.6,18.9c7.7,5.5,20.2,5.5,27.9,0l27.4-19.5l5.1-3.6c4.8-3.5,11.3-3.5,16,0l5.2,3.6l27.3,19.5
			c7.7,5.5,20.2,5.5,27.9,0l26.6-18.9l10.1-7.2c0.3-0.1,0.4-0.3,0.7-0.6C259.1,119.2,260.9,115.7,260.9,112.4z"/>
	</g>
	<g>
		<path class="st0" d="M16.7,216c-0.4,0-0.8-0.1-1.2-0.3c-0.7-0.4-1.1-1.1-1.1-2v-16.7c2.5,0,4.6,2.1,4.6,4.6v8.2l9.3-4.9
			c0.7-0.3,1.5-0.3,2.2,0l9.3,4.9v-8.2c0-2.5,2.1-4.6,4.6-4.6v16.7c0,0.8-0.4,1.6-1.1,2c-0.7,0.4-1.5,0.4-2.3,0l-11.6-6.1l-11.6,6.1
			C17.4,215.9,17,216,16.7,216z"/>
		<path class="st0" d="M191.4,215.6c-0.4,0-0.8-0.1-1.1-0.3l-22-12.1v8c0,2.5-2.1,4.6-4.6,4.6v-16.5c0-0.8,0.4-1.6,1.1-2
			c0.7-0.4,1.6-0.4,2.3,0l22,12.1v-8c0-2.5,2.1-4.6,4.6-4.6v16.6c0,0.8-0.4,1.6-1.1,2C192.2,215.5,191.8,215.6,191.4,215.6z"/>
		<path class="st0" d="M99.2,215.6c-0.4,0-0.8-0.1-1.1-0.3l-22-12.1v8c0,2.5-2.1,4.6-4.6,4.6v-16.5c0-0.8,0.4-1.6,1.1-2
			c0.7-0.4,1.6-0.4,2.3,0l21.9,12.1v-8c0-2.5,2.1-4.6,4.6-4.6v16.6c0,0.8-0.4,1.6-1.1,2C100,215.5,99.6,215.6,99.2,215.6z"/>
		<path class="st0" d="M56.1,215.9v-14.5c0-2.5,2.1-4.6,4.6-4.6v14.5C60.7,213.8,58.6,215.9,56.1,215.9z"/>
		<path class="st0" d="M147.9,215.9v-14.5c0-2.5,2.1-4.6,4.6-4.6v14.5C152.6,213.8,150.5,215.9,147.9,215.9z"/>
		<path class="st0" d="M205,215.9v-14.5c0-2.5,2.1-4.6,4.6-4.6v14.5C209.7,213.8,207.6,215.9,205,215.9z"/>
		<path class="st0" d="M122.8,209.4h-7.9v-4.6h12.5C127.4,207.3,125.4,209.4,122.8,209.4z"/>
		<path class="st0" d="M112.6,215.9v-17.3c0-1.3,1.1-2.3,2.3-2.3h23.8c0,2.5-2.1,4.6-4.6,4.6h-16.8v10.4
			C117.2,213.8,115.2,215.9,112.6,215.9z"/>
		<path class="st0" d="M231.7,215.8v-16.8h4.6v12.2C236.3,213.8,234.3,215.8,231.7,215.8z"/>
		<path class="st0" d="M244,201.4h-20c-2.5,0-4.6-2.1-4.6-4.6h29.2C248.7,199.3,246.5,201.4,244,201.4z"/>
		<path class="st0" d="M276,199.2l-4.7,4.5l-4.7-4.5c-1.7-1.6-3.9-2.5-6.3-2.5h-3.5l12.2,11.1v8c2.5,0,4.6-2.1,4.6-4.6v-3.4
			l12.1-11.1h-3.4C279.9,196.8,277.6,197.6,276,199.2z"/>
	</g>
</g>
</svg>
