<?xml version="1.0" encoding="utf-8"?>
<!-- Generator: Adobe Illustrator 27.1.1, SVG Export Plug-In . SVG Version: 6.00 Build 0)  -->
<svg version="1.1" id="Layer_1" xmlns="http://www.w3.org/2000/svg" xmlns:xlink="http://www.w3.org/1999/xlink" x="0px" y="0px"
	 viewBox="0 0 150 150" style="enable-background:new 0 0 150 150;" xml:space="preserve">
<style type="text/css">
	.st0{fill:#0078FF;}
	.st1{fill:#FFFFFF;}
</style>
<g transform="translate(0.000000,285.000000) scale(0.100000,-0.100000)">
	<path class="st0" d="M675.5,2776.1c-92.5-14-158.1-33.7-226.5-67.9c-46.7-23.6-99.3-57.8-130.1-84.3l-18.8-16.9l15.9-38.1
		c8.7-20.7,17.3-39.5,19.3-41.4c1.4-1.9,15.9,7.7,31.8,21.2c199.5,170.6,490.6,188.9,709.3,44.3c79-51.6,162.4-146,205.3-230.8
		c17.8-35.7,39.5-100.2,49.6-147c12-56.4,12-170.1,0-226.5c-9.6-46.7-30.4-111.8-38.6-123.4c-4.8-6.7-19.3,26.5-84.8,197.6
		c-43.4,112.8-80.5,205.3-81.9,205.3s-29.4-69.4-62.2-154.7c-32.8-84.8-61.2-152.3-63.1-150.3c-1.9,1.9-29.9,70.8-62.6,152.3
		c-32.8,81.4-61.2,146.5-63.1,144.6c-2.9-2.9-133.5-340.2-200-515.6l-11.6-30.4h50.1h49.6l54.5,147c29.9,81,55.9,147,57.3,147
		c1.4,0,27.5-60.2,57.3-134c29.9-73.2,58.3-142.2,62.6-152.3l8.7-18.8l56.9,146.5c66.5,170.1,65.5,167.2,70.4,158.1
		c1.9-3.9,33.3-82.4,69.9-175.4c36.1-92.5,66.5-169.6,67.5-170.6c4.8-4.8,68.4,91.1,91.1,136.9c53.5,107.5,73.2,203.4,68.9,327.7
		c-4.3,112.8-20.7,177.8-70.8,279.5c-77.6,156.6-221.7,282.4-387,337.3c-77.6,25.5-113.7,31.8-200.9,33.7
		C725.6,2777.5,683.6,2777,675.5,2776.1z"/>
	<path class="st1" d="M204.7,2507.2c-43.9-55.9-84.3-137.8-107.5-217.3c-39.5-136.9-33.7-289.1,16.4-425.5
		c71.8-196.1,241.9-355.6,442.4-414.9c68.4-20.2,116.6-26.5,196.6-26.5c85.8,0,133,7.2,209.6,31.8c71.8,23.1,168.2,75.2,222.6,121
		l13.5,11.1l-16.9,40c-9.6,22.2-18.3,42.4-19.8,44.8c-1.4,1.9-12.5-4.8-25.1-15.9c-74.7-65.5-182.2-116.6-285.3-134.9
		c-51.6-9.2-161.4-8.2-211.1,2.4c-238.5,50.6-416.3,226-466.5,461.6c-11.6,54.9-14,142.6-5.3,199.5c8.7,54.9,35.7,145,41.9,138.8
		c2.4-2.4,38.1-92,79.5-199.5c41.9-107.5,77.6-197.1,79.5-199c3.4-3.9,11.6,15.9,87.2,212c19.8,51.1,36.6,93,38.1,93
		c1.4,0,29.4-66.5,62.2-147.5c33.3-81,61.7-147.9,63.1-148.9c1.4-1,50.1,121,107,271.3c57.3,150.3,106,277.1,107.5,281.9
		c3.4,7.7,0,8.2-48.7,7.2l-52.5-1.4l-53.5-147c-29.4-81-55.4-147-57.3-147c-1.4,0-30.8,66.5-64.1,147.9
		c-33.7,81.4-62.2,148.4-63.6,148.4c-1.4,0-29.9-69.4-62.6-154.2s-61.7-152.3-63.1-150.3c-1.9,1.9-30.8,72.8-64.6,157.1
		c-33.3,84.8-64.6,161.4-69.4,170.6l-8.7,16.9L204.7,2507.2z"/>
</g>
</svg>
