<svg width="132" height="45" viewBox="0 0 132 45" fill="none" xmlns="http://www.w3.org/2000/svg">
<path d="M64.1087 45.0009C39.9742 45.0009 25.3444 44.6511 19.3852 43.9344C14.1659 43.306 9.6922 41.3016 6.44647 38.1385C2.53198 34.324 0.546875 29.0893 0.546875 22.5805C0.546875 15.624 2.54928 10.2375 6.49835 6.56707C9.64993 3.63842 13.8661 1.8916 19.3852 1.22669C25.3463 0.507982 39.98 0.160156 64.1183 0.160156H67.8291C91.9675 0.160156 106.601 0.509904 112.562 1.22669C118.083 1.8916 122.299 3.63842 125.449 6.56707C129.398 10.2375 131.401 15.624 131.401 22.5805C131.401 29.0912 129.415 34.3259 125.501 38.1385C122.255 41.3016 117.78 43.304 112.562 43.9344C106.601 44.6531 91.9713 45.0009 67.8387 45.0009H64.1087Z" fill="url(#paint0_linear_3401_893319)"/>
<path d="M112.2 4.2057C103.212 3.12379 74.2884 3.1603 65.9733 3.1603C57.6581 3.1603 28.7347 3.12379 19.747 4.2057C11.4856 5.20114 3.5625 9.229 3.5625 22.579C3.5625 34.8451 11.4856 39.9568 19.747 40.9523C28.7347 42.0342 57.6581 41.9977 65.9733 41.9977C74.2884 41.9977 103.212 42.0342 112.2 40.9523C120.461 39.9568 128.384 34.8471 128.384 22.579C128.384 9.229 120.461 5.20114 112.2 4.2057Z" fill="url(#paint1_linear_3401_893319)"/>
<defs>
<linearGradient id="paint0_linear_3401_893319" x1="65.9728" y1="0.158235" x2="65.9728" y2="45.0009" gradientUnits="userSpaceOnUse">
<stop stop-color="#68E009"/>
<stop offset="0.6" stop-color="#00A326"/>
<stop offset="1" stop-color="#007531"/>
</linearGradient>
<linearGradient id="paint1_linear_3401_893319" x1="65.9752" y1="3.1603" x2="65.9752" y2="41.9958" gradientUnits="userSpaceOnUse">
<stop stop-color="#89F400"/>
<stop offset="0.78" stop-color="#00A326"/>
<stop offset="1" stop-color="#00913C"/>
</linearGradient>
</defs>
</svg>
